<?xml version="1.0" encoding="UTF-8"?>
<svg xmlns="http://www.w3.org/2000/svg" xmlns:xlink="http://www.w3.org/1999/xlink" width="10pt" height="8pt" viewBox="0 0 10 8" version="1.1">
<g id="surface1">
<path style=" stroke:none;fill-rule:evenodd;fill:rgb(98.823529%,70.588235%,26.666667%);fill-opacity:1;" d="M 8.082031 0.03125 C 8.066406 0.0507812 8.054688 0.0703125 8.054688 0.078125 C 8.054688 0.0859375 8.050781 0.0976562 8.042969 0.0976562 C 8.035156 0.101562 8.03125 0.171875 8.03125 0.636719 L 8.03125 1.167969 L 8.078125 1.21875 C 8.101562 1.246094 8.128906 1.265625 8.136719 1.265625 C 8.148438 1.265625 8.15625 1.269531 8.160156 1.277344 C 8.160156 1.285156 8.175781 1.289062 8.214844 1.289062 C 8.253906 1.289062 8.265625 1.285156 8.269531 1.277344 C 8.273438 1.269531 8.28125 1.265625 8.289062 1.265625 C 8.3125 1.265625 8.375 1.199219 8.375 1.179688 C 8.375 1.167969 8.378906 1.160156 8.386719 1.15625 C 8.394531 1.152344 8.398438 1.089844 8.398438 0.640625 C 8.398438 0.195312 8.394531 0.128906 8.386719 0.125 C 8.378906 0.121094 8.375 0.113281 8.375 0.105469 C 8.375 0.0976562 8.367188 0.0820312 8.359375 0.0742188 C 8.351562 0.0664062 8.34375 0.0507812 8.34375 0.0390625 C 8.339844 0.0234375 8.335938 0.0195312 8.320312 0.015625 C 8.308594 0.015625 8.296875 0.0117188 8.296875 0.0078125 C 8.296875 0.00390625 8.257812 0 8.203125 0 L 8.113281 0 L 8.082031 0.03125 M 4.371094 0.726562 C 4.367188 0.726562 4.363281 0.734375 4.363281 0.742188 C 4.363281 0.75 4.339844 0.75 4.238281 0.75 C 4.136719 0.75 4.117188 0.753906 4.113281 0.765625 C 4.109375 0.773438 4.09375 0.777344 4.027344 0.777344 C 3.960938 0.777344 3.941406 0.777344 3.9375 0.789062 C 3.9375 0.796875 3.921875 0.800781 3.878906 0.800781 C 3.832031 0.800781 3.820312 0.800781 3.816406 0.816406 C 3.808594 0.828125 3.796875 0.832031 3.761719 0.832031 C 3.726562 0.832031 3.714844 0.835938 3.714844 0.84375 C 3.714844 0.851562 3.707031 0.855469 3.679688 0.855469 C 3.65625 0.855469 3.644531 0.859375 3.640625 0.867188 C 3.640625 0.875 3.628906 0.878906 3.605469 0.878906 C 3.582031 0.878906 3.570312 0.882812 3.570312 0.890625 C 3.566406 0.898438 3.554688 0.902344 3.535156 0.902344 C 3.511719 0.902344 3.5 0.90625 3.492188 0.917969 C 3.488281 0.929688 3.476562 0.9375 3.464844 0.9375 C 3.449219 0.9375 3.441406 0.941406 3.441406 0.949219 C 3.441406 0.957031 3.433594 0.960938 3.421875 0.960938 C 3.40625 0.960938 3.394531 0.964844 3.394531 0.972656 C 3.390625 0.976562 3.378906 0.984375 3.371094 0.984375 C 3.359375 0.984375 3.347656 0.988281 3.347656 0.996094 C 3.34375 1.003906 3.335938 1.007812 3.324219 1.007812 C 3.316406 1.007812 3.296875 1.019531 3.285156 1.035156 C 3.273438 1.050781 3.253906 1.0625 3.246094 1.0625 C 3.238281 1.0625 3.21875 1.078125 3.207031 1.09375 C 3.195312 1.105469 3.175781 1.121094 3.167969 1.121094 C 3.160156 1.121094 3.132812 1.140625 3.105469 1.171875 C 3.078125 1.199219 3.050781 1.222656 3.042969 1.222656 C 3.023438 1.222656 2.949219 1.308594 2.949219 1.332031 C 2.949219 1.34375 2.945312 1.351562 2.941406 1.351562 C 2.929688 1.351562 2.871094 1.414062 2.871094 1.421875 C 2.871094 1.429688 2.867188 1.433594 2.859375 1.433594 C 2.855469 1.433594 2.847656 1.4375 2.847656 1.453125 C 2.847656 1.464844 2.839844 1.480469 2.824219 1.496094 C 2.808594 1.511719 2.796875 1.53125 2.796875 1.539062 C 2.796875 1.550781 2.792969 1.558594 2.785156 1.5625 C 2.777344 1.566406 2.773438 1.574219 2.773438 1.585938 C 2.773438 1.597656 2.765625 1.609375 2.757812 1.617188 C 2.75 1.625 2.742188 1.636719 2.742188 1.648438 C 2.742188 1.65625 2.738281 1.667969 2.730469 1.671875 C 2.726562 1.675781 2.71875 1.691406 2.71875 1.699219 C 2.71875 1.710938 2.714844 1.71875 2.707031 1.722656 C 2.703125 1.726562 2.699219 1.734375 2.699219 1.746094 C 2.699219 1.757812 2.691406 1.769531 2.6875 1.769531 C 2.679688 1.773438 2.675781 1.785156 2.675781 1.8125 C 2.675781 1.835938 2.671875 1.847656 2.664062 1.847656 C 2.652344 1.847656 2.644531 1.863281 2.644531 1.898438 C 2.644531 1.914062 2.640625 1.929688 2.632812 1.929688 C 2.625 1.933594 2.621094 1.949219 2.621094 1.984375 C 2.621094 2.015625 2.617188 2.03125 2.609375 2.035156 C 2.601562 2.039062 2.597656 2.054688 2.597656 2.097656 C 2.597656 2.144531 2.597656 2.160156 2.585938 2.164062 C 2.570312 2.167969 2.570312 2.746094 2.585938 2.753906 C 2.597656 2.757812 2.597656 2.773438 2.597656 2.832031 C 2.597656 2.886719 2.601562 2.90625 2.609375 2.910156 C 2.617188 2.910156 2.621094 2.925781 2.621094 2.960938 C 2.621094 2.996094 2.625 3.007812 2.632812 3.011719 C 2.640625 3.015625 2.644531 3.027344 2.644531 3.046875 C 2.644531 3.070312 2.648438 3.082031 2.660156 3.089844 C 2.671875 3.097656 2.675781 3.109375 2.675781 3.132812 C 2.675781 3.15625 2.679688 3.167969 2.6875 3.171875 C 2.695312 3.171875 2.699219 3.1875 2.699219 3.207031 C 2.699219 3.230469 2.703125 3.242188 2.707031 3.246094 C 2.714844 3.246094 2.71875 3.257812 2.71875 3.273438 C 2.71875 3.285156 2.726562 3.296875 2.730469 3.300781 C 2.738281 3.304688 2.742188 3.3125 2.742188 3.320312 C 2.742188 3.328125 2.75 3.34375 2.757812 3.351562 C 2.765625 3.359375 2.773438 3.375 2.773438 3.382812 C 2.773438 3.394531 2.777344 3.402344 2.785156 3.40625 C 2.792969 3.40625 2.796875 3.417969 2.796875 3.429688 C 2.796875 3.445312 2.800781 3.457031 2.808594 3.457031 C 2.8125 3.460938 2.820312 3.472656 2.820312 3.480469 C 2.820312 3.492188 2.828125 3.507812 2.847656 3.523438 C 2.859375 3.535156 2.871094 3.554688 2.871094 3.5625 C 2.871094 3.574219 2.886719 3.59375 2.910156 3.617188 C 2.929688 3.636719 2.949219 3.660156 2.949219 3.667969 C 2.949219 3.675781 2.980469 3.714844 3.019531 3.757812 C 3.105469 3.84375 3.105469 3.84375 3.054688 3.894531 C 3.035156 3.914062 3.015625 3.9375 3.015625 3.945312 C 3.015625 3.953125 3 3.976562 2.984375 3.992188 C 2.964844 4.011719 2.949219 4.035156 2.949219 4.042969 C 2.949219 4.050781 2.929688 4.074219 2.910156 4.097656 C 2.882812 4.121094 2.871094 4.140625 2.871094 4.15625 C 2.871094 4.167969 2.867188 4.175781 2.859375 4.175781 C 2.855469 4.175781 2.847656 4.179688 2.847656 4.183594 C 2.847656 4.191406 2.84375 4.199219 2.835938 4.207031 C 2.824219 4.210938 2.820312 4.222656 2.820312 4.234375 C 2.820312 4.242188 2.808594 4.261719 2.796875 4.269531 C 2.785156 4.28125 2.773438 4.296875 2.773438 4.304688 C 2.773438 4.3125 2.765625 4.328125 2.757812 4.335938 C 2.75 4.34375 2.742188 4.359375 2.742188 4.367188 C 2.742188 4.375 2.738281 4.382812 2.730469 4.386719 C 2.726562 4.390625 2.71875 4.402344 2.71875 4.414062 C 2.71875 4.425781 2.714844 4.441406 2.707031 4.441406 C 2.703125 4.445312 2.699219 4.457031 2.699219 4.464844 C 2.699219 4.476562 2.691406 4.488281 2.6875 4.488281 C 2.679688 4.492188 2.675781 4.503906 2.675781 4.511719 C 2.675781 4.523438 2.667969 4.539062 2.660156 4.546875 C 2.652344 4.554688 2.644531 4.566406 2.644531 4.574219 C 2.644531 4.582031 2.640625 4.59375 2.632812 4.597656 C 2.625 4.605469 2.621094 4.617188 2.621094 4.628906 C 2.621094 4.640625 2.617188 4.648438 2.609375 4.648438 C 2.601562 4.648438 2.597656 4.65625 2.597656 4.671875 C 2.597656 4.683594 2.59375 4.695312 2.585938 4.699219 C 2.578125 4.703125 2.574219 4.714844 2.574219 4.738281 C 2.574219 4.765625 2.574219 4.773438 2.566406 4.773438 C 2.554688 4.773438 2.546875 4.792969 2.546875 4.816406 C 2.546875 4.824219 2.539062 4.832031 2.535156 4.835938 C 2.527344 4.835938 2.523438 4.851562 2.523438 4.871094 C 2.523438 4.894531 2.519531 4.90625 2.511719 4.910156 C 2.503906 4.910156 2.5 4.925781 2.5 4.960938 C 2.5 4.996094 2.496094 5.007812 2.488281 5.011719 C 2.480469 5.015625 2.476562 5.027344 2.476562 5.050781 C 2.476562 5.074219 2.472656 5.085938 2.460938 5.09375 C 2.449219 5.101562 2.445312 5.113281 2.445312 5.164062 C 2.445312 5.207031 2.445312 5.222656 2.433594 5.226562 C 2.425781 5.230469 2.425781 5.246094 2.425781 5.300781 C 2.425781 5.359375 2.421875 5.375 2.414062 5.378906 C 2.402344 5.382812 2.402344 5.402344 2.402344 5.492188 C 2.402344 5.59375 2.398438 5.605469 2.386719 5.617188 C 2.363281 5.636719 2.363281 6.082031 2.386719 6.09375 C 2.398438 6.101562 2.402344 6.113281 2.402344 6.230469 C 2.402344 6.34375 2.402344 6.359375 2.414062 6.363281 C 2.421875 6.363281 2.101562 6.367188 1.699219 6.367188 C 0.980469 6.367188 0.972656 6.367188 0.964844 6.382812 C 0.957031 6.394531 0.945312 6.398438 0.925781 6.398438 C 0.894531 6.398438 0.859375 6.425781 0.859375 6.453125 C 0.859375 6.464844 0.855469 6.472656 0.847656 6.476562 C 0.835938 6.480469 0.828125 6.671875 0.84375 6.671875 C 0.84375 6.671875 0.859375 6.683594 0.875 6.699219 C 0.886719 6.714844 0.90625 6.726562 0.917969 6.726562 C 0.925781 6.726562 0.933594 6.730469 0.9375 6.738281 C 0.941406 6.75 1.039062 6.75 1.71875 6.753906 L 2.496094 6.753906 L 2.5 6.804688 C 2.5 6.84375 2.503906 6.855469 2.511719 6.855469 C 2.519531 6.855469 2.523438 6.867188 2.523438 6.902344 C 2.523438 6.933594 2.527344 6.953125 2.535156 6.957031 C 2.539062 6.964844 2.546875 6.980469 2.546875 6.996094 C 2.546875 7.011719 2.550781 7.027344 2.5625 7.035156 C 2.574219 7.046875 2.574219 7.058594 2.574219 7.097656 C 2.574219 7.128906 2.578125 7.140625 2.585938 7.144531 C 2.59375 7.148438 2.597656 7.160156 2.597656 7.171875 C 2.597656 7.183594 2.605469 7.195312 2.609375 7.195312 C 2.617188 7.199219 2.621094 7.210938 2.621094 7.230469 C 2.621094 7.246094 2.628906 7.265625 2.632812 7.273438 C 2.644531 7.285156 2.605469 7.285156 1.363281 7.285156 L 0.0820312 7.285156 L 0.0390625 7.332031 L 0 7.375 L 0 7.453125 C 0 7.503906 0.00390625 7.535156 0.0078125 7.535156 C 0.0117188 7.535156 0.015625 7.546875 0.015625 7.558594 C 0.015625 7.578125 0.0195312 7.585938 0.03125 7.589844 C 0.0390625 7.589844 0.046875 7.597656 0.046875 7.605469 C 0.046875 7.609375 0.0546875 7.613281 0.0664062 7.613281 C 0.0820312 7.613281 0.0898438 7.621094 0.09375 7.625 C 0.0976562 7.636719 0.257812 7.640625 1.480469 7.640625 C 2.855469 7.640625 2.863281 7.640625 2.871094 7.65625 C 2.878906 7.664062 2.886719 7.671875 2.898438 7.671875 C 2.910156 7.671875 2.921875 7.675781 2.921875 7.683594 C 2.925781 7.691406 2.9375 7.695312 2.960938 7.695312 C 2.980469 7.695312 2.992188 7.699219 2.996094 7.707031 C 3 7.714844 3.011719 7.71875 3.035156 7.71875 C 3.058594 7.71875 3.070312 7.722656 3.070312 7.730469 C 3.070312 7.742188 3.085938 7.75 3.117188 7.75 C 3.132812 7.75 3.144531 7.753906 3.148438 7.761719 C 3.152344 7.769531 3.164062 7.773438 3.183594 7.773438 C 3.199219 7.773438 3.214844 7.78125 3.222656 7.785156 C 3.226562 7.792969 3.242188 7.796875 3.261719 7.796875 C 3.277344 7.796875 3.289062 7.804688 3.292969 7.8125 C 3.296875 7.820312 3.308594 7.824219 3.332031 7.824219 C 3.355469 7.824219 3.367188 7.824219 3.367188 7.832031 C 3.367188 7.847656 3.382812 7.855469 3.425781 7.855469 C 3.449219 7.855469 3.464844 7.859375 3.472656 7.867188 C 3.480469 7.875 3.496094 7.878906 3.523438 7.878906 C 3.550781 7.878906 3.5625 7.882812 3.566406 7.890625 C 3.570312 7.898438 3.582031 7.902344 3.617188 7.902344 C 3.648438 7.902344 3.664062 7.90625 3.664062 7.914062 C 3.667969 7.925781 3.683594 7.925781 3.726562 7.925781 C 3.769531 7.925781 3.78125 7.929688 3.792969 7.941406 C 3.804688 7.957031 3.816406 7.957031 3.871094 7.957031 C 3.921875 7.957031 3.933594 7.960938 3.9375 7.972656 C 3.941406 7.980469 3.964844 7.984375 4.078125 7.984375 C 4.160156 7.984375 4.210938 7.984375 4.210938 7.992188 C 4.210938 7.996094 4.289062 8 4.429688 8 C 4.570312 8 4.652344 7.996094 4.652344 7.992188 C 4.652344 7.984375 4.691406 7.984375 4.757812 7.984375 C 4.84375 7.984375 4.863281 7.980469 4.867188 7.972656 C 4.871094 7.960938 4.886719 7.957031 4.941406 7.957031 C 5 7.957031 5.007812 7.957031 5.015625 7.941406 C 5.023438 7.929688 5.035156 7.925781 5.085938 7.925781 C 5.132812 7.925781 5.144531 7.925781 5.144531 7.914062 C 5.144531 7.90625 5.152344 7.902344 5.179688 7.902344 C 5.203125 7.902344 5.214844 7.898438 5.21875 7.890625 C 5.222656 7.882812 5.234375 7.878906 5.265625 7.878906 C 5.300781 7.878906 5.3125 7.875 5.316406 7.867188 C 5.320312 7.859375 5.332031 7.855469 5.351562 7.855469 C 5.371094 7.855469 5.382812 7.851562 5.390625 7.839844 C 5.394531 7.828125 5.40625 7.824219 5.417969 7.824219 C 5.433594 7.824219 5.441406 7.820312 5.441406 7.8125 C 5.441406 7.800781 5.449219 7.796875 5.476562 7.796875 C 5.5 7.796875 5.511719 7.796875 5.515625 7.785156 C 5.515625 7.78125 5.527344 7.773438 5.535156 7.773438 C 5.546875 7.773438 5.558594 7.769531 5.5625 7.765625 C 5.566406 7.757812 5.582031 7.75 5.59375 7.746094 C 5.605469 7.746094 5.617188 7.738281 5.617188 7.730469 C 5.617188 7.722656 5.625 7.71875 5.648438 7.71875 C 5.671875 7.71875 5.6875 7.714844 5.6875 7.707031 C 5.691406 7.699219 5.703125 7.695312 5.714844 7.695312 C 5.726562 7.695312 5.738281 7.6875 5.753906 7.667969 C 5.765625 7.648438 5.777344 7.640625 5.792969 7.640625 C 5.800781 7.640625 5.8125 7.632812 5.816406 7.625 C 5.816406 7.621094 5.828125 7.613281 5.839844 7.613281 C 5.851562 7.613281 5.859375 7.609375 5.863281 7.601562 C 5.867188 7.597656 5.875 7.589844 5.882812 7.589844 C 5.894531 7.589844 5.910156 7.578125 5.925781 7.5625 C 5.941406 7.546875 5.957031 7.535156 5.96875 7.535156 C 5.980469 7.535156 5.988281 7.53125 5.988281 7.523438 C 5.988281 7.515625 5.992188 7.511719 6 7.511719 C 6.003906 7.511719 6.011719 7.503906 6.011719 7.5 C 6.011719 7.492188 6.019531 7.488281 6.03125 7.488281 C 6.042969 7.488281 6.0625 7.476562 6.085938 7.445312 C 6.105469 7.425781 6.128906 7.40625 6.136719 7.40625 C 6.144531 7.40625 6.171875 7.382812 6.199219 7.355469 C 6.222656 7.328125 6.25 7.304688 6.257812 7.304688 C 6.265625 7.304688 6.285156 7.289062 6.296875 7.273438 C 6.320312 7.246094 6.34375 7.238281 6.34375 7.257812 C 6.34375 7.265625 6.402344 7.328125 6.414062 7.328125 C 6.417969 7.328125 6.421875 7.332031 6.421875 7.335938 C 6.421875 7.351562 6.480469 7.40625 6.5 7.40625 C 6.511719 7.40625 6.519531 7.410156 6.519531 7.417969 C 6.519531 7.425781 6.523438 7.429688 6.53125 7.429688 C 6.539062 7.429688 6.542969 7.433594 6.542969 7.4375 C 6.542969 7.453125 6.582031 7.484375 6.597656 7.488281 C 6.609375 7.488281 6.625 7.5 6.632812 7.511719 C 6.644531 7.523438 6.660156 7.535156 6.667969 7.535156 C 6.675781 7.535156 6.6875 7.542969 6.695312 7.550781 C 6.703125 7.558594 6.714844 7.566406 6.722656 7.566406 C 6.730469 7.566406 6.742188 7.570312 6.742188 7.578125 C 6.746094 7.585938 6.757812 7.589844 6.769531 7.589844 C 6.78125 7.589844 6.792969 7.597656 6.796875 7.601562 C 6.796875 7.609375 6.808594 7.613281 6.820312 7.613281 C 6.828125 7.613281 6.839844 7.621094 6.839844 7.625 C 6.84375 7.632812 6.855469 7.640625 6.863281 7.640625 C 6.875 7.640625 6.886719 7.644531 6.890625 7.65625 C 6.898438 7.664062 6.90625 7.671875 6.917969 7.671875 C 6.929688 7.671875 6.941406 7.675781 6.941406 7.683594 C 6.945312 7.691406 6.957031 7.695312 6.980469 7.695312 C 7 7.695312 7.011719 7.699219 7.015625 7.707031 C 7.019531 7.714844 7.03125 7.71875 7.054688 7.71875 C 7.078125 7.71875 7.089844 7.722656 7.089844 7.730469 C 7.089844 7.746094 7.105469 7.75 7.148438 7.75 C 7.175781 7.75 7.1875 7.753906 7.191406 7.761719 C 7.195312 7.773438 7.207031 7.773438 7.253906 7.773438 C 7.296875 7.773438 7.3125 7.777344 7.316406 7.785156 C 7.320312 7.796875 7.335938 7.796875 7.414062 7.796875 C 7.492188 7.796875 7.507812 7.800781 7.511719 7.8125 C 7.515625 7.820312 7.539062 7.824219 7.644531 7.824219 C 7.753906 7.824219 7.773438 7.820312 7.773438 7.8125 C 7.773438 7.800781 7.789062 7.796875 7.867188 7.796875 C 7.945312 7.796875 7.964844 7.796875 7.96875 7.785156 C 7.972656 7.777344 7.984375 7.773438 8.027344 7.773438 C 8.066406 7.773438 8.085938 7.769531 8.09375 7.761719 C 8.097656 7.753906 8.117188 7.75 8.144531 7.75 C 8.175781 7.75 8.1875 7.746094 8.191406 7.734375 C 8.199219 7.726562 8.210938 7.71875 8.222656 7.71875 C 8.238281 7.71875 8.246094 7.714844 8.246094 7.707031 C 8.246094 7.699219 8.253906 7.695312 8.277344 7.695312 C 8.300781 7.695312 8.316406 7.691406 8.316406 7.683594 C 8.320312 7.675781 8.332031 7.671875 8.339844 7.671875 C 8.351562 7.671875 8.363281 7.664062 8.367188 7.65625 C 8.375 7.644531 8.386719 7.640625 8.398438 7.640625 C 8.410156 7.640625 8.417969 7.632812 8.417969 7.625 C 8.417969 7.617188 8.425781 7.613281 8.441406 7.613281 C 8.457031 7.613281 8.46875 7.609375 8.46875 7.601562 C 8.472656 7.597656 8.480469 7.589844 8.492188 7.589844 C 8.5 7.589844 8.519531 7.578125 8.53125 7.5625 C 8.542969 7.546875 8.5625 7.535156 8.570312 7.535156 C 8.578125 7.535156 8.589844 7.53125 8.589844 7.523438 C 8.59375 7.515625 8.601562 7.511719 8.605469 7.511719 C 8.613281 7.511719 8.617188 7.503906 8.617188 7.5 C 8.617188 7.492188 8.625 7.488281 8.632812 7.488281 C 8.652344 7.488281 8.714844 7.429688 8.714844 7.414062 C 8.714844 7.410156 8.71875 7.40625 8.722656 7.40625 C 8.726562 7.40625 8.746094 7.390625 8.761719 7.375 C 8.777344 7.355469 8.792969 7.339844 8.792969 7.335938 C 8.792969 7.332031 8.796875 7.328125 8.804688 7.328125 C 8.808594 7.328125 8.816406 7.320312 8.816406 7.316406 C 8.816406 7.308594 8.820312 7.304688 8.824219 7.300781 C 8.835938 7.300781 8.867188 7.269531 8.867188 7.253906 C 8.867188 7.25 8.871094 7.246094 8.878906 7.246094 C 8.886719 7.246094 8.890625 7.242188 8.890625 7.234375 C 8.890625 7.226562 8.894531 7.222656 8.902344 7.222656 C 8.910156 7.222656 8.914062 7.214844 8.917969 7.199219 C 8.921875 7.1875 8.933594 7.164062 8.945312 7.152344 C 8.957031 7.140625 8.964844 7.125 8.964844 7.117188 C 8.964844 7.109375 8.980469 7.089844 8.992188 7.078125 C 9.007812 7.0625 9.019531 7.042969 9.019531 7.035156 C 9.019531 7.023438 9.023438 7.015625 9.03125 7.011719 C 9.039062 7.007812 9.042969 7 9.042969 6.988281 C 9.042969 6.976562 9.046875 6.964844 9.054688 6.960938 C 9.058594 6.960938 9.066406 6.949219 9.066406 6.933594 C 9.066406 6.921875 9.070312 6.910156 9.078125 6.90625 C 9.082031 6.90625 9.089844 6.894531 9.089844 6.886719 C 9.089844 6.875 9.09375 6.859375 9.101562 6.851562 C 9.113281 6.84375 9.117188 6.828125 9.117188 6.8125 C 9.117188 6.792969 9.121094 6.78125 9.128906 6.777344 C 9.136719 6.773438 9.140625 6.761719 9.140625 6.738281 C 9.140625 6.714844 9.144531 6.703125 9.152344 6.699219 C 9.160156 6.695312 9.164062 6.683594 9.164062 6.660156 C 9.164062 6.636719 9.167969 6.625 9.175781 6.621094 C 9.183594 6.617188 9.1875 6.601562 9.1875 6.566406 C 9.1875 6.527344 9.1875 6.519531 9.203125 6.515625 C 9.214844 6.511719 9.21875 6.503906 9.21875 6.464844 C 9.21875 6.429688 9.21875 6.414062 9.230469 6.410156 C 9.238281 6.410156 9.238281 6.390625 9.238281 6.332031 C 9.238281 6.273438 9.242188 6.253906 9.25 6.253906 C 9.261719 6.25 9.261719 6.230469 9.261719 6.148438 C 9.261719 6.066406 9.265625 6.046875 9.273438 6.046875 C 9.292969 6.046875 9.292969 6.027344 9.292969 5.59375 C 9.292969 5.164062 9.292969 5.144531 9.273438 5.144531 C 9.265625 5.144531 9.261719 5.121094 9.261719 5.015625 C 9.261719 4.910156 9.261719 4.886719 9.25 4.882812 C 9.242188 4.878906 9.238281 4.859375 9.238281 4.789062 C 9.238281 4.71875 9.238281 4.703125 9.230469 4.699219 C 9.21875 4.695312 9.21875 4.679688 9.21875 4.621094 C 9.21875 4.558594 9.214844 4.550781 9.203125 4.542969 C 9.1875 4.535156 9.1875 4.527344 9.1875 4.476562 C 9.1875 4.429688 9.183594 4.414062 9.175781 4.410156 C 9.167969 4.40625 9.164062 4.390625 9.164062 4.347656 C 9.164062 4.300781 9.160156 4.285156 9.152344 4.28125 C 9.144531 4.277344 9.140625 4.261719 9.140625 4.21875 C 9.140625 4.171875 9.136719 4.15625 9.128906 4.152344 C 9.121094 4.152344 9.117188 4.136719 9.117188 4.105469 C 9.117188 4.074219 9.113281 4.058594 9.101562 4.050781 C 9.089844 4.039062 9.089844 4.027344 9.089844 3.992188 C 9.089844 3.957031 9.085938 3.945312 9.078125 3.941406 C 9.070312 3.9375 9.066406 3.921875 9.066406 3.886719 C 9.066406 3.855469 9.0625 3.839844 9.054688 3.835938 C 9.046875 3.832031 9.042969 3.820312 9.042969 3.789062 C 9.042969 3.761719 9.039062 3.742188 9.03125 3.734375 C 9.023438 3.730469 9.019531 3.710938 9.019531 3.683594 C 9.019531 3.648438 9.015625 3.636719 9.003906 3.628906 C 8.992188 3.621094 8.988281 3.609375 8.988281 3.585938 C 8.988281 3.5625 8.984375 3.550781 8.976562 3.546875 C 8.96875 3.546875 8.964844 3.53125 8.964844 3.511719 C 8.964844 3.488281 8.960938 3.476562 8.957031 3.472656 C 8.945312 3.472656 8.945312 3.457031 8.945312 3.421875 C 8.945312 3.386719 8.941406 3.375 8.933594 3.371094 C 8.925781 3.367188 8.921875 3.355469 8.921875 3.339844 C 8.921875 3.304688 8.914062 3.289062 8.902344 3.289062 C 8.894531 3.289062 8.890625 3.277344 8.890625 3.25 C 8.890625 3.226562 8.886719 3.214844 8.878906 3.210938 C 8.871094 3.207031 8.867188 3.195312 8.867188 3.171875 C 8.867188 3.144531 8.863281 3.132812 8.855469 3.128906 C 8.847656 3.128906 8.84375 3.113281 8.84375 3.09375 C 8.84375 3.074219 8.839844 3.0625 8.828125 3.054688 C 8.820312 3.046875 8.816406 3.035156 8.816406 3.011719 C 8.816406 2.988281 8.8125 2.976562 8.804688 2.972656 C 8.796875 2.96875 8.792969 2.957031 8.792969 2.949219 C 8.792969 2.9375 8.785156 2.925781 8.78125 2.921875 C 8.773438 2.917969 8.769531 2.90625 8.769531 2.882812 C 8.769531 2.859375 8.765625 2.84375 8.757812 2.84375 C 8.75 2.839844 8.746094 2.828125 8.746094 2.808594 C 8.746094 2.785156 8.742188 2.773438 8.730469 2.765625 C 8.722656 2.757812 8.714844 2.746094 8.714844 2.734375 C 8.714844 2.71875 8.710938 2.710938 8.703125 2.710938 C 8.695312 2.710938 8.691406 2.703125 8.691406 2.675781 C 8.691406 2.652344 8.6875 2.636719 8.679688 2.632812 C 8.675781 2.632812 8.671875 2.617188 8.671875 2.601562 C 8.671875 2.582031 8.664062 2.566406 8.660156 2.558594 C 8.652344 2.554688 8.648438 2.542969 8.648438 2.535156 C 8.648438 2.527344 8.640625 2.511719 8.632812 2.503906 C 8.621094 2.496094 8.617188 2.480469 8.617188 2.460938 C 8.617188 2.441406 8.613281 2.429688 8.605469 2.425781 C 8.597656 2.425781 8.59375 2.410156 8.59375 2.398438 C 8.59375 2.386719 8.589844 2.375 8.582031 2.371094 C 8.578125 2.371094 8.570312 2.359375 8.570312 2.347656 C 8.570312 2.335938 8.566406 2.324219 8.558594 2.324219 C 8.554688 2.320312 8.546875 2.308594 8.546875 2.292969 C 8.546875 2.257812 8.542969 2.238281 8.527344 2.238281 C 8.523438 2.238281 8.519531 2.230469 8.519531 2.214844 C 8.519531 2.203125 8.511719 2.191406 8.507812 2.1875 C 8.5 2.1875 8.496094 2.175781 8.496094 2.164062 C 8.496094 2.152344 8.492188 2.140625 8.484375 2.136719 C 8.476562 2.136719 8.472656 2.125 8.472656 2.113281 C 8.472656 2.105469 8.464844 2.089844 8.457031 2.085938 C 8.445312 2.078125 8.441406 2.066406 8.441406 2.042969 C 8.441406 2.019531 8.4375 2.007812 8.429688 2.003906 C 8.425781 2.003906 8.417969 1.992188 8.417969 1.980469 C 8.417969 1.96875 8.414062 1.957031 8.40625 1.953125 C 8.402344 1.953125 8.398438 1.941406 8.398438 1.929688 C 8.398438 1.917969 8.390625 1.910156 8.386719 1.90625 C 8.378906 1.902344 8.375 1.894531 8.375 1.886719 C 8.375 1.863281 8.367188 1.847656 8.355469 1.847656 C 8.347656 1.847656 8.34375 1.839844 8.34375 1.828125 C 8.34375 1.800781 8.289062 1.742188 8.265625 1.742188 C 8.253906 1.742188 8.246094 1.738281 8.246094 1.734375 C 8.246094 1.722656 8.207031 1.6875 8.191406 1.6875 C 8.183594 1.6875 8.175781 1.683594 8.167969 1.675781 C 8.164062 1.667969 8.152344 1.664062 8.140625 1.664062 C 8.132812 1.664062 8.121094 1.660156 8.121094 1.652344 C 8.117188 1.644531 8.105469 1.640625 8.082031 1.640625 C 8.054688 1.640625 8.046875 1.636719 8.046875 1.628906 C 8.046875 1.621094 8.039062 1.617188 8.027344 1.617188 C 8.011719 1.617188 8 1.609375 7.996094 1.601562 C 7.992188 1.589844 7.976562 1.582031 7.96875 1.582031 C 7.957031 1.582031 7.949219 1.578125 7.945312 1.570312 C 7.941406 1.566406 7.933594 1.558594 7.921875 1.558594 C 7.910156 1.558594 7.898438 1.554688 7.898438 1.546875 C 7.894531 1.539062 7.882812 1.535156 7.871094 1.535156 C 7.855469 1.535156 7.847656 1.53125 7.847656 1.523438 C 7.847656 1.515625 7.839844 1.511719 7.816406 1.511719 C 7.789062 1.511719 7.78125 1.507812 7.773438 1.496094 C 7.769531 1.488281 7.757812 1.480469 7.746094 1.480469 C 7.738281 1.480469 7.726562 1.472656 7.726562 1.46875 C 7.722656 1.460938 7.710938 1.457031 7.6875 1.457031 C 7.664062 1.457031 7.652344 1.453125 7.648438 1.445312 C 7.648438 1.4375 7.636719 1.433594 7.628906 1.433594 C 7.617188 1.433594 7.605469 1.425781 7.597656 1.414062 C 7.589844 1.40625 7.574219 1.398438 7.558594 1.398438 C 7.542969 1.398438 7.527344 1.394531 7.523438 1.386719 C 7.519531 1.382812 7.503906 1.375 7.496094 1.375 C 7.488281 1.375 7.476562 1.371094 7.472656 1.363281 C 7.472656 1.355469 7.460938 1.351562 7.4375 1.351562 C 7.410156 1.351562 7.402344 1.347656 7.402344 1.339844 C 7.402344 1.332031 7.394531 1.328125 7.378906 1.328125 C 7.367188 1.328125 7.355469 1.320312 7.351562 1.3125 C 7.34375 1.300781 7.332031 1.296875 7.3125 1.296875 C 7.292969 1.296875 7.28125 1.292969 7.277344 1.285156 C 7.273438 1.277344 7.261719 1.273438 7.238281 1.273438 C 7.214844 1.273438 7.203125 1.269531 7.199219 1.261719 C 7.199219 1.25 7.1875 1.246094 7.164062 1.246094 C 7.144531 1.246094 7.132812 1.242188 7.128906 1.234375 C 7.128906 1.230469 7.117188 1.222656 7.105469 1.222656 C 7.09375 1.222656 7.082031 1.21875 7.078125 1.207031 C 7.070312 1.195312 7.058594 1.191406 7.039062 1.191406 C 7.019531 1.191406 7.007812 1.1875 7.003906 1.179688 C 7 1.171875 6.988281 1.167969 6.964844 1.167969 C 6.941406 1.167969 6.929688 1.164062 6.925781 1.15625 C 6.925781 1.148438 6.914062 1.144531 6.890625 1.144531 C 6.871094 1.144531 6.859375 1.140625 6.855469 1.132812 C 6.855469 1.125 6.839844 1.121094 6.808594 1.121094 C 6.769531 1.121094 6.761719 1.117188 6.753906 1.105469 C 6.75 1.09375 6.738281 1.085938 6.71875 1.085938 C 6.695312 1.085938 6.683594 1.082031 6.683594 1.074219 C 6.679688 1.066406 6.667969 1.0625 6.644531 1.0625 C 6.625 1.0625 6.609375 1.058594 6.609375 1.050781 C 6.605469 1.042969 6.59375 1.039062 6.558594 1.039062 C 6.523438 1.039062 6.515625 1.035156 6.507812 1.023438 C 6.5 1.011719 6.488281 1.007812 6.46875 1.007812 C 6.449219 1.007812 6.4375 1.003906 6.433594 0.996094 C 6.429688 0.988281 6.417969 0.984375 6.382812 0.984375 C 6.351562 0.984375 6.335938 0.980469 6.335938 0.972656 C 6.332031 0.964844 6.316406 0.960938 6.285156 0.960938 C 6.253906 0.960938 6.238281 0.957031 6.234375 0.949219 C 6.234375 0.9375 6.21875 0.9375 6.1875 0.9375 C 6.152344 0.9375 6.140625 0.933594 6.132812 0.917969 C 6.125 0.90625 6.117188 0.902344 6.082031 0.902344 C 6.050781 0.902344 6.039062 0.902344 6.035156 0.890625 C 6.03125 0.882812 6.019531 0.878906 5.972656 0.878906 C 5.921875 0.878906 5.910156 0.878906 5.910156 0.867188 C 5.910156 0.859375 5.898438 0.855469 5.851562 0.855469 C 5.804688 0.855469 5.789062 0.851562 5.789062 0.84375 C 5.785156 0.835938 5.769531 0.832031 5.714844 0.832031 C 5.652344 0.832031 5.644531 0.828125 5.636719 0.816406 C 5.632812 0.800781 5.621094 0.800781 5.5625 0.800781 C 5.511719 0.800781 5.496094 0.796875 5.492188 0.789062 C 5.488281 0.777344 5.46875 0.777344 5.390625 0.777344 C 5.316406 0.777344 5.296875 0.773438 5.292969 0.765625 C 5.289062 0.753906 5.269531 0.75 5.15625 0.75 C 5.035156 0.75 5.027344 0.75 5.015625 0.734375 C 5.007812 0.71875 4.40625 0.710938 4.371094 0.726562 M 5.132812 1.121094 C 5.136719 1.132812 5.140625 1.136719 5.230469 1.136719 C 5.308594 1.136719 5.324219 1.136719 5.328125 1.148438 C 5.332031 1.15625 5.351562 1.160156 5.417969 1.160156 C 5.484375 1.160156 5.5 1.164062 5.503906 1.171875 C 5.507812 1.179688 5.523438 1.183594 5.574219 1.183594 C 5.632812 1.183594 5.644531 1.1875 5.65625 1.199219 C 5.667969 1.214844 5.679688 1.214844 5.722656 1.214844 C 5.761719 1.214844 5.773438 1.21875 5.777344 1.226562 C 5.78125 1.238281 5.796875 1.238281 5.839844 1.238281 C 5.882812 1.238281 5.894531 1.242188 5.898438 1.25 C 5.902344 1.261719 5.914062 1.265625 5.949219 1.265625 C 5.980469 1.265625 5.996094 1.265625 6 1.277344 C 6 1.285156 6.015625 1.289062 6.058594 1.289062 C 6.105469 1.289062 6.117188 1.289062 6.125 1.304688 C 6.136719 1.3125 6.148438 1.320312 6.164062 1.320312 C 6.179688 1.320312 6.195312 1.324219 6.199219 1.332031 C 6.207031 1.339844 6.222656 1.34375 6.25 1.34375 C 6.28125 1.34375 6.292969 1.347656 6.296875 1.355469 C 6.300781 1.363281 6.3125 1.367188 6.347656 1.367188 C 6.378906 1.367188 6.390625 1.371094 6.394531 1.378906 C 6.398438 1.386719 6.410156 1.390625 6.429688 1.390625 C 6.453125 1.390625 6.464844 1.394531 6.472656 1.40625 C 6.480469 1.421875 6.488281 1.421875 6.523438 1.421875 C 6.554688 1.421875 6.566406 1.425781 6.570312 1.4375 C 6.574219 1.445312 6.585938 1.449219 6.605469 1.449219 C 6.628906 1.449219 6.640625 1.453125 6.644531 1.460938 C 6.648438 1.46875 6.660156 1.472656 6.683594 1.472656 C 6.703125 1.472656 6.71875 1.476562 6.71875 1.484375 C 6.722656 1.492188 6.734375 1.496094 6.753906 1.496094 C 6.777344 1.496094 6.789062 1.5 6.792969 1.511719 C 6.800781 1.523438 6.808594 1.527344 6.835938 1.527344 C 6.855469 1.527344 6.867188 1.53125 6.871094 1.539062 C 6.875 1.546875 6.886719 1.550781 6.90625 1.550781 C 6.925781 1.550781 6.941406 1.554688 6.941406 1.5625 C 6.945312 1.570312 6.957031 1.574219 6.976562 1.574219 C 7 1.574219 7.011719 1.578125 7.019531 1.589844 C 7.027344 1.601562 7.039062 1.609375 7.058594 1.609375 C 7.078125 1.609375 7.089844 1.613281 7.09375 1.621094 C 7.09375 1.625 7.105469 1.632812 7.117188 1.632812 C 7.128906 1.632812 7.136719 1.636719 7.140625 1.644531 C 7.144531 1.652344 7.15625 1.65625 7.175781 1.65625 C 7.199219 1.65625 7.210938 1.660156 7.214844 1.667969 C 7.21875 1.675781 7.230469 1.679688 7.253906 1.679688 C 7.277344 1.679688 7.289062 1.683594 7.289062 1.691406 C 7.289062 1.703125 7.304688 1.710938 7.324219 1.710938 C 7.332031 1.710938 7.339844 1.71875 7.34375 1.722656 C 7.347656 1.730469 7.359375 1.734375 7.378906 1.734375 C 7.398438 1.734375 7.410156 1.738281 7.414062 1.746094 C 7.417969 1.753906 7.425781 1.757812 7.4375 1.757812 C 7.449219 1.757812 7.460938 1.765625 7.464844 1.773438 C 7.46875 1.78125 7.480469 1.785156 7.5 1.785156 C 7.523438 1.785156 7.53125 1.789062 7.539062 1.800781 C 7.542969 1.808594 7.554688 1.816406 7.5625 1.816406 C 7.574219 1.816406 7.582031 1.820312 7.585938 1.828125 C 7.589844 1.835938 7.601562 1.839844 7.613281 1.839844 C 7.625 1.839844 7.636719 1.84375 7.640625 1.851562 C 7.640625 1.859375 7.65625 1.863281 7.675781 1.863281 L 7.707031 1.867188 L 7.605469 1.972656 C 7.550781 2.03125 7.5 2.078125 7.492188 2.078125 C 7.476562 2.078125 7.4375 2.113281 7.4375 2.128906 C 7.4375 2.132812 7.4375 2.136719 7.433594 2.136719 C 7.421875 2.136719 7.363281 2.199219 7.363281 2.207031 C 7.363281 2.210938 7.359375 2.214844 7.351562 2.214844 C 7.34375 2.214844 7.339844 2.222656 7.339844 2.226562 C 7.339844 2.234375 7.332031 2.238281 7.320312 2.238281 C 7.304688 2.238281 7.289062 2.253906 7.253906 2.292969 C 7.226562 2.320312 7.199219 2.34375 7.191406 2.34375 C 7.183594 2.34375 7.15625 2.367188 7.128906 2.394531 C 7.105469 2.425781 7.074219 2.449219 7.066406 2.449219 C 7.0625 2.449219 7.035156 2.472656 7.007812 2.5 C 6.972656 2.539062 6.957031 2.550781 6.941406 2.550781 C 6.925781 2.550781 6.917969 2.558594 6.917969 2.566406 C 6.914062 2.578125 6.910156 2.582031 6.902344 2.582031 C 6.898438 2.582031 6.890625 2.589844 6.890625 2.59375 C 6.890625 2.601562 6.886719 2.609375 6.878906 2.609375 C 6.875 2.609375 6.871094 2.613281 6.871094 2.621094 C 6.871094 2.628906 6.863281 2.632812 6.847656 2.632812 C 6.835938 2.632812 6.820312 2.644531 6.792969 2.671875 C 6.773438 2.695312 6.753906 2.710938 6.746094 2.710938 C 6.738281 2.710938 6.714844 2.730469 6.691406 2.75 C 6.667969 2.777344 6.648438 2.792969 6.636719 2.792969 C 6.628906 2.792969 6.617188 2.796875 6.617188 2.800781 C 6.617188 2.8125 6.589844 2.839844 6.574219 2.839844 C 6.558594 2.839844 6.519531 2.875 6.519531 2.886719 C 6.519531 2.890625 6.511719 2.894531 6.5 2.894531 C 6.484375 2.894531 6.472656 2.902344 6.457031 2.917969 C 6.449219 2.933594 6.433594 2.941406 6.425781 2.941406 C 6.414062 2.945312 6.398438 2.957031 6.386719 2.972656 C 6.371094 2.988281 6.355469 3 6.34375 3 C 6.335938 3 6.328125 3.003906 6.324219 3.011719 C 6.324219 3.019531 6.316406 3.023438 6.3125 3.023438 C 6.304688 3.023438 6.300781 3.027344 6.296875 3.035156 C 6.292969 3.042969 6.285156 3.046875 6.277344 3.046875 C 6.269531 3.046875 6.25 3.058594 6.234375 3.074219 C 6.222656 3.089844 6.203125 3.101562 6.195312 3.101562 C 6.183594 3.101562 6.175781 3.109375 6.171875 3.117188 C 6.171875 3.121094 6.160156 3.128906 6.152344 3.128906 C 6.144531 3.128906 6.125 3.140625 6.113281 3.15625 C 6.097656 3.171875 6.082031 3.183594 6.066406 3.183594 C 6.054688 3.183594 6.046875 3.1875 6.046875 3.195312 C 6.046875 3.203125 6.042969 3.207031 6.027344 3.207031 C 6.011719 3.207031 6 3.214844 5.988281 3.230469 C 5.976562 3.246094 5.960938 3.253906 5.953125 3.253906 C 5.941406 3.253906 5.929688 3.261719 5.925781 3.269531 C 5.921875 3.28125 5.910156 3.289062 5.898438 3.289062 C 5.890625 3.289062 5.878906 3.292969 5.875 3.300781 C 5.875 3.304688 5.863281 3.3125 5.851562 3.3125 C 5.839844 3.3125 5.828125 3.316406 5.824219 3.324219 C 5.824219 3.332031 5.8125 3.335938 5.804688 3.335938 C 5.792969 3.335938 5.777344 3.347656 5.765625 3.363281 C 5.75 3.382812 5.734375 3.390625 5.722656 3.390625 C 5.714844 3.390625 5.703125 3.398438 5.703125 3.402344 C 5.699219 3.410156 5.6875 3.414062 5.679688 3.414062 C 5.667969 3.414062 5.660156 3.421875 5.65625 3.425781 C 5.652344 3.433594 5.644531 3.4375 5.636719 3.4375 C 5.617188 3.4375 5.601562 3.449219 5.601562 3.460938 C 5.601562 3.46875 5.59375 3.472656 5.578125 3.472656 C 5.566406 3.472656 5.554688 3.476562 5.550781 3.484375 C 5.550781 3.492188 5.535156 3.496094 5.511719 3.496094 C 5.488281 3.496094 5.480469 3.5 5.480469 3.507812 C 5.480469 3.515625 5.472656 3.519531 5.460938 3.519531 C 5.449219 3.519531 5.4375 3.523438 5.433594 3.53125 C 5.429688 3.539062 5.417969 3.542969 5.410156 3.542969 C 5.402344 3.542969 5.390625 3.550781 5.382812 3.558594 C 5.375 3.566406 5.359375 3.574219 5.351562 3.574219 C 5.339844 3.574219 5.332031 3.582031 5.328125 3.585938 C 5.328125 3.59375 5.3125 3.597656 5.292969 3.597656 C 5.269531 3.597656 5.257812 3.601562 5.253906 3.613281 C 5.25 3.617188 5.242188 3.625 5.230469 3.625 C 5.21875 3.625 5.210938 3.628906 5.207031 3.636719 C 5.203125 3.644531 5.191406 3.648438 5.175781 3.648438 C 5.152344 3.648438 5.140625 3.652344 5.136719 3.664062 C 5.128906 3.675781 5.117188 3.679688 5.09375 3.679688 C 5.070312 3.679688 5.058594 3.683594 5.054688 3.691406 C 5.054688 3.699219 5.039062 3.703125 5.019531 3.703125 C 4.996094 3.703125 4.984375 3.707031 4.980469 3.714844 C 4.980469 3.722656 4.96875 3.726562 4.949219 3.726562 C 4.933594 3.726562 4.917969 3.734375 4.910156 3.742188 C 4.902344 3.753906 4.886719 3.757812 4.867188 3.757812 C 4.839844 3.757812 4.832031 3.761719 4.832031 3.769531 C 4.832031 3.78125 4.824219 3.785156 4.785156 3.785156 C 4.753906 3.785156 4.738281 3.785156 4.738281 3.796875 C 4.734375 3.804688 4.71875 3.808594 4.6875 3.808594 C 4.65625 3.808594 4.640625 3.8125 4.636719 3.820312 C 4.632812 3.828125 4.621094 3.832031 4.578125 3.832031 C 4.53125 3.832031 4.519531 3.832031 4.511719 3.847656 C 4.503906 3.863281 4.496094 3.863281 4.433594 3.863281 C 4.375 3.863281 4.363281 3.867188 4.363281 3.875 C 4.363281 3.886719 4.332031 3.886719 4.144531 3.886719 C 3.957031 3.886719 3.929688 3.886719 3.929688 3.875 C 3.929688 3.867188 3.917969 3.863281 3.882812 3.863281 C 3.851562 3.863281 3.839844 3.859375 3.828125 3.847656 C 3.820312 3.835938 3.804688 3.832031 3.785156 3.832031 C 3.765625 3.832031 3.753906 3.828125 3.75 3.820312 C 3.75 3.8125 3.734375 3.808594 3.714844 3.808594 C 3.695312 3.808594 3.683594 3.804688 3.679688 3.796875 C 3.679688 3.789062 3.667969 3.785156 3.65625 3.785156 C 3.644531 3.785156 3.632812 3.777344 3.628906 3.769531 C 3.628906 3.765625 3.617188 3.757812 3.609375 3.757812 C 3.597656 3.757812 3.585938 3.753906 3.578125 3.742188 C 3.570312 3.734375 3.558594 3.726562 3.550781 3.726562 C 3.546875 3.726562 3.523438 3.710938 3.503906 3.6875 C 3.480469 3.664062 3.457031 3.648438 3.449219 3.648438 C 3.441406 3.648438 3.425781 3.636719 3.417969 3.625 C 3.40625 3.609375 3.394531 3.597656 3.390625 3.597656 C 3.386719 3.597656 3.382812 3.59375 3.382812 3.585938 C 3.382812 3.582031 3.375 3.574219 3.371094 3.574219 C 3.363281 3.574219 3.359375 3.570312 3.359375 3.570312 C 3.359375 3.558594 3.296875 3.496094 3.289062 3.496094 C 3.285156 3.496094 3.28125 3.488281 3.28125 3.484375 C 3.28125 3.476562 3.277344 3.472656 3.269531 3.472656 C 3.265625 3.472656 3.261719 3.46875 3.261719 3.464844 C 3.261719 3.453125 3.222656 3.414062 3.214844 3.414062 C 3.210938 3.414062 3.207031 3.40625 3.207031 3.394531 C 3.207031 3.382812 3.199219 3.367188 3.183594 3.351562 C 3.171875 3.339844 3.160156 3.320312 3.160156 3.3125 C 3.160156 3.300781 3.15625 3.292969 3.148438 3.289062 C 3.144531 3.289062 3.136719 3.277344 3.136719 3.269531 C 3.136719 3.257812 3.128906 3.238281 3.113281 3.226562 C 3.09375 3.210938 3.085938 3.195312 3.085938 3.179688 C 3.085938 3.171875 3.078125 3.160156 3.074219 3.15625 C 3.066406 3.152344 3.0625 3.140625 3.0625 3.121094 C 3.0625 3.097656 3.058594 3.085938 3.050781 3.082031 C 3.042969 3.078125 3.039062 3.070312 3.039062 3.0625 C 3.039062 3.039062 3.03125 3.023438 3.019531 3.023438 C 3.011719 3.023438 3.007812 3.011719 3.007812 2.988281 C 3.007812 2.960938 3.003906 2.949219 2.996094 2.945312 C 2.988281 2.941406 2.984375 2.929688 2.984375 2.90625 C 2.984375 2.882812 2.984375 2.871094 2.976562 2.867188 C 2.964844 2.863281 2.964844 2.851562 2.964844 2.808594 C 2.964844 2.769531 2.960938 2.75 2.953125 2.742188 C 2.941406 2.734375 2.941406 2.695312 2.941406 2.472656 C 2.941406 2.25 2.941406 2.207031 2.953125 2.199219 C 2.960938 2.191406 2.964844 2.175781 2.964844 2.144531 C 2.964844 2.117188 2.964844 2.101562 2.976562 2.097656 C 2.984375 2.09375 2.984375 2.082031 2.984375 2.058594 C 2.984375 2.035156 2.988281 2.023438 2.996094 2.019531 C 3.003906 2.019531 3.007812 2.003906 3.007812 1.980469 C 3.007812 1.953125 3.011719 1.945312 3.019531 1.945312 C 3.027344 1.945312 3.035156 1.933594 3.035156 1.917969 C 3.039062 1.90625 3.046875 1.890625 3.050781 1.886719 C 3.058594 1.882812 3.0625 1.871094 3.0625 1.859375 C 3.0625 1.847656 3.066406 1.839844 3.074219 1.835938 C 3.078125 1.835938 3.085938 1.824219 3.085938 1.8125 C 3.085938 1.800781 3.089844 1.789062 3.097656 1.785156 C 3.101562 1.785156 3.109375 1.773438 3.109375 1.757812 C 3.109375 1.746094 3.109375 1.734375 3.113281 1.734375 C 3.128906 1.734375 3.160156 1.695312 3.160156 1.679688 C 3.160156 1.660156 3.386719 1.421875 3.40625 1.421875 C 3.414062 1.421875 3.421875 1.417969 3.429688 1.40625 C 3.433594 1.398438 3.441406 1.390625 3.449219 1.390625 C 3.453125 1.390625 3.457031 1.386719 3.457031 1.378906 C 3.457031 1.371094 3.464844 1.367188 3.480469 1.367188 C 3.492188 1.367188 3.503906 1.363281 3.503906 1.355469 C 3.507812 1.347656 3.519531 1.34375 3.53125 1.34375 C 3.539062 1.34375 3.550781 1.339844 3.554688 1.332031 C 3.554688 1.324219 3.566406 1.320312 3.574219 1.320312 C 3.585938 1.320312 3.597656 1.3125 3.605469 1.304688 C 3.609375 1.292969 3.621094 1.289062 3.632812 1.289062 C 3.648438 1.289062 3.65625 1.285156 3.65625 1.277344 C 3.65625 1.265625 3.664062 1.265625 3.6875 1.265625 C 3.714844 1.265625 3.726562 1.261719 3.726562 1.25 C 3.730469 1.242188 3.742188 1.238281 3.761719 1.238281 C 3.777344 1.238281 3.792969 1.234375 3.800781 1.226562 C 3.804688 1.222656 3.820312 1.214844 3.839844 1.214844 C 3.859375 1.214844 3.871094 1.210938 3.878906 1.199219 C 3.886719 1.1875 3.894531 1.183594 3.929688 1.183594 C 3.960938 1.183594 3.976562 1.179688 3.980469 1.171875 C 3.980469 1.164062 3.996094 1.160156 4.039062 1.160156 C 4.082031 1.160156 4.097656 1.15625 4.101562 1.148438 C 4.105469 1.136719 4.121094 1.136719 4.183594 1.136719 C 4.253906 1.136719 4.265625 1.132812 4.273438 1.121094 C 4.28125 1.105469 4.289062 1.105469 4.703125 1.105469 C 5.121094 1.105469 5.128906 1.105469 5.132812 1.121094 M 8.855469 1.703125 C 8.847656 1.710938 8.835938 1.71875 8.828125 1.71875 C 8.804688 1.71875 8.777344 1.753906 8.777344 1.773438 C 8.777344 1.785156 8.769531 1.792969 8.765625 1.796875 C 8.757812 1.800781 8.753906 1.816406 8.753906 1.867188 C 8.753906 1.921875 8.757812 1.9375 8.765625 1.941406 C 8.769531 1.941406 8.777344 1.953125 8.777344 1.964844 C 8.777344 1.988281 8.8125 2.023438 8.835938 2.023438 C 8.84375 2.023438 8.851562 2.027344 8.855469 2.035156 C 8.859375 2.046875 8.925781 2.046875 9.378906 2.046875 C 9.835938 2.046875 9.902344 2.046875 9.90625 2.035156 C 9.910156 2.027344 9.917969 2.023438 9.925781 2.023438 C 9.949219 2.023438 9.960938 2.007812 9.960938 1.988281 C 9.960938 1.976562 9.96875 1.96875 9.972656 1.964844 C 9.980469 1.960938 9.984375 1.949219 9.984375 1.941406 C 9.984375 1.929688 9.988281 1.917969 9.992188 1.917969 C 9.996094 1.917969 10 1.898438 10 1.871094 C 10 1.84375 9.996094 1.824219 9.992188 1.824219 C 9.988281 1.824219 9.984375 1.8125 9.984375 1.800781 C 9.984375 1.785156 9.980469 1.773438 9.972656 1.769531 C 9.96875 1.769531 9.960938 1.757812 9.960938 1.742188 C 9.957031 1.726562 9.949219 1.71875 9.9375 1.71875 C 9.925781 1.71875 9.914062 1.710938 9.90625 1.703125 C 9.894531 1.6875 9.882812 1.6875 9.378906 1.6875 C 8.878906 1.6875 8.867188 1.6875 8.855469 1.703125 M 8.21875 2.4375 C 8.222656 2.4375 8.230469 2.449219 8.230469 2.460938 C 8.230469 2.46875 8.234375 2.480469 8.242188 2.488281 C 8.246094 2.492188 8.253906 2.503906 8.253906 2.511719 C 8.253906 2.519531 8.257812 2.535156 8.265625 2.542969 C 8.277344 2.550781 8.28125 2.566406 8.28125 2.585938 C 8.28125 2.605469 8.285156 2.617188 8.292969 2.621094 C 8.300781 2.625 8.304688 2.636719 8.304688 2.648438 C 8.304688 2.660156 8.308594 2.671875 8.316406 2.675781 C 8.324219 2.675781 8.328125 2.691406 8.328125 2.710938 C 8.328125 2.734375 8.332031 2.746094 8.339844 2.75 C 8.347656 2.75 8.351562 2.761719 8.351562 2.773438 C 8.351562 2.78125 8.359375 2.796875 8.367188 2.800781 C 8.378906 2.808594 8.382812 2.820312 8.382812 2.84375 C 8.382812 2.867188 8.386719 2.878906 8.394531 2.882812 C 8.398438 2.886719 8.402344 2.898438 8.402344 2.917969 C 8.402344 2.9375 8.410156 2.953125 8.414062 2.960938 C 8.421875 2.964844 8.425781 2.976562 8.425781 2.988281 C 8.425781 3.003906 8.433594 3.011719 8.441406 3.011719 C 8.453125 3.015625 8.457031 3.023438 8.457031 3.050781 C 8.457031 3.078125 8.460938 3.089844 8.46875 3.09375 C 8.476562 3.097656 8.480469 3.109375 8.480469 3.132812 C 8.480469 3.15625 8.484375 3.167969 8.492188 3.171875 C 8.5 3.171875 8.503906 3.1875 8.503906 3.207031 C 8.503906 3.230469 8.507812 3.242188 8.515625 3.246094 C 8.523438 3.246094 8.527344 3.261719 8.527344 3.28125 C 8.527344 3.300781 8.53125 3.316406 8.542969 3.324219 C 8.550781 3.335938 8.554688 3.347656 8.554688 3.371094 C 8.554688 3.390625 8.558594 3.402344 8.566406 3.40625 C 8.574219 3.40625 8.578125 3.421875 8.578125 3.445312 C 8.578125 3.46875 8.582031 3.480469 8.589844 3.484375 C 8.597656 3.488281 8.601562 3.5 8.601562 3.519531 C 8.601562 3.535156 8.605469 3.554688 8.613281 3.558594 C 8.621094 3.566406 8.625 3.582031 8.625 3.597656 C 8.625 3.613281 8.628906 3.628906 8.640625 3.636719 C 8.652344 3.648438 8.65625 3.660156 8.65625 3.695312 C 8.65625 3.730469 8.65625 3.742188 8.667969 3.746094 C 8.675781 3.75 8.679688 3.761719 8.679688 3.785156 C 8.679688 3.804688 8.683594 3.816406 8.6875 3.820312 C 8.699219 3.824219 8.699219 3.835938 8.699219 3.871094 C 8.699219 3.90625 8.703125 3.921875 8.710938 3.925781 C 8.71875 3.929688 8.722656 3.941406 8.722656 3.972656 C 8.722656 4.003906 8.726562 4.019531 8.738281 4.027344 C 8.75 4.039062 8.753906 4.054688 8.753906 4.089844 C 8.753906 4.121094 8.757812 4.136719 8.765625 4.136719 C 8.773438 4.140625 8.777344 4.15625 8.777344 4.191406 C 8.777344 4.226562 8.78125 4.238281 8.789062 4.242188 C 8.796875 4.246094 8.800781 4.261719 8.800781 4.308594 C 8.800781 4.363281 8.800781 4.371094 8.816406 4.371094 C 8.828125 4.375 8.828125 4.382812 8.828125 4.425781 C 8.828125 4.460938 8.832031 4.472656 8.839844 4.476562 C 8.851562 4.480469 8.851562 4.496094 8.851562 4.554688 C 8.851562 4.613281 8.855469 4.628906 8.863281 4.632812 C 8.871094 4.636719 8.875 4.652344 8.875 4.710938 C 8.875 4.769531 8.878906 4.785156 8.886719 4.789062 C 8.894531 4.792969 8.898438 4.8125 8.898438 4.886719 C 8.898438 4.972656 8.898438 4.984375 8.914062 4.996094 C 8.925781 5.007812 8.929688 5.019531 8.929688 5.148438 C 8.929688 5.261719 8.929688 5.285156 8.941406 5.289062 C 8.949219 5.292969 8.953125 5.332031 8.953125 5.570312 C 8.953125 5.808594 8.949219 5.847656 8.941406 5.851562 C 8.929688 5.855469 8.929688 5.875 8.929688 5.976562 C 8.929688 6.089844 8.925781 6.101562 8.914062 6.113281 C 8.902344 6.125 8.898438 6.136719 8.898438 6.195312 C 8.898438 6.246094 8.894531 6.261719 8.886719 6.265625 C 8.878906 6.269531 8.875 6.285156 8.875 6.335938 C 8.875 6.386719 8.875 6.398438 8.863281 6.398438 C 8.855469 6.398438 8.851562 6.410156 8.851562 6.445312 C 8.851562 6.484375 8.847656 6.496094 8.839844 6.5 C 8.832031 6.503906 8.828125 6.515625 8.828125 6.539062 C 8.828125 6.566406 8.828125 6.578125 8.816406 6.582031 C 8.804688 6.589844 8.800781 6.601562 8.800781 6.625 C 8.800781 6.644531 8.796875 6.65625 8.789062 6.660156 C 8.78125 6.664062 8.777344 6.675781 8.777344 6.6875 C 8.777344 6.699219 8.773438 6.710938 8.765625 6.714844 C 8.757812 6.714844 8.753906 6.726562 8.753906 6.738281 C 8.753906 6.746094 8.746094 6.757812 8.738281 6.765625 C 8.730469 6.769531 8.722656 6.785156 8.722656 6.792969 C 8.722656 6.804688 8.71875 6.816406 8.710938 6.816406 C 8.707031 6.820312 8.699219 6.832031 8.699219 6.84375 C 8.699219 6.855469 8.695312 6.867188 8.6875 6.867188 C 8.683594 6.871094 8.679688 6.878906 8.679688 6.882812 C 8.679688 6.890625 8.671875 6.894531 8.667969 6.894531 C 8.660156 6.894531 8.65625 6.902344 8.65625 6.914062 C 8.65625 6.941406 8.425781 7.183594 8.398438 7.183594 C 8.386719 7.183594 8.382812 7.1875 8.382812 7.195312 C 8.382812 7.203125 8.375 7.207031 8.371094 7.207031 C 8.363281 7.207031 8.359375 7.210938 8.355469 7.21875 C 8.351562 7.226562 8.34375 7.230469 8.335938 7.230469 C 8.324219 7.230469 8.308594 7.242188 8.292969 7.257812 C 8.28125 7.277344 8.265625 7.285156 8.253906 7.285156 C 8.246094 7.285156 8.234375 7.292969 8.230469 7.300781 C 8.230469 7.304688 8.21875 7.3125 8.210938 7.3125 C 8.199219 7.3125 8.1875 7.316406 8.1875 7.324219 C 8.183594 7.332031 8.171875 7.335938 8.148438 7.335938 C 8.125 7.335938 8.113281 7.339844 8.109375 7.351562 C 8.101562 7.363281 8.09375 7.367188 8.070312 7.367188 C 8.050781 7.367188 8.039062 7.371094 8.035156 7.378906 C 8.03125 7.386719 8.019531 7.390625 7.984375 7.390625 C 7.953125 7.390625 7.9375 7.394531 7.9375 7.402344 C 7.933594 7.414062 7.914062 7.414062 7.847656 7.414062 C 7.78125 7.414062 7.765625 7.417969 7.761719 7.425781 C 7.753906 7.445312 7.558594 7.445312 7.550781 7.425781 C 7.546875 7.417969 7.527344 7.414062 7.453125 7.414062 C 7.375 7.414062 7.355469 7.414062 7.351562 7.402344 C 7.351562 7.394531 7.335938 7.390625 7.304688 7.390625 C 7.269531 7.390625 7.257812 7.386719 7.253906 7.378906 C 7.25 7.371094 7.238281 7.367188 7.207031 7.367188 C 7.171875 7.367188 7.160156 7.363281 7.152344 7.351562 C 7.148438 7.34375 7.132812 7.335938 7.125 7.335938 C 7.113281 7.335938 7.105469 7.328125 7.101562 7.324219 C 7.097656 7.316406 7.085938 7.3125 7.0625 7.3125 C 7.039062 7.3125 7.027344 7.308594 7.027344 7.300781 C 7.027344 7.292969 7.019531 7.285156 7.007812 7.285156 C 6.996094 7.285156 6.984375 7.28125 6.976562 7.269531 C 6.972656 7.261719 6.960938 7.253906 6.949219 7.253906 C 6.941406 7.253906 6.929688 7.25 6.925781 7.242188 C 6.925781 7.234375 6.914062 7.230469 6.90625 7.230469 C 6.898438 7.230469 6.882812 7.21875 6.871094 7.207031 C 6.855469 7.191406 6.839844 7.183594 6.828125 7.183594 C 6.816406 7.183594 6.808594 7.179688 6.808594 7.175781 C 6.808594 7.160156 6.769531 7.128906 6.753906 7.128906 C 6.738281 7.125 6.511719 6.890625 6.511719 6.871094 C 6.511719 6.855469 6.480469 6.816406 6.46875 6.816406 C 6.460938 6.816406 6.457031 6.804688 6.457031 6.792969 C 6.457031 6.777344 6.453125 6.765625 6.449219 6.765625 C 6.441406 6.761719 6.4375 6.75 6.4375 6.738281 C 6.4375 6.726562 6.429688 6.714844 6.425781 6.714844 C 6.417969 6.710938 6.414062 6.699219 6.414062 6.691406 C 6.414062 6.679688 6.40625 6.667969 6.398438 6.660156 C 6.390625 6.65625 6.382812 6.640625 6.382812 6.628906 C 6.382812 6.613281 6.378906 6.605469 6.371094 6.605469 C 6.363281 6.605469 6.359375 6.597656 6.359375 6.558594 C 6.359375 6.523438 6.355469 6.507812 6.347656 6.503906 C 6.339844 6.503906 6.335938 6.488281 6.335938 6.453125 C 6.335938 6.417969 6.335938 6.40625 6.324219 6.402344 C 6.316406 6.398438 6.316406 6.359375 6.316406 6.132812 C 6.316406 5.902344 6.316406 5.863281 6.324219 5.859375 C 6.335938 5.855469 6.335938 5.839844 6.335938 5.78125 C 6.335938 5.726562 6.339844 5.710938 6.347656 5.707031 C 6.359375 5.703125 6.359375 5.6875 6.359375 5.640625 C 6.359375 5.597656 6.363281 5.582031 6.371094 5.578125 C 6.378906 5.574219 6.382812 5.5625 6.382812 5.527344 C 6.382812 5.488281 6.386719 5.476562 6.398438 5.472656 C 6.410156 5.464844 6.414062 5.453125 6.414062 5.425781 C 6.414062 5.402344 6.417969 5.390625 6.425781 5.386719 C 6.433594 5.386719 6.4375 5.371094 6.4375 5.335938 C 6.4375 5.296875 6.4375 5.289062 6.449219 5.289062 C 6.457031 5.289062 6.457031 5.277344 6.457031 5.25 C 6.457031 5.222656 6.460938 5.214844 6.472656 5.207031 C 6.484375 5.199219 6.488281 5.191406 6.488281 5.167969 C 6.488281 5.148438 6.496094 5.132812 6.5 5.128906 C 6.507812 5.121094 6.511719 5.109375 6.511719 5.097656 C 6.511719 5.089844 6.515625 5.078125 6.523438 5.078125 C 6.53125 5.074219 6.535156 5.058594 6.535156 5.035156 C 6.535156 5.007812 6.539062 5 6.546875 5 C 6.554688 5 6.558594 4.988281 6.558594 4.964844 C 6.558594 4.941406 6.5625 4.929688 6.574219 4.921875 C 6.582031 4.914062 6.589844 4.902344 6.589844 4.890625 C 6.589844 4.882812 6.59375 4.871094 6.597656 4.867188 C 6.605469 4.867188 6.609375 4.855469 6.609375 4.84375 C 6.609375 4.832031 6.617188 4.820312 6.621094 4.816406 C 6.628906 4.816406 6.632812 4.800781 6.632812 4.777344 C 6.632812 4.757812 6.636719 4.742188 6.644531 4.742188 C 6.652344 4.738281 6.65625 4.726562 6.65625 4.71875 C 6.65625 4.707031 6.664062 4.691406 6.671875 4.683594 C 6.679688 4.675781 6.6875 4.664062 6.6875 4.65625 C 6.6875 4.644531 6.691406 4.636719 6.699219 4.632812 C 6.703125 4.632812 6.710938 4.621094 6.710938 4.605469 C 6.710938 4.59375 6.714844 4.582031 6.722656 4.582031 C 6.726562 4.578125 6.734375 4.566406 6.734375 4.554688 C 6.734375 4.542969 6.738281 4.53125 6.742188 4.53125 C 6.75 4.527344 6.753906 4.515625 6.753906 4.503906 C 6.753906 4.488281 6.761719 4.480469 6.769531 4.476562 C 6.78125 4.472656 6.785156 4.464844 6.785156 4.453125 C 6.785156 4.441406 6.789062 4.429688 6.796875 4.421875 C 6.804688 4.417969 6.808594 4.40625 6.808594 4.394531 C 6.808594 4.386719 6.8125 4.375 6.820312 4.371094 C 6.828125 4.371094 6.832031 4.359375 6.832031 4.347656 C 6.832031 4.335938 6.839844 4.320312 6.859375 4.308594 C 6.875 4.292969 6.882812 4.277344 6.882812 4.265625 C 6.882812 4.253906 6.890625 4.246094 6.894531 4.242188 C 6.902344 4.238281 6.90625 4.226562 6.90625 4.214844 C 6.90625 4.203125 6.914062 4.191406 6.917969 4.1875 C 6.925781 4.1875 6.929688 4.175781 6.929688 4.167969 C 6.929688 4.160156 6.941406 4.140625 6.957031 4.125 C 6.972656 4.109375 6.984375 4.089844 6.984375 4.082031 C 6.984375 4.074219 6.988281 4.0625 6.996094 4.058594 C 7 4.058594 7.007812 4.046875 7.007812 4.03125 C 7.007812 4.015625 7.011719 4.007812 7.015625 4.007812 C 7.023438 4.007812 7.027344 4 7.027344 3.996094 C 7.027344 3.988281 7.035156 3.984375 7.039062 3.984375 C 7.050781 3.984375 7.058594 3.96875 7.058594 3.945312 C 7.058594 3.9375 7.070312 3.921875 7.082031 3.910156 C 7.09375 3.898438 7.105469 3.882812 7.105469 3.875 C 7.105469 3.863281 7.109375 3.851562 7.117188 3.851562 C 7.121094 3.847656 7.128906 3.835938 7.128906 3.824219 C 7.128906 3.808594 7.132812 3.800781 7.136719 3.800781 C 7.148438 3.800781 7.179688 3.761719 7.179688 3.742188 C 7.179688 3.730469 7.191406 3.714844 7.203125 3.703125 C 7.214844 3.691406 7.226562 3.675781 7.226562 3.667969 C 7.226562 3.660156 7.238281 3.640625 7.253906 3.628906 C 7.269531 3.613281 7.28125 3.597656 7.28125 3.589844 C 7.28125 3.578125 7.296875 3.554688 7.316406 3.535156 C 7.339844 3.511719 7.355469 3.492188 7.355469 3.480469 C 7.355469 3.46875 7.359375 3.460938 7.367188 3.457031 C 7.375 3.457031 7.378906 3.449219 7.378906 3.441406 C 7.378906 3.4375 7.382812 3.429688 7.390625 3.429688 C 7.398438 3.429688 7.402344 3.425781 7.402344 3.410156 C 7.402344 3.398438 7.414062 3.378906 7.4375 3.355469 C 7.460938 3.332031 7.476562 3.308594 7.476562 3.300781 C 7.476562 3.292969 7.496094 3.269531 7.515625 3.246094 C 7.535156 3.226562 7.554688 3.203125 7.554688 3.195312 C 7.554688 3.1875 7.574219 3.160156 7.601562 3.132812 C 7.632812 3.101562 7.652344 3.074219 7.652344 3.066406 C 7.652344 3.050781 7.675781 3.015625 7.6875 3.015625 C 7.695312 3.015625 7.75 2.945312 7.75 2.933594 C 7.75 2.925781 7.777344 2.890625 7.8125 2.855469 C 7.84375 2.820312 7.871094 2.789062 7.871094 2.78125 C 7.871094 2.773438 7.910156 2.726562 7.960938 2.675781 C 8.027344 2.605469 8.046875 2.582031 8.046875 2.566406 C 8.046875 2.554688 8.050781 2.542969 8.054688 2.542969 C 8.066406 2.542969 8.125 2.480469 8.125 2.472656 C 8.125 2.46875 8.125 2.464844 8.132812 2.464844 C 8.136719 2.464844 8.152344 2.445312 8.171875 2.425781 C 8.203125 2.390625 8.203125 2.390625 8.207031 2.410156 C 8.207031 2.421875 8.210938 2.433594 8.21875 2.4375 M 7.601562 2.527344 C 7.578125 2.546875 7.5625 2.570312 7.5625 2.574219 C 7.5625 2.578125 7.558594 2.582031 7.554688 2.582031 C 7.539062 2.582031 7.507812 2.625 7.507812 2.640625 C 7.507812 2.652344 7.460938 2.710938 7.445312 2.710938 C 7.441406 2.710938 7.4375 2.714844 7.4375 2.71875 C 7.4375 2.722656 7.425781 2.738281 7.414062 2.753906 C 7.398438 2.765625 7.386719 2.785156 7.386719 2.792969 C 7.386719 2.800781 7.367188 2.824219 7.347656 2.847656 C 7.328125 2.867188 7.308594 2.890625 7.308594 2.898438 C 7.308594 2.90625 7.289062 2.933594 7.261719 2.964844 C 7.230469 2.992188 7.210938 3.023438 7.210938 3.03125 C 7.210938 3.039062 7.207031 3.050781 7.199219 3.050781 C 7.195312 3.054688 7.1875 3.0625 7.1875 3.070312 C 7.1875 3.074219 7.183594 3.078125 7.175781 3.078125 C 7.171875 3.078125 7.164062 3.085938 7.164062 3.089844 C 7.164062 3.097656 7.160156 3.101562 7.152344 3.101562 C 7.148438 3.101562 7.140625 3.113281 7.136719 3.128906 C 7.136719 3.140625 7.125 3.160156 7.113281 3.171875 C 7.101562 3.183594 7.089844 3.203125 7.089844 3.210938 C 7.089844 3.21875 7.074219 3.242188 7.050781 3.261719 C 7.03125 3.285156 7.015625 3.308594 7.015625 3.316406 C 7.015625 3.320312 7.003906 3.339844 6.992188 3.351562 C 6.976562 3.367188 6.96875 3.382812 6.96875 3.394531 C 6.96875 3.40625 6.964844 3.414062 6.960938 3.414062 C 6.945312 3.414062 6.914062 3.457031 6.914062 3.472656 C 6.914062 3.484375 6.902344 3.5 6.890625 3.511719 C 6.878906 3.523438 6.871094 3.539062 6.871094 3.546875 C 6.871094 3.554688 6.855469 3.574219 6.84375 3.585938 C 6.824219 3.601562 6.816406 3.617188 6.816406 3.628906 C 6.816406 3.640625 6.8125 3.648438 6.804688 3.652344 C 6.796875 3.65625 6.792969 3.664062 6.792969 3.667969 C 6.792969 3.675781 6.789062 3.679688 6.78125 3.679688 C 6.773438 3.679688 6.769531 3.6875 6.765625 3.703125 C 6.761719 3.714844 6.75 3.738281 6.738281 3.75 C 6.726562 3.761719 6.71875 3.777344 6.71875 3.789062 C 6.71875 3.796875 6.710938 3.808594 6.707031 3.808594 C 6.699219 3.8125 6.695312 3.824219 6.695312 3.832031 C 6.695312 3.84375 6.683594 3.863281 6.667969 3.875 C 6.652344 3.890625 6.640625 3.90625 6.640625 3.917969 C 6.640625 3.925781 6.636719 3.9375 6.628906 3.941406 C 6.625 3.941406 6.617188 3.953125 6.617188 3.964844 C 6.617188 3.976562 6.609375 3.992188 6.59375 4.007812 C 6.578125 4.023438 6.566406 4.042969 6.566406 4.050781 C 6.566406 4.0625 6.558594 4.070312 6.554688 4.074219 C 6.546875 4.078125 6.542969 4.089844 6.542969 4.097656 C 6.542969 4.109375 6.539062 4.121094 6.53125 4.125 C 6.523438 4.128906 6.519531 4.140625 6.519531 4.152344 C 6.519531 4.167969 6.515625 4.175781 6.507812 4.175781 C 6.5 4.175781 6.496094 4.183594 6.496094 4.199219 C 6.496094 4.210938 6.492188 4.222656 6.480469 4.230469 C 6.472656 4.234375 6.464844 4.25 6.464844 4.257812 C 6.464844 4.269531 6.460938 4.28125 6.457031 4.28125 C 6.449219 4.285156 6.445312 4.296875 6.445312 4.308594 C 6.445312 4.320312 6.4375 4.328125 6.433594 4.332031 C 6.425781 4.335938 6.421875 4.347656 6.421875 4.359375 C 6.421875 4.371094 6.414062 4.382812 6.40625 4.390625 C 6.398438 4.394531 6.390625 4.40625 6.390625 4.417969 C 6.390625 4.429688 6.386719 4.441406 6.378906 4.441406 C 6.371094 4.445312 6.367188 4.457031 6.367188 4.464844 C 6.367188 4.476562 6.363281 4.488281 6.355469 4.488281 C 6.351562 4.492188 6.34375 4.503906 6.34375 4.519531 C 6.34375 4.535156 6.339844 4.542969 6.332031 4.542969 C 6.328125 4.542969 6.320312 4.550781 6.320312 4.566406 C 6.320312 4.578125 6.316406 4.589844 6.308594 4.597656 C 6.296875 4.601562 6.292969 4.617188 6.292969 4.625 C 6.292969 4.636719 6.285156 4.648438 6.28125 4.648438 C 6.273438 4.652344 6.269531 4.664062 6.269531 4.6875 C 6.269531 4.703125 6.265625 4.722656 6.257812 4.726562 C 6.25 4.734375 6.246094 4.746094 6.246094 4.753906 C 6.246094 4.765625 6.242188 4.777344 6.234375 4.777344 C 6.226562 4.78125 6.222656 4.792969 6.222656 4.8125 C 6.222656 4.832031 6.21875 4.847656 6.207031 4.855469 C 6.199219 4.863281 6.191406 4.878906 6.191406 4.886719 C 6.191406 4.894531 6.1875 4.90625 6.179688 4.910156 C 6.175781 4.910156 6.171875 4.925781 6.171875 4.945312 C 6.171875 4.96875 6.167969 4.984375 6.160156 4.984375 C 6.152344 4.988281 6.148438 5.003906 6.148438 5.027344 C 6.148438 5.050781 6.144531 5.0625 6.136719 5.066406 C 6.128906 5.070312 6.125 5.082031 6.125 5.101562 C 6.125 5.125 6.121094 5.136719 6.109375 5.144531 C 6.097656 5.148438 6.09375 5.160156 6.09375 5.1875 C 6.09375 5.210938 6.089844 5.222656 6.082031 5.226562 C 6.074219 5.230469 6.070312 5.242188 6.070312 5.261719 C 6.070312 5.285156 6.066406 5.296875 6.058594 5.300781 C 6.050781 5.304688 6.046875 5.316406 6.046875 5.351562 C 6.046875 5.390625 6.046875 5.398438 6.035156 5.40625 C 6.019531 5.414062 6.019531 5.425781 6.019531 5.460938 C 6.019531 5.53125 5.988281 5.554688 5.949219 5.507812 C 5.933594 5.492188 5.917969 5.480469 5.90625 5.480469 C 5.898438 5.480469 5.890625 5.472656 5.886719 5.46875 C 5.882812 5.460938 5.875 5.457031 5.867188 5.457031 C 5.855469 5.457031 5.835938 5.441406 5.824219 5.425781 C 5.808594 5.410156 5.789062 5.398438 5.78125 5.398438 C 5.773438 5.398438 5.761719 5.386719 5.75 5.375 C 5.738281 5.363281 5.722656 5.351562 5.714844 5.351562 C 5.707031 5.351562 5.683594 5.332031 5.664062 5.3125 C 5.640625 5.289062 5.621094 5.269531 5.613281 5.269531 C 5.605469 5.269531 5.566406 5.238281 5.527344 5.195312 C 5.488281 5.152344 5.449219 5.121094 5.445312 5.121094 C 5.429688 5.121094 5.21875 4.898438 5.21875 4.882812 C 5.21875 4.875 5.191406 4.839844 5.160156 4.804688 C 5.125 4.769531 5.097656 4.738281 5.097656 4.730469 C 5.097656 4.71875 5.085938 4.703125 5.070312 4.6875 C 5.058594 4.675781 5.046875 4.660156 5.046875 4.65625 C 5.046875 4.652344 5.039062 4.648438 5.035156 4.648438 C 5.027344 4.648438 5.023438 4.640625 5.023438 4.628906 C 5.023438 4.617188 5.011719 4.597656 4.996094 4.582031 C 4.980469 4.566406 4.96875 4.550781 4.96875 4.539062 C 4.96875 4.53125 4.960938 4.515625 4.945312 4.503906 C 4.933594 4.492188 4.925781 4.472656 4.925781 4.464844 C 4.925781 4.457031 4.910156 4.441406 4.898438 4.425781 C 4.882812 4.410156 4.871094 4.390625 4.871094 4.382812 C 4.871094 4.375 4.867188 4.363281 4.859375 4.363281 C 4.851562 4.359375 4.847656 4.351562 4.847656 4.347656 C 4.847656 4.339844 4.84375 4.335938 4.835938 4.332031 C 4.832031 4.328125 4.824219 4.320312 4.824219 4.308594 C 4.824219 4.292969 4.820312 4.285156 4.808594 4.28125 C 4.800781 4.277344 4.792969 4.269531 4.792969 4.253906 C 4.792969 4.242188 4.789062 4.230469 4.785156 4.226562 C 4.777344 4.226562 4.773438 4.214844 4.773438 4.195312 L 4.773438 4.167969 L 4.816406 4.167969 C 4.851562 4.167969 4.863281 4.164062 4.867188 4.15625 C 4.871094 4.148438 4.882812 4.144531 4.914062 4.144531 C 4.945312 4.144531 4.957031 4.140625 4.96875 4.128906 C 4.976562 4.117188 4.988281 4.113281 5.007812 4.113281 C 5.027344 4.113281 5.039062 4.105469 5.042969 4.097656 C 5.046875 4.089844 5.058594 4.085938 5.09375 4.085938 C 5.125 4.085938 5.136719 4.085938 5.140625 4.074219 C 5.144531 4.066406 5.15625 4.0625 5.179688 4.0625 C 5.207031 4.0625 5.214844 4.058594 5.21875 4.046875 C 5.222656 4.035156 5.230469 4.03125 5.242188 4.03125 C 5.253906 4.03125 5.265625 4.027344 5.269531 4.019531 C 5.273438 4.011719 5.285156 4.007812 5.304688 4.007812 C 5.324219 4.007812 5.335938 4.003906 5.339844 3.996094 C 5.34375 3.988281 5.355469 3.984375 5.378906 3.984375 C 5.398438 3.984375 5.414062 3.980469 5.414062 3.972656 C 5.417969 3.964844 5.425781 3.960938 5.4375 3.960938 C 5.449219 3.960938 5.460938 3.953125 5.464844 3.945312 C 5.472656 3.933594 5.484375 3.925781 5.496094 3.925781 C 5.507812 3.925781 5.515625 3.921875 5.515625 3.914062 C 5.515625 3.90625 5.527344 3.902344 5.550781 3.902344 C 5.574219 3.902344 5.585938 3.898438 5.589844 3.890625 C 5.59375 3.886719 5.601562 3.878906 5.613281 3.878906 C 5.621094 3.878906 5.632812 3.875 5.636719 3.867188 C 5.636719 3.859375 5.644531 3.855469 5.652344 3.855469 C 5.675781 3.855469 5.691406 3.847656 5.691406 3.835938 C 5.691406 3.828125 5.699219 3.824219 5.714844 3.824219 C 5.726562 3.824219 5.738281 3.816406 5.738281 3.8125 C 5.742188 3.804688 5.753906 3.800781 5.765625 3.800781 C 5.773438 3.800781 5.785156 3.792969 5.789062 3.789062 C 5.789062 3.78125 5.800781 3.777344 5.808594 3.777344 C 5.820312 3.777344 5.832031 3.769531 5.835938 3.765625 C 5.839844 3.757812 5.855469 3.75 5.867188 3.75 C 5.878906 3.746094 5.890625 3.738281 5.890625 3.730469 C 5.890625 3.722656 5.894531 3.71875 5.910156 3.71875 C 5.921875 3.71875 5.933594 3.714844 5.9375 3.707031 C 5.941406 3.699219 5.949219 3.695312 5.960938 3.695312 C 5.972656 3.695312 5.984375 3.691406 5.984375 3.683594 C 5.988281 3.675781 5.996094 3.671875 6.007812 3.671875 C 6.015625 3.671875 6.03125 3.664062 6.035156 3.65625 C 6.039062 3.644531 6.054688 3.640625 6.066406 3.640625 C 6.078125 3.640625 6.085938 3.636719 6.085938 3.628906 C 6.085938 3.621094 6.09375 3.617188 6.109375 3.617188 C 6.121094 3.617188 6.136719 3.609375 6.148438 3.589844 C 6.15625 3.578125 6.175781 3.566406 6.183594 3.566406 C 6.191406 3.566406 6.203125 3.558594 6.210938 3.550781 C 6.214844 3.542969 6.226562 3.535156 6.242188 3.535156 C 6.253906 3.535156 6.261719 3.53125 6.261719 3.523438 C 6.261719 3.515625 6.269531 3.511719 6.28125 3.511719 C 6.292969 3.511719 6.308594 3.5 6.320312 3.488281 C 6.335938 3.472656 6.347656 3.464844 6.355469 3.464844 C 6.363281 3.464844 6.378906 3.449219 6.394531 3.433594 C 6.410156 3.421875 6.429688 3.40625 6.4375 3.40625 C 6.445312 3.40625 6.453125 3.402344 6.457031 3.394531 C 6.457031 3.390625 6.46875 3.382812 6.476562 3.382812 C 6.496094 3.382812 6.535156 3.351562 6.535156 3.335938 C 6.535156 3.332031 6.542969 3.328125 6.554688 3.328125 C 6.566406 3.328125 6.582031 3.316406 6.597656 3.304688 C 6.609375 3.289062 6.625 3.28125 6.632812 3.28125 C 6.640625 3.28125 6.65625 3.265625 6.667969 3.25 C 6.679688 3.234375 6.695312 3.222656 6.707031 3.222656 C 6.714844 3.222656 6.730469 3.210938 6.742188 3.199219 C 6.75 3.1875 6.765625 3.175781 6.773438 3.175781 C 6.792969 3.175781 6.808594 3.167969 6.808594 3.15625 C 6.808594 3.148438 6.8125 3.144531 6.820312 3.144531 C 6.828125 3.144531 6.832031 3.136719 6.832031 3.132812 C 6.832031 3.125 6.835938 3.121094 6.84375 3.121094 C 6.847656 3.121094 6.855469 3.113281 6.855469 3.109375 C 6.859375 3.101562 6.867188 3.09375 6.878906 3.09375 C 6.890625 3.09375 6.90625 3.085938 6.917969 3.066406 C 6.929688 3.050781 6.945312 3.039062 6.957031 3.039062 C 6.964844 3.039062 6.984375 3.023438 7.003906 3.003906 C 7.019531 2.984375 7.042969 2.96875 7.050781 2.96875 C 7.054688 2.96875 7.078125 2.949219 7.097656 2.925781 C 7.117188 2.90625 7.140625 2.886719 7.144531 2.886719 C 7.164062 2.886719 7.179688 2.878906 7.179688 2.867188 C 7.179688 2.859375 7.1875 2.855469 7.191406 2.855469 C 7.199219 2.855469 7.203125 2.851562 7.203125 2.84375 C 7.203125 2.835938 7.207031 2.832031 7.214844 2.832031 C 7.222656 2.832031 7.226562 2.828125 7.226562 2.824219 C 7.226562 2.8125 7.257812 2.785156 7.273438 2.785156 C 7.28125 2.785156 7.304688 2.765625 7.324219 2.742188 C 7.347656 2.722656 7.367188 2.703125 7.375 2.703125 C 7.382812 2.703125 7.417969 2.671875 7.453125 2.636719 C 7.484375 2.597656 7.519531 2.566406 7.527344 2.566406 C 7.535156 2.566406 7.558594 2.546875 7.585938 2.519531 C 7.613281 2.492188 7.632812 2.472656 7.636719 2.480469 C 7.636719 2.484375 7.621094 2.507812 7.601562 2.527344 M 3.421875 4.085938 C 3.433594 4.085938 3.441406 4.09375 3.445312 4.097656 C 3.449219 4.105469 3.457031 4.113281 3.464844 4.113281 C 3.476562 4.113281 3.488281 4.117188 3.492188 4.128906 C 3.5 4.136719 3.511719 4.144531 3.519531 4.144531 C 3.53125 4.144531 3.542969 4.148438 3.542969 4.15625 C 3.546875 4.164062 3.558594 4.167969 3.582031 4.167969 C 3.605469 4.167969 3.617188 4.171875 3.621094 4.179688 C 3.621094 4.1875 3.632812 4.191406 3.65625 4.191406 C 3.675781 4.191406 3.6875 4.195312 3.691406 4.203125 C 3.695312 4.210938 3.707031 4.214844 3.738281 4.214844 C 3.769531 4.214844 3.785156 4.21875 3.792969 4.230469 C 3.804688 4.246094 3.816406 4.246094 3.882812 4.246094 C 3.941406 4.246094 3.960938 4.25 3.964844 4.257812 C 3.972656 4.269531 4.003906 4.269531 4.144531 4.269531 C 4.289062 4.269531 4.316406 4.269531 4.320312 4.257812 C 4.332031 4.226562 4.40625 4.257812 4.40625 4.296875 C 4.40625 4.304688 4.414062 4.316406 4.421875 4.320312 C 4.429688 4.324219 4.4375 4.335938 4.4375 4.347656 C 4.4375 4.359375 4.441406 4.371094 4.449219 4.371094 C 4.457031 4.375 4.460938 4.386719 4.460938 4.398438 C 4.460938 4.410156 4.464844 4.421875 4.472656 4.425781 C 4.476562 4.429688 4.484375 4.4375 4.484375 4.449219 C 4.484375 4.460938 4.492188 4.476562 4.511719 4.492188 C 4.527344 4.503906 4.535156 4.519531 4.535156 4.53125 C 4.535156 4.542969 4.542969 4.554688 4.546875 4.554688 C 4.554688 4.558594 4.558594 4.570312 4.558594 4.585938 C 4.558594 4.597656 4.5625 4.605469 4.566406 4.605469 C 4.578125 4.605469 4.605469 4.640625 4.605469 4.65625 C 4.605469 4.664062 4.617188 4.683594 4.632812 4.699219 C 4.644531 4.710938 4.65625 4.730469 4.65625 4.742188 C 4.65625 4.75 4.667969 4.765625 4.679688 4.777344 C 4.691406 4.785156 4.703125 4.800781 4.703125 4.8125 C 4.703125 4.820312 4.722656 4.84375 4.742188 4.863281 C 4.761719 4.886719 4.78125 4.910156 4.78125 4.917969 C 4.78125 4.933594 4.8125 4.976562 4.824219 4.976562 C 4.828125 4.976562 4.832031 4.980469 4.832031 4.988281 C 4.832031 4.992188 4.839844 5 4.84375 5 C 4.851562 5 4.855469 5.003906 4.855469 5.011719 C 4.855469 5.015625 4.859375 5.023438 4.867188 5.027344 C 4.875 5.027344 4.878906 5.039062 4.878906 5.046875 C 4.878906 5.074219 5.261719 5.472656 5.285156 5.472656 C 5.296875 5.472656 5.304688 5.476562 5.304688 5.484375 C 5.304688 5.488281 5.308594 5.496094 5.316406 5.496094 C 5.320312 5.496094 5.328125 5.5 5.328125 5.503906 C 5.328125 5.515625 5.363281 5.550781 5.371094 5.550781 C 5.375 5.550781 5.378906 5.554688 5.378906 5.558594 C 5.378906 5.574219 5.417969 5.605469 5.433594 5.605469 C 5.441406 5.605469 5.457031 5.617188 5.46875 5.632812 C 5.480469 5.644531 5.496094 5.65625 5.503906 5.65625 C 5.511719 5.65625 5.527344 5.667969 5.542969 5.683594 C 5.554688 5.699219 5.570312 5.710938 5.582031 5.710938 C 5.589844 5.710938 5.605469 5.722656 5.613281 5.734375 C 5.628906 5.75 5.640625 5.757812 5.65625 5.757812 C 5.667969 5.757812 5.675781 5.761719 5.675781 5.769531 C 5.675781 5.777344 5.679688 5.78125 5.6875 5.78125 C 5.691406 5.78125 5.699219 5.789062 5.703125 5.800781 C 5.703125 5.8125 5.710938 5.816406 5.726562 5.816406 C 5.742188 5.816406 5.753906 5.820312 5.753906 5.828125 C 5.757812 5.832031 5.765625 5.839844 5.773438 5.839844 C 5.785156 5.839844 5.800781 5.851562 5.816406 5.867188 C 5.832031 5.882812 5.847656 5.894531 5.855469 5.894531 C 5.867188 5.894531 5.875 5.902344 5.875 5.90625 C 5.878906 5.914062 5.890625 5.917969 5.902344 5.917969 C 5.910156 5.917969 5.921875 5.925781 5.925781 5.929688 C 5.925781 5.9375 5.933594 5.941406 5.9375 5.941406 C 5.949219 5.941406 5.949219 5.984375 5.949219 6.203125 C 5.949219 6.429688 5.953125 6.464844 5.960938 6.464844 C 5.96875 6.464844 5.972656 6.476562 5.972656 6.527344 C 5.972656 6.578125 5.976562 6.59375 5.984375 6.597656 C 5.992188 6.597656 5.996094 6.613281 5.996094 6.628906 C 5.996094 6.648438 6 6.664062 6.007812 6.671875 C 6.011719 6.675781 6.019531 6.691406 6.019531 6.707031 C 6.019531 6.726562 6.023438 6.738281 6.035156 6.75 C 6.042969 6.757812 6.046875 6.769531 6.046875 6.78125 C 6.046875 6.792969 6.054688 6.800781 6.058594 6.804688 C 6.066406 6.808594 6.070312 6.820312 6.070312 6.84375 C 6.070312 6.867188 6.074219 6.878906 6.082031 6.882812 C 6.089844 6.882812 6.09375 6.898438 6.09375 6.914062 C 6.09375 6.929688 6.089844 6.941406 6.082031 6.945312 C 6.078125 6.949219 6.070312 6.957031 6.070312 6.960938 C 6.070312 6.96875 6.066406 6.976562 6.058594 6.976562 C 6.054688 6.976562 6.046875 6.980469 6.046875 6.988281 C 6.046875 6.992188 6.046875 7 6.039062 7 C 6.035156 7 6.023438 7.007812 6.011719 7.023438 C 6 7.035156 5.984375 7.046875 5.976562 7.046875 C 5.972656 7.046875 5.949219 7.066406 5.929688 7.085938 C 5.90625 7.109375 5.882812 7.125 5.875 7.125 C 5.867188 7.125 5.851562 7.140625 5.839844 7.15625 C 5.824219 7.171875 5.804688 7.183594 5.792969 7.183594 C 5.78125 7.183594 5.773438 7.1875 5.773438 7.195312 C 5.773438 7.203125 5.765625 7.207031 5.734375 7.207031 C 5.703125 7.207031 5.691406 7.203125 5.6875 7.195312 C 5.683594 7.1875 5.671875 7.183594 5.628906 7.183594 C 5.582031 7.183594 5.570312 7.179688 5.5625 7.167969 C 5.558594 7.15625 5.546875 7.152344 5.523438 7.152344 C 5.507812 7.152344 5.492188 7.144531 5.484375 7.140625 C 5.480469 7.132812 5.464844 7.125 5.4375 7.125 C 5.410156 7.125 5.394531 7.125 5.390625 7.113281 C 5.390625 7.105469 5.378906 7.101562 5.355469 7.101562 C 5.332031 7.101562 5.320312 7.097656 5.316406 7.089844 C 5.3125 7.082031 5.300781 7.078125 5.28125 7.078125 C 5.261719 7.078125 5.25 7.074219 5.242188 7.0625 C 5.230469 7.050781 5.21875 7.046875 5.199219 7.046875 C 5.179688 7.046875 5.167969 7.042969 5.164062 7.035156 C 5.160156 7.027344 5.152344 7.023438 5.140625 7.023438 C 5.132812 7.023438 5.121094 7.015625 5.117188 7.011719 C 5.117188 7.003906 5.105469 7 5.09375 7 C 5.085938 7 5.074219 6.992188 5.070312 6.988281 C 5.066406 6.980469 5.054688 6.976562 5.035156 6.976562 C 5.011719 6.976562 5 6.972656 4.996094 6.957031 C 4.988281 6.949219 4.976562 6.941406 4.964844 6.941406 C 4.957031 6.941406 4.945312 6.9375 4.945312 6.929688 C 4.941406 6.925781 4.929688 6.917969 4.921875 6.917969 C 4.910156 6.917969 4.898438 6.914062 4.894531 6.90625 C 4.894531 6.898438 4.882812 6.894531 4.871094 6.894531 C 4.859375 6.894531 4.847656 6.890625 4.847656 6.886719 C 4.847656 6.871094 4.808594 6.839844 4.789062 6.839844 C 4.78125 6.839844 4.773438 6.832031 4.769531 6.828125 C 4.765625 6.820312 4.757812 6.816406 4.746094 6.816406 C 4.734375 6.816406 4.722656 6.808594 4.722656 6.804688 C 4.71875 6.796875 4.710938 6.789062 4.699219 6.789062 C 4.691406 6.789062 4.671875 6.777344 4.660156 6.761719 C 4.644531 6.746094 4.625 6.734375 4.613281 6.734375 C 4.605469 6.734375 4.597656 6.730469 4.597656 6.722656 C 4.597656 6.714844 4.59375 6.710938 4.585938 6.710938 C 4.582031 6.710938 4.574219 6.707031 4.570312 6.699219 C 4.570312 6.691406 4.558594 6.6875 4.550781 6.6875 C 4.542969 6.6875 4.519531 6.667969 4.5 6.648438 C 4.480469 6.625 4.457031 6.605469 4.449219 6.605469 C 4.441406 6.605469 4.414062 6.582031 4.386719 6.554688 C 4.363281 6.527344 4.335938 6.503906 4.328125 6.503906 C 4.320312 6.503906 4.269531 6.457031 4.214844 6.398438 C 4.160156 6.339844 4.113281 6.296875 4.109375 6.296875 C 4.105469 6.296875 4.101562 6.289062 4.101562 6.285156 C 4.101562 6.273438 4.046875 6.214844 4.035156 6.214844 C 4.03125 6.214844 4.027344 6.210938 4.027344 6.207031 C 4.027344 6.195312 3.96875 6.136719 3.960938 6.136719 C 3.957031 6.136719 3.953125 6.128906 3.953125 6.125 C 3.953125 6.117188 3.945312 6.109375 3.941406 6.109375 C 3.933594 6.105469 3.929688 6.09375 3.929688 6.085938 C 3.929688 6.074219 3.910156 6.050781 3.878906 6.019531 C 3.851562 5.992188 3.828125 5.964844 3.828125 5.957031 C 3.828125 5.945312 3.8125 5.921875 3.792969 5.902344 C 3.765625 5.875 3.753906 5.855469 3.753906 5.84375 C 3.753906 5.832031 3.75 5.824219 3.742188 5.824219 C 3.734375 5.824219 3.730469 5.816406 3.730469 5.8125 C 3.730469 5.804688 3.726562 5.796875 3.71875 5.796875 C 3.714844 5.792969 3.707031 5.785156 3.707031 5.773438 C 3.707031 5.761719 3.699219 5.746094 3.679688 5.730469 C 3.667969 5.71875 3.65625 5.699219 3.65625 5.691406 C 3.65625 5.683594 3.644531 5.664062 3.632812 5.65625 C 3.621094 5.644531 3.609375 5.628906 3.609375 5.617188 C 3.609375 5.605469 3.601562 5.59375 3.59375 5.589844 C 3.585938 5.582031 3.578125 5.570312 3.578125 5.558594 C 3.578125 5.542969 3.574219 5.535156 3.566406 5.535156 C 3.558594 5.535156 3.554688 5.527344 3.554688 5.511719 C 3.554688 5.496094 3.550781 5.484375 3.535156 5.472656 C 3.519531 5.460938 3.511719 5.441406 3.511719 5.433594 C 3.511719 5.421875 3.503906 5.410156 3.496094 5.40625 C 3.488281 5.398438 3.480469 5.386719 3.480469 5.378906 C 3.480469 5.367188 3.476562 5.355469 3.46875 5.355469 C 3.460938 5.351562 3.457031 5.339844 3.457031 5.328125 C 3.457031 5.316406 3.453125 5.304688 3.445312 5.300781 C 3.441406 5.296875 3.433594 5.285156 3.433594 5.273438 C 3.433594 5.265625 3.429688 5.253906 3.421875 5.25 C 3.417969 5.246094 3.410156 5.238281 3.410156 5.226562 C 3.410156 5.214844 3.40625 5.203125 3.398438 5.199219 C 3.386719 5.191406 3.382812 5.179688 3.382812 5.152344 C 3.382812 5.128906 3.378906 5.121094 3.371094 5.121094 C 3.363281 5.121094 3.359375 5.109375 3.359375 5.09375 C 3.359375 5.082031 3.355469 5.070312 3.347656 5.066406 C 3.339844 5.0625 3.335938 5.054688 3.335938 5.042969 C 3.335938 5.035156 3.332031 5.019531 3.324219 5.015625 C 3.316406 5.007812 3.3125 4.992188 3.3125 4.976562 C 3.3125 4.960938 3.308594 4.945312 3.296875 4.9375 C 3.289062 4.929688 3.28125 4.914062 3.28125 4.894531 C 3.28125 4.875 3.277344 4.859375 3.269531 4.859375 C 3.265625 4.855469 3.261719 4.84375 3.261719 4.832031 C 3.261719 4.816406 3.253906 4.804688 3.25 4.800781 C 3.242188 4.800781 3.238281 4.785156 3.238281 4.765625 C 3.238281 4.742188 3.234375 4.734375 3.222656 4.726562 C 3.210938 4.71875 3.207031 4.707031 3.207031 4.683594 C 3.207031 4.660156 3.203125 4.648438 3.195312 4.644531 C 3.1875 4.640625 3.183594 4.628906 3.183594 4.589844 C 3.183594 4.554688 3.179688 4.542969 3.171875 4.542969 C 3.164062 4.542969 3.160156 4.53125 3.160156 4.496094 C 3.160156 4.460938 3.15625 4.445312 3.148438 4.441406 C 3.132812 4.433594 3.136719 4.40625 3.160156 4.382812 C 3.171875 4.371094 3.183594 4.355469 3.183594 4.347656 C 3.183594 4.339844 3.199219 4.316406 3.222656 4.296875 C 3.25 4.269531 3.261719 4.253906 3.261719 4.238281 C 3.261719 4.222656 3.265625 4.214844 3.269531 4.214844 C 3.277344 4.214844 3.28125 4.210938 3.28125 4.203125 C 3.28125 4.195312 3.285156 4.191406 3.289062 4.191406 C 3.296875 4.191406 3.359375 4.128906 3.359375 4.117188 C 3.359375 4.113281 3.363281 4.113281 3.371094 4.113281 C 3.378906 4.113281 3.382812 4.101562 3.382812 4.085938 C 3.382812 4.0625 3.382812 4.0625 3.390625 4.074219 C 3.398438 4.082031 3.410156 4.085938 3.421875 4.085938 M 2.9375 4.976562 C 2.945312 4.980469 2.949219 4.996094 2.949219 5.015625 C 2.949219 5.035156 2.953125 5.050781 2.960938 5.050781 C 2.964844 5.054688 2.972656 5.066406 2.972656 5.078125 C 2.972656 5.09375 2.976562 5.101562 2.984375 5.101562 C 2.992188 5.101562 2.992188 5.113281 2.992188 5.140625 C 2.992188 5.164062 2.996094 5.175781 3.003906 5.179688 C 3.011719 5.183594 3.015625 5.195312 3.015625 5.203125 C 3.015625 5.214844 3.023438 5.226562 3.03125 5.234375 C 3.039062 5.238281 3.046875 5.25 3.046875 5.265625 C 3.046875 5.277344 3.050781 5.289062 3.058594 5.289062 C 3.066406 5.292969 3.070312 5.304688 3.070312 5.316406 C 3.070312 5.328125 3.074219 5.335938 3.082031 5.339844 C 3.089844 5.34375 3.09375 5.355469 3.09375 5.375 C 3.09375 5.390625 3.097656 5.410156 3.105469 5.414062 C 3.109375 5.421875 3.117188 5.433594 3.117188 5.441406 C 3.117188 5.449219 3.121094 5.460938 3.128906 5.46875 C 3.140625 5.476562 3.144531 5.488281 3.144531 5.5 C 3.144531 5.507812 3.15625 5.523438 3.167969 5.535156 C 3.179688 5.546875 3.191406 5.5625 3.191406 5.570312 C 3.191406 5.582031 3.195312 5.59375 3.203125 5.597656 C 3.210938 5.605469 3.214844 5.617188 3.214844 5.625 C 3.214844 5.632812 3.222656 5.644531 3.230469 5.648438 C 3.238281 5.65625 3.246094 5.667969 3.246094 5.679688 C 3.246094 5.691406 3.25 5.703125 3.257812 5.707031 C 3.261719 5.707031 3.265625 5.71875 3.265625 5.730469 C 3.265625 5.742188 3.277344 5.757812 3.292969 5.773438 C 3.308594 5.785156 3.320312 5.800781 3.320312 5.8125 C 3.320312 5.824219 3.324219 5.832031 3.332031 5.835938 C 3.339844 5.839844 3.34375 5.851562 3.34375 5.863281 C 3.34375 5.875 3.351562 5.890625 3.367188 5.902344 C 3.378906 5.914062 3.390625 5.929688 3.390625 5.9375 C 3.390625 5.945312 3.402344 5.960938 3.414062 5.976562 C 3.429688 5.992188 3.441406 6.011719 3.441406 6.019531 C 3.441406 6.027344 3.460938 6.050781 3.480469 6.074219 C 3.503906 6.097656 3.519531 6.117188 3.519531 6.132812 C 3.519531 6.140625 3.523438 6.152344 3.527344 6.152344 C 3.539062 6.152344 3.585938 6.207031 3.589844 6.230469 C 3.59375 6.246094 3.597656 6.253906 3.605469 6.253906 C 3.613281 6.253906 3.617188 6.257812 3.617188 6.261719 C 3.617188 6.273438 3.675781 6.335938 3.683594 6.335938 C 3.6875 6.335938 3.691406 6.339844 3.691406 6.347656 C 3.691406 6.351562 3.699219 6.359375 3.703125 6.363281 C 3.710938 6.363281 3.714844 6.375 3.714844 6.382812 C 3.714844 6.402344 4.042969 6.75 4.0625 6.75 C 4.070312 6.75 4.101562 6.78125 4.136719 6.820312 C 4.175781 6.859375 4.210938 6.886719 4.21875 6.886719 C 4.226562 6.886719 4.234375 6.890625 4.238281 6.898438 C 4.238281 6.90625 4.246094 6.910156 4.253906 6.910156 C 4.257812 6.910156 4.261719 6.917969 4.261719 6.921875 C 4.261719 6.929688 4.265625 6.933594 4.273438 6.933594 C 4.277344 6.933594 4.285156 6.941406 4.292969 6.949219 C 4.296875 6.960938 4.308594 6.96875 4.316406 6.96875 C 4.324219 6.96875 4.339844 6.976562 4.351562 6.992188 C 4.363281 7.003906 4.378906 7.015625 4.386719 7.015625 C 4.394531 7.015625 4.410156 7.027344 4.425781 7.042969 C 4.441406 7.058594 4.460938 7.070312 4.464844 7.070312 C 4.472656 7.070312 4.484375 7.082031 4.5 7.09375 C 4.511719 7.109375 4.527344 7.117188 4.539062 7.117188 C 4.550781 7.117188 4.558594 7.125 4.558594 7.132812 C 4.558594 7.136719 4.566406 7.144531 4.578125 7.144531 C 4.589844 7.144531 4.605469 7.152344 4.621094 7.171875 C 4.636719 7.1875 4.652344 7.199219 4.664062 7.199219 C 4.671875 7.199219 4.679688 7.203125 4.683594 7.210938 C 4.6875 7.21875 4.695312 7.222656 4.707031 7.222656 C 4.71875 7.222656 4.730469 7.226562 4.730469 7.234375 C 4.734375 7.242188 4.746094 7.246094 4.753906 7.246094 C 4.769531 7.246094 4.78125 7.253906 4.785156 7.261719 C 4.789062 7.273438 4.804688 7.277344 4.8125 7.277344 C 4.824219 7.277344 4.832031 7.285156 4.835938 7.289062 C 4.839844 7.300781 4.851562 7.304688 4.875 7.304688 C 4.898438 7.304688 4.910156 7.304688 4.910156 7.316406 C 4.910156 7.324219 4.917969 7.328125 4.929688 7.328125 C 4.945312 7.328125 4.953125 7.332031 4.953125 7.339844 C 4.953125 7.351562 4.96875 7.359375 4.992188 7.359375 C 5 7.359375 5.007812 7.363281 5.011719 7.371094 C 5.011719 7.378906 5.023438 7.382812 5.046875 7.382812 C 5.066406 7.382812 5.078125 7.386719 5.082031 7.394531 C 5.082031 7.402344 5.097656 7.40625 5.117188 7.40625 C 5.140625 7.40625 5.152344 7.410156 5.15625 7.417969 C 5.15625 7.425781 5.171875 7.429688 5.195312 7.429688 C 5.21875 7.429688 5.226562 7.433594 5.226562 7.441406 C 5.226562 7.453125 5.238281 7.457031 5.28125 7.464844 C 5.292969 7.46875 5.285156 7.46875 5.269531 7.46875 C 5.246094 7.46875 5.234375 7.476562 5.230469 7.484375 C 5.226562 7.492188 5.214844 7.496094 5.191406 7.496094 C 5.167969 7.496094 5.15625 7.5 5.15625 7.507812 C 5.152344 7.515625 5.140625 7.519531 5.121094 7.519531 C 5.105469 7.519531 5.089844 7.523438 5.082031 7.53125 C 5.078125 7.539062 5.058594 7.542969 5.027344 7.542969 C 4.972656 7.542969 4.953125 7.546875 4.953125 7.5625 C 4.953125 7.570312 4.941406 7.574219 4.898438 7.574219 C 4.851562 7.574219 4.839844 7.578125 4.835938 7.585938 C 4.832031 7.597656 4.816406 7.597656 4.75 7.597656 C 4.679688 7.597656 4.664062 7.601562 4.660156 7.609375 C 4.65625 7.621094 4.621094 7.621094 4.417969 7.621094 C 4.214844 7.621094 4.179688 7.621094 4.175781 7.609375 C 4.171875 7.601562 4.15625 7.597656 4.078125 7.597656 C 4 7.597656 3.984375 7.597656 3.980469 7.585938 C 3.976562 7.578125 3.960938 7.574219 3.90625 7.574219 C 3.851562 7.574219 3.839844 7.574219 3.828125 7.558594 C 3.816406 7.546875 3.804688 7.542969 3.761719 7.542969 C 3.726562 7.542969 3.707031 7.539062 3.699219 7.53125 C 3.695312 7.523438 3.675781 7.519531 3.652344 7.519531 C 3.621094 7.519531 3.609375 7.515625 3.605469 7.507812 C 3.601562 7.496094 3.589844 7.496094 3.554688 7.496094 C 3.523438 7.496094 3.507812 7.492188 3.503906 7.484375 C 3.503906 7.476562 3.492188 7.472656 3.46875 7.472656 C 3.445312 7.472656 3.4375 7.464844 3.429688 7.453125 C 3.421875 7.441406 3.410156 7.4375 3.390625 7.4375 C 3.371094 7.4375 3.359375 7.433594 3.355469 7.425781 C 3.351562 7.417969 3.339844 7.414062 3.316406 7.414062 C 3.296875 7.414062 3.28125 7.410156 3.28125 7.402344 C 3.277344 7.394531 3.265625 7.390625 3.246094 7.390625 C 3.222656 7.390625 3.210938 7.386719 3.210938 7.378906 C 3.207031 7.371094 3.195312 7.367188 3.171875 7.367188 C 3.148438 7.367188 3.140625 7.363281 3.132812 7.351562 C 3.128906 7.34375 3.113281 7.335938 3.105469 7.335938 C 3.09375 7.335938 3.085938 7.328125 3.082031 7.324219 C 3.078125 7.316406 3.070312 7.3125 3.0625 7.3125 C 3.035156 7.308594 3.007812 7.277344 3.007812 7.242188 C 3.007812 7.226562 3.003906 7.210938 2.996094 7.210938 C 2.988281 7.207031 2.984375 7.195312 2.984375 7.167969 C 2.984375 7.144531 2.984375 7.132812 2.976562 7.128906 C 2.96875 7.125 2.964844 7.113281 2.964844 7.09375 C 2.964844 7.078125 2.957031 7.058594 2.953125 7.054688 C 2.945312 7.050781 2.941406 7.03125 2.941406 7.019531 C 2.941406 7 2.933594 6.984375 2.925781 6.976562 C 2.914062 6.96875 2.910156 6.953125 2.910156 6.933594 C 2.910156 6.914062 2.90625 6.902344 2.898438 6.898438 C 2.890625 6.894531 2.886719 6.882812 2.886719 6.859375 C 2.886719 6.832031 2.882812 6.820312 2.875 6.816406 C 2.867188 6.8125 2.863281 6.800781 2.863281 6.765625 C 2.863281 6.726562 2.863281 6.71875 2.847656 6.710938 C 2.835938 6.703125 2.835938 6.695312 2.835938 6.65625 C 2.835938 6.617188 2.832031 6.605469 2.824219 6.605469 C 2.8125 6.605469 2.8125 6.59375 2.8125 6.542969 C 2.8125 6.496094 2.808594 6.480469 2.800781 6.476562 C 2.792969 6.472656 2.789062 6.457031 2.789062 6.410156 C 2.789062 6.363281 2.785156 6.347656 2.777344 6.347656 C 2.769531 6.34375 2.765625 6.324219 2.765625 6.25 C 2.765625 6.152344 2.761719 6.136719 2.746094 6.136719 C 2.726562 6.136719 2.730469 5.613281 2.75 5.601562 C 2.765625 5.59375 2.765625 5.582031 2.765625 5.492188 C 2.765625 5.410156 2.769531 5.390625 2.777344 5.386719 C 2.785156 5.382812 2.789062 5.371094 2.789062 5.324219 C 2.789062 5.277344 2.792969 5.265625 2.800781 5.261719 C 2.808594 5.257812 2.8125 5.242188 2.8125 5.207031 C 2.8125 5.171875 2.816406 5.160156 2.824219 5.15625 C 2.832031 5.152344 2.835938 5.140625 2.835938 5.121094 C 2.835938 5.097656 2.839844 5.085938 2.847656 5.078125 C 2.859375 5.074219 2.863281 5.0625 2.863281 5.035156 C 2.863281 5.011719 2.867188 5 2.875 4.996094 C 2.882812 4.992188 2.886719 4.980469 2.886719 4.960938 C 2.886719 4.914062 2.914062 4.894531 2.917969 4.9375 C 2.921875 4.953125 2.929688 4.972656 2.9375 4.976562 M 0.101562 6.371094 C 0.09375 6.375 0.0898438 6.382812 0.0898438 6.386719 C 0.0898438 6.394531 0.0820312 6.398438 0.0742188 6.398438 C 0.0507812 6.398438 0.015625 6.429688 0.015625 6.453125 C 0.015625 6.464844 0.0117188 6.472656 0.0078125 6.472656 C 0.00390625 6.472656 0 6.511719 0 6.574219 C 0 6.632812 0.00390625 6.679688 0.0078125 6.679688 C 0.0117188 6.679688 0.0234375 6.691406 0.0351562 6.703125 C 0.046875 6.714844 0.0625 6.726562 0.0742188 6.726562 C 0.0820312 6.726562 0.0898438 6.730469 0.09375 6.738281 C 0.0976562 6.75 0.113281 6.75 0.164062 6.75 C 0.210938 6.75 0.226562 6.75 0.230469 6.738281 C 0.234375 6.730469 0.242188 6.726562 0.25 6.726562 C 0.273438 6.726562 0.304688 6.695312 0.304688 6.675781 C 0.304688 6.664062 0.3125 6.652344 0.320312 6.644531 C 0.332031 6.632812 0.335938 6.621094 0.335938 6.558594 C 0.335938 6.496094 0.332031 6.484375 0.320312 6.476562 C 0.3125 6.472656 0.304688 6.457031 0.304688 6.449219 C 0.304688 6.4375 0.296875 6.429688 0.292969 6.425781 C 0.285156 6.421875 0.28125 6.417969 0.28125 6.410156 C 0.28125 6.402344 0.273438 6.398438 0.261719 6.398438 C 0.246094 6.398438 0.234375 6.394531 0.230469 6.382812 C 0.21875 6.367188 0.128906 6.359375 0.101562 6.371094 "/>
</g>
</svg>
