<svg id="svg" xmlns="http://www.w3.org/2000/svg" xmlns:xlink="http://www.w3.org/1999/xlink" width="400" height="303.72208436724566" viewBox="0, 0, 400,303.72208436724566"><g id="svgg"><path id="path0" d="M323.328 1.214 C 322.701 1.859,322.188 2.656,322.188 2.985 C 322.188 3.313,321.983 3.661,321.733 3.757 C 321.334 3.910,321.277 6.464,321.277 24.194 L 321.277 44.455 323.067 46.240 C 324.134 47.304,325.119 48.024,325.508 48.024 C 325.866 48.024,326.238 48.229,326.334 48.480 C 326.466 48.824,327.018 48.936,328.571 48.936 C 330.124 48.936,330.677 48.824,330.809 48.480 C 330.905 48.229,331.273 48.024,331.626 48.024 C 332.477 48.024,334.943 45.623,334.949 44.789 C 334.952 44.431,335.160 44.059,335.410 43.963 C 335.809 43.810,335.866 41.349,335.866 24.358 C 335.866 7.368,335.809 4.906,335.410 4.753 C 335.160 4.657,334.954 4.306,334.954 3.973 C 334.954 3.640,334.694 3.122,334.375 2.823 C 334.057 2.524,333.749 1.938,333.692 1.520 C 333.613 0.949,333.378 0.736,332.751 0.664 C 332.291 0.611,331.915 0.440,331.915 0.284 C 331.915 0.122,330.309 0.009,328.191 0.020 L 324.468 0.040 323.328 1.214 M174.848 27.557 C 174.639 27.641,174.468 27.904,174.468 28.141 C 174.468 28.494,173.597 28.571,169.595 28.571 C 165.544 28.571,164.693 28.648,164.548 29.027 C 164.407 29.394,163.723 29.483,161.052 29.483 C 158.381 29.483,157.697 29.572,157.557 29.939 C 157.423 30.287,156.853 30.395,155.145 30.395 C 153.220 30.395,152.864 30.480,152.584 31.003 C 152.314 31.507,151.947 31.611,150.445 31.611 C 149.036 31.611,148.632 31.713,148.632 32.067 C 148.632 32.405,148.277 32.523,147.255 32.523 C 146.311 32.523,145.823 32.666,145.703 32.979 C 145.585 33.286,145.103 33.435,144.225 33.435 C 143.347 33.435,142.865 33.583,142.747 33.891 C 142.632 34.191,142.156 34.347,141.350 34.347 C 140.456 34.347,140.025 34.510,139.747 34.954 C 139.516 35.324,139.038 35.562,138.529 35.562 C 137.986 35.562,137.690 35.723,137.690 36.018 C 137.690 36.318,137.390 36.474,136.811 36.474 C 136.309 36.474,135.856 36.670,135.756 36.930 C 135.660 37.181,135.231 37.386,134.802 37.386 C 134.374 37.386,133.945 37.591,133.849 37.842 C 133.752 38.093,133.371 38.298,133.002 38.298 C 132.617 38.298,131.929 38.751,131.389 39.362 C 130.871 39.947,130.176 40.426,129.845 40.426 C 129.513 40.426,128.822 40.904,128.308 41.489 C 127.795 42.074,127.095 42.553,126.754 42.553 C 126.393 42.553,125.327 43.377,124.198 44.529 C 123.132 45.616,122.036 46.505,121.762 46.505 C 120.939 46.505,117.933 49.721,117.933 50.601 C 117.933 51.023,117.796 51.368,117.629 51.368 C 117.233 51.368,114.894 53.708,114.894 54.103 C 114.894 54.271,114.688 54.407,114.438 54.407 C 114.153 54.407,113.982 54.695,113.982 55.177 C 113.982 55.667,113.596 56.300,112.918 56.922 C 112.333 57.459,111.854 58.193,111.854 58.552 C 111.854 58.911,111.649 59.284,111.398 59.380 C 111.147 59.477,110.942 59.871,110.942 60.257 C 110.942 60.643,110.669 61.193,110.334 61.480 C 110.000 61.766,109.726 62.258,109.726 62.574 C 109.726 62.889,109.521 63.318,109.271 63.526 C 109.020 63.734,108.815 64.215,108.815 64.594 C 108.815 64.974,108.609 65.363,108.359 65.459 C 108.108 65.556,107.903 65.966,107.903 66.371 C 107.903 66.777,107.698 67.187,107.447 67.283 C 107.134 67.403,106.991 67.892,106.991 68.835 C 106.991 69.810,106.867 70.213,106.567 70.213 C 106.041 70.213,105.775 70.873,105.775 72.181 C 105.775 72.795,105.597 73.255,105.319 73.362 C 104.985 73.490,104.863 74.018,104.863 75.338 C 104.863 76.658,104.742 77.185,104.407 77.314 C 104.059 77.447,103.951 78.020,103.951 79.745 C 103.951 81.471,103.844 82.043,103.495 82.177 C 102.808 82.441,102.808 104.405,103.495 104.669 C 103.854 104.807,103.951 105.431,103.951 107.599 C 103.951 109.767,104.048 110.391,104.407 110.528 C 104.742 110.657,104.863 111.184,104.863 112.504 C 104.863 113.824,104.985 114.351,105.319 114.480 C 105.616 114.594,105.775 115.066,105.775 115.835 C 105.775 116.687,105.945 117.122,106.383 117.396 C 106.832 117.676,106.991 118.105,106.991 119.038 C 106.991 119.879,107.143 120.358,107.447 120.475 C 107.749 120.590,107.903 121.067,107.903 121.884 C 107.903 122.702,108.057 123.179,108.359 123.294 C 108.620 123.395,108.815 123.848,108.815 124.358 C 108.815 124.868,109.009 125.322,109.271 125.422 C 109.521 125.518,109.726 125.856,109.726 126.172 C 109.726 126.489,110.000 127.021,110.334 127.356 C 110.669 127.690,110.942 128.241,110.942 128.581 C 110.942 128.921,111.147 129.277,111.398 129.373 C 111.652 129.471,111.854 129.923,111.854 130.395 C 111.854 130.867,112.056 131.319,112.310 131.417 C 112.561 131.513,112.766 131.905,112.766 132.287 C 112.766 132.710,113.183 133.330,113.830 133.869 C 114.420 134.361,114.894 135.037,114.894 135.388 C 114.894 135.762,115.515 136.578,116.413 137.386 C 117.249 138.137,117.933 139.015,117.933 139.336 C 117.933 139.671,119.165 141.138,120.821 142.775 C 124.181 146.097,124.175 146.073,122.188 147.968 C 121.353 148.765,120.669 149.653,120.669 149.942 C 120.669 150.230,120.053 151.056,119.301 151.777 C 118.549 152.498,117.933 153.336,117.933 153.641 C 117.933 153.945,117.249 154.850,116.413 155.651 C 115.366 156.656,114.894 157.350,114.894 157.886 C 114.894 158.374,114.724 158.663,114.438 158.663 C 114.187 158.663,113.982 158.835,113.982 159.045 C 113.982 159.256,113.708 159.599,113.374 159.808 C 113.040 160.017,112.760 160.494,112.753 160.869 C 112.746 161.244,112.336 161.886,111.841 162.296 C 111.347 162.706,110.942 163.287,110.942 163.588 C 110.942 163.888,110.669 164.407,110.334 164.742 C 110.000 165.076,109.726 165.608,109.726 165.925 C 109.726 166.241,109.521 166.579,109.271 166.675 C 109.009 166.776,108.815 167.229,108.815 167.739 C 108.815 168.249,108.620 168.703,108.359 168.803 C 108.108 168.899,107.903 169.309,107.903 169.715 C 107.903 170.120,107.698 170.530,107.447 170.627 C 107.196 170.723,106.991 171.117,106.991 171.503 C 106.991 171.889,106.717 172.440,106.383 172.726 C 106.049 173.012,105.775 173.504,105.775 173.820 C 105.775 174.136,105.570 174.564,105.319 174.772 C 105.068 174.980,104.863 175.476,104.863 175.873 C 104.863 176.313,104.685 176.596,104.407 176.596 C 104.107 176.596,103.951 176.896,103.951 177.475 C 103.951 177.976,103.755 178.430,103.495 178.529 C 103.183 178.649,103.040 179.138,103.040 180.082 C 103.040 181.056,102.916 181.459,102.616 181.459 C 102.157 181.459,101.824 182.096,101.824 182.971 C 101.824 183.274,101.619 183.600,101.368 183.697 C 101.066 183.812,100.912 184.289,100.912 185.106 C 100.912 185.924,100.758 186.400,100.456 186.516 C 100.122 186.644,100.000 187.172,100.000 188.492 C 100.000 189.812,99.878 190.339,99.544 190.468 C 99.240 190.584,99.088 191.063,99.088 191.905 C 99.088 192.838,98.930 193.266,98.480 193.546 C 97.961 193.870,97.872 194.255,97.872 196.171 C 97.872 197.885,97.765 198.456,97.416 198.590 C 97.058 198.728,96.960 199.347,96.960 201.478 C 96.960 203.608,96.863 204.228,96.505 204.365 C 96.130 204.509,96.049 205.287,96.049 208.737 C 96.049 212.559,95.994 212.981,95.441 213.455 C 94.494 214.266,94.494 231.104,95.441 231.611 C 96.009 231.915,96.049 232.247,96.049 236.767 C 96.049 241.111,96.102 241.611,96.581 241.736 C 96.873 241.812,84.017 241.891,68.012 241.910 C 39.259 241.945,38.906 241.953,38.531 242.553 C 38.263 242.984,37.822 243.161,37.025 243.161 C 35.710 243.161,34.347 244.228,34.347 245.257 C 34.347 245.619,34.141 245.994,33.891 246.091 C 33.393 246.282,33.185 253.495,33.677 253.495 C 33.811 253.495,34.392 253.970,34.969 254.550 C 35.546 255.129,36.311 255.608,36.670 255.613 C 37.028 255.619,37.399 255.828,37.495 256.078 C 37.648 256.476,41.496 256.542,68.759 256.610 L 99.848 256.687 99.939 258.587 C 100.006 260.003,100.141 260.486,100.470 260.486 C 100.806 260.486,100.912 260.914,100.912 262.273 C 100.912 263.490,101.057 264.180,101.368 264.438 C 101.619 264.646,101.824 265.279,101.824 265.846 C 101.824 266.499,102.046 267.065,102.432 267.396 C 102.907 267.803,103.040 268.292,103.040 269.640 C 103.040 270.892,103.164 271.411,103.495 271.538 C 103.746 271.635,103.951 272.064,103.951 272.492 C 103.951 272.921,104.157 273.350,104.407 273.446 C 104.695 273.557,104.863 274.022,104.863 274.705 C 104.863 275.300,105.090 276.038,105.366 276.344 C 105.853 276.882,104.249 276.900,54.567 276.900 L 3.264 276.900 1.632 278.545 L 0.000 280.190 0.000 283.256 C 0.000 285.098,0.121 286.322,0.304 286.322 C 0.471 286.322,0.608 286.745,0.608 287.262 C 0.608 287.947,0.773 288.246,1.216 288.362 C 1.550 288.449,1.824 288.710,1.824 288.941 C 1.824 289.202,2.157 289.362,2.703 289.362 C 3.204 289.362,3.658 289.558,3.757 289.818 C 3.912 290.221,10.359 290.274,59.250 290.274 C 114.257 290.274,114.570 290.277,114.894 290.881 C 115.086 291.240,115.530 291.489,115.978 291.489 C 116.395 291.489,116.815 291.695,116.911 291.945 C 117.029 292.252,117.511 292.401,118.389 292.401 C 119.267 292.401,119.749 292.550,119.867 292.857 C 119.987 293.170,120.475 293.313,121.419 293.313 C 122.394 293.313,122.796 293.437,122.796 293.736 C 122.796 294.263,123.457 294.529,124.764 294.529 C 125.379 294.529,125.839 294.707,125.946 294.985 C 126.060 295.282,126.533 295.441,127.309 295.441 C 127.994 295.441,128.657 295.634,128.875 295.897 C 129.089 296.154,129.752 296.353,130.400 296.353 C 131.138 296.353,131.608 296.515,131.721 296.809 C 131.841 297.121,132.329 297.264,133.273 297.264 C 134.248 297.264,134.650 297.388,134.650 297.688 C 134.650 298.259,135.327 298.480,137.070 298.480 C 137.995 298.480,138.666 298.647,138.906 298.936 C 139.155 299.236,139.833 299.392,140.886 299.392 C 142.030 299.392,142.538 299.523,142.663 299.848 C 142.791 300.182,143.319 300.304,144.639 300.304 C 145.959 300.304,146.486 300.426,146.614 300.760 C 146.748 301.108,147.317 301.216,149.011 301.216 C 150.857 301.216,151.321 301.319,151.753 301.824 C 152.197 302.342,152.650 302.432,154.828 302.432 C 156.818 302.432,157.420 302.532,157.557 302.888 C 157.703 303.269,158.604 303.343,163.060 303.343 C 166.410 303.343,168.389 303.456,168.389 303.647 C 168.389 303.843,171.530 303.951,177.204 303.951 C 182.877 303.951,186.018 303.843,186.018 303.647 C 186.018 303.459,187.642 303.343,190.283 303.343 C 193.794 303.343,194.579 303.263,194.723 302.888 C 194.860 302.530,195.478 302.432,197.598 302.432 C 199.970 302.432,200.345 302.358,200.678 301.824 C 201.005 301.301,201.387 301.216,203.417 301.216 C 205.310 301.216,205.775 301.126,205.775 300.760 C 205.775 300.422,206.131 300.304,207.152 300.304 C 208.096 300.304,208.585 300.160,208.705 299.848 C 208.833 299.514,209.360 299.392,210.680 299.392 C 212.001 299.392,212.528 299.270,212.656 298.936 C 212.770 298.639,213.243 298.480,214.012 298.480 C 214.863 298.480,215.298 298.311,215.572 297.872 C 215.803 297.503,216.281 297.264,216.790 297.264 C 217.333 297.264,217.629 297.104,217.629 296.809 C 217.629 296.470,217.985 296.353,219.006 296.353 C 219.950 296.353,220.439 296.209,220.559 295.897 C 220.655 295.646,221.044 295.441,221.424 295.441 C 221.803 295.441,222.271 295.252,222.462 295.021 C 222.653 294.791,223.217 294.521,223.715 294.421 C 224.244 294.315,224.620 294.048,224.620 293.777 C 224.620 293.429,224.966 293.313,225.997 293.313 C 226.941 293.313,227.430 293.170,227.550 292.857 C 227.646 292.606,228.086 292.397,228.528 292.393 C 229.088 292.387,229.561 292.068,230.091 291.337 C 230.621 290.607,231.094 290.288,231.654 290.282 C 232.096 290.277,232.536 290.068,232.633 289.818 C 232.729 289.567,233.158 289.362,233.587 289.362 C 234.015 289.362,234.444 289.157,234.541 288.906 C 234.637 288.655,235.010 288.450,235.369 288.450 C 235.728 288.450,236.462 287.971,236.999 287.386 C 237.621 286.708,238.254 286.322,238.744 286.322 C 239.226 286.322,239.514 286.151,239.514 285.866 C 239.514 285.616,239.719 285.410,239.970 285.410 C 240.220 285.410,240.426 285.205,240.426 284.954 C 240.426 284.666,240.716 284.498,241.218 284.498 C 241.776 284.498,242.432 284.049,243.437 282.979 C 244.222 282.143,245.117 281.459,245.426 281.459 C 245.735 281.459,246.851 280.570,247.906 279.483 C 248.961 278.397,250.070 277.508,250.370 277.508 C 250.670 277.508,251.355 277.029,251.892 276.444 C 252.853 275.397,253.799 275.043,253.799 275.731 C 253.799 276.145,256.124 278.419,256.548 278.419 C 256.708 278.419,256.839 278.550,256.839 278.711 C 256.839 279.398,259.197 281.459,259.983 281.459 C 260.498 281.459,260.790 281.624,260.790 281.915 C 260.790 282.166,260.995 282.371,261.246 282.371 C 261.497 282.371,261.702 282.514,261.702 282.689 C 261.702 283.196,263.314 284.477,263.982 284.502 C 264.316 284.514,264.925 284.929,265.335 285.423 C 265.745 285.918,266.365 286.322,266.712 286.322 C 267.058 286.322,267.576 286.596,267.863 286.930 C 268.149 287.264,268.643 287.538,268.961 287.538 C 269.280 287.538,269.619 287.743,269.715 287.994 C 269.815 288.255,270.269 288.450,270.779 288.450 C 271.288 288.450,271.742 288.644,271.842 288.906 C 271.939 289.157,272.349 289.362,272.754 289.362 C 273.160 289.362,273.570 289.567,273.666 289.818 C 273.762 290.068,274.183 290.274,274.600 290.274 C 275.047 290.274,275.492 290.523,275.684 290.881 C 275.876 291.240,276.320 291.489,276.768 291.489 C 277.185 291.489,277.605 291.695,277.702 291.945 C 277.819 292.252,278.302 292.401,279.179 292.401 C 280.057 292.401,280.539 292.550,280.657 292.857 C 280.777 293.170,281.265 293.313,282.209 293.313 C 283.184 293.313,283.587 293.437,283.587 293.736 C 283.587 294.308,284.263 294.529,286.011 294.529 C 287.030 294.529,287.526 294.667,287.648 294.985 C 287.782 295.334,288.359 295.441,290.122 295.441 C 291.884 295.441,292.461 295.547,292.595 295.897 C 292.738 296.268,293.470 296.353,296.547 296.353 C 299.623 296.353,300.355 296.437,300.498 296.809 C 300.644 297.189,301.524 297.264,305.808 297.264 C 310.169 297.264,310.942 297.196,310.942 296.809 C 310.942 296.427,311.568 296.353,314.751 296.353 C 317.857 296.353,318.592 296.268,318.735 295.897 C 318.868 295.549,319.436 295.441,321.120 295.441 C 322.713 295.441,323.435 295.314,323.708 294.985 C 323.959 294.683,324.639 294.529,325.719 294.529 C 327.021 294.529,327.427 294.406,327.730 293.921 C 327.961 293.552,328.439 293.313,328.948 293.313 C 329.491 293.313,329.787 293.152,329.787 292.857 C 329.787 292.519,330.143 292.401,331.165 292.401 C 332.108 292.401,332.597 292.258,332.717 291.945 C 332.813 291.695,333.218 291.489,333.617 291.489 C 334.015 291.489,334.512 291.216,334.721 290.881 C 334.952 290.512,335.430 290.274,335.939 290.274 C 336.482 290.274,336.778 290.113,336.778 289.818 C 336.778 289.513,337.083 289.362,337.700 289.362 C 338.238 289.362,338.694 289.172,338.796 288.906 C 338.892 288.655,339.265 288.450,339.624 288.450 C 339.984 288.450,340.717 287.971,341.254 287.386 C 341.791 286.801,342.513 286.322,342.857 286.322 C 343.202 286.322,343.563 286.117,343.659 285.866 C 343.755 285.616,344.025 285.410,344.257 285.410 C 344.490 285.410,344.681 285.205,344.681 284.954 C 344.681 284.685,344.961 284.497,345.365 284.495 C 346.061 284.491,348.632 282.351,348.632 281.775 C 348.632 281.601,348.769 281.459,348.936 281.459 C 349.103 281.459,349.787 280.912,350.456 280.243 C 351.125 279.574,351.672 278.891,351.672 278.723 C 351.672 278.556,351.877 278.419,352.128 278.419 C 352.378 278.419,352.584 278.214,352.584 277.964 C 352.584 277.713,352.755 277.505,352.964 277.502 C 353.427 277.496,354.711 276.184,354.711 275.717 C 354.711 275.532,354.916 275.380,355.167 275.380 C 355.418 275.380,355.623 275.175,355.623 274.924 C 355.623 274.673,355.832 274.468,356.087 274.468 C 356.357 274.468,356.625 274.094,356.729 273.572 C 356.828 273.079,357.299 272.293,357.777 271.824 C 358.255 271.356,358.650 270.722,358.654 270.415 C 358.659 270.108,359.141 269.433,359.726 268.915 C 360.337 268.375,360.790 267.687,360.790 267.302 C 360.790 266.933,360.995 266.552,361.246 266.455 C 361.497 266.359,361.702 265.930,361.702 265.502 C 361.702 265.073,361.907 264.644,362.158 264.548 C 362.412 264.450,362.614 263.998,362.614 263.526 C 362.614 263.054,362.816 262.602,363.070 262.504 C 363.321 262.408,363.526 262.013,363.526 261.627 C 363.526 261.241,363.799 260.691,364.134 260.405 C 364.529 260.066,364.742 259.508,364.742 258.808 C 364.742 258.132,364.911 257.667,365.198 257.557 C 365.505 257.439,365.653 256.957,365.653 256.079 C 365.653 255.201,365.802 254.719,366.109 254.601 C 366.420 254.482,366.565 253.997,366.565 253.082 C 366.565 252.167,366.711 251.681,367.021 251.562 C 367.355 251.434,367.477 250.907,367.477 249.589 C 367.477 248.047,367.564 247.769,368.085 247.632 C 368.608 247.496,368.693 247.218,368.693 245.654 C 368.693 244.317,368.814 243.788,369.149 243.659 C 369.510 243.521,369.605 242.885,369.605 240.620 C 369.605 238.354,369.700 237.718,370.061 237.580 C 370.432 237.437,370.517 236.701,370.517 233.596 C 370.517 230.543,370.601 229.787,370.940 229.787 C 371.697 229.787,371.733 229.026,371.733 212.614 C 371.733 196.202,371.697 195.441,370.940 195.441 C 370.596 195.441,370.517 194.530,370.517 190.568 C 370.517 186.517,370.440 185.666,370.061 185.520 C 369.694 185.380,369.605 184.696,369.605 182.025 C 369.605 179.354,369.516 178.670,369.149 178.529 C 368.791 178.392,368.693 177.775,368.693 175.662 C 368.693 173.281,368.623 172.932,368.085 172.644 C 367.560 172.363,367.477 172.008,367.477 170.041 C 367.477 168.296,367.370 167.721,367.021 167.587 C 366.673 167.453,366.565 166.881,366.565 165.156 C 366.565 163.430,366.458 162.858,366.109 162.724 C 365.761 162.590,365.653 162.018,365.653 160.292 C 365.653 158.567,365.546 157.994,365.198 157.861 C 364.870 157.735,364.742 157.223,364.742 156.044 C 364.742 154.777,364.602 154.282,364.134 153.881 C 363.658 153.474,363.526 152.984,363.526 151.637 C 363.526 150.385,363.401 149.865,363.070 149.738 C 362.736 149.610,362.614 149.083,362.614 147.762 C 362.614 146.442,362.492 145.915,362.158 145.787 C 361.831 145.661,361.702 145.149,361.702 143.968 C 361.702 142.877,361.549 142.196,361.246 141.945 C 360.945 141.695,360.790 141.015,360.790 139.935 C 360.790 138.632,360.668 138.226,360.182 137.923 C 359.733 137.643,359.574 137.215,359.574 136.282 C 359.574 135.440,359.423 134.961,359.119 134.844 C 358.817 134.729,358.663 134.252,358.663 133.435 C 358.663 132.617,358.508 132.141,358.207 132.025 C 357.872 131.897,357.751 131.369,357.751 130.049 C 357.751 128.729,357.629 128.202,357.295 128.073 C 357.017 127.967,356.839 127.506,356.839 126.892 C 356.839 125.584,356.573 124.924,356.047 124.924 C 355.747 124.924,355.623 124.521,355.623 123.547 C 355.623 122.603,355.480 122.114,355.167 121.994 C 354.857 121.875,354.711 121.390,354.711 120.475 C 354.711 119.560,354.566 119.074,354.255 118.955 C 353.958 118.841,353.799 118.368,353.799 117.599 C 353.799 116.748,353.630 116.313,353.191 116.039 C 352.742 115.758,352.584 115.330,352.584 114.397 C 352.584 113.556,352.432 113.077,352.128 112.960 C 351.877 112.864,351.672 112.435,351.672 112.006 C 351.672 111.578,351.467 111.148,351.216 111.052 C 350.906 110.933,350.760 110.447,350.760 109.532 C 350.760 108.617,350.614 108.132,350.304 108.013 C 350.007 107.899,349.848 107.426,349.848 106.657 C 349.848 105.805,349.679 105.370,349.240 105.097 C 348.871 104.866,348.632 104.388,348.632 103.878 C 348.632 103.335,348.471 103.040,348.176 103.040 C 347.838 103.040,347.720 102.684,347.720 101.662 C 347.720 100.718,347.577 100.230,347.264 100.110 C 346.971 99.997,346.809 99.527,346.809 98.789 C 346.809 98.141,346.610 97.478,346.353 97.264 C 346.102 97.056,345.897 96.628,345.897 96.312 C 345.897 95.997,345.623 95.505,345.289 95.218 C 344.878 94.867,344.681 94.322,344.681 93.540 C 344.681 92.791,344.520 92.320,344.225 92.207 C 343.971 92.110,343.769 91.658,343.769 91.185 C 343.769 90.713,343.567 90.261,343.313 90.164 C 343.062 90.067,342.857 89.638,342.857 89.210 C 342.857 88.781,342.652 88.352,342.401 88.256 C 342.123 88.149,341.945 87.689,341.945 87.074 C 341.945 85.767,341.679 85.106,341.153 85.106 C 340.889 85.106,340.729 84.776,340.729 84.227 C 340.729 83.726,340.533 83.272,340.274 83.173 C 340.023 83.077,339.818 82.647,339.818 82.219 C 339.818 81.790,339.612 81.361,339.362 81.265 C 339.111 81.169,338.906 80.764,338.906 80.365 C 338.906 79.967,338.632 79.470,338.298 79.261 C 337.849 78.980,337.690 78.552,337.690 77.619 C 337.690 76.777,337.538 76.299,337.234 76.182 C 336.983 76.086,336.778 75.656,336.778 75.228 C 336.778 74.800,336.573 74.370,336.322 74.274 C 336.071 74.178,335.866 73.767,335.866 73.362 C 335.866 72.957,335.661 72.547,335.410 72.450 C 335.160 72.354,334.954 72.028,334.954 71.725 C 334.954 70.849,334.621 70.213,334.162 70.213 C 333.915 70.213,333.739 69.902,333.739 69.466 C 333.739 68.404,331.636 66.261,330.594 66.261 C 330.150 66.261,329.787 66.118,329.787 65.943 C 329.787 65.446,328.239 64.134,327.652 64.134 C 327.363 64.134,326.956 63.929,326.748 63.678 C 326.540 63.427,326.059 63.222,325.679 63.222 C 325.300 63.222,324.910 63.017,324.814 62.766 C 324.694 62.454,324.206 62.310,323.262 62.310 C 322.240 62.310,321.884 62.192,321.884 61.854 C 321.884 61.559,321.589 61.398,321.046 61.398 C 320.536 61.398,320.058 61.160,319.827 60.790 C 319.619 60.456,319.122 60.182,318.723 60.182 C 318.324 60.182,317.919 59.977,317.823 59.726 C 317.727 59.476,317.298 59.271,316.869 59.271 C 316.441 59.271,316.012 59.065,315.915 58.815 C 315.816 58.555,315.362 58.359,314.861 58.359 C 314.282 58.359,313.982 58.203,313.982 57.903 C 313.982 57.566,313.628 57.447,312.625 57.447 C 311.579 57.447,311.193 57.307,310.942 56.839 C 310.758 56.495,310.306 56.231,309.900 56.231 C 309.506 56.231,309.105 56.026,309.009 55.775 C 308.890 55.465,308.404 55.319,307.489 55.319 C 306.574 55.319,306.088 55.173,305.969 54.863 C 305.873 54.612,305.478 54.407,305.092 54.407 C 304.706 54.407,304.156 54.134,303.870 53.799 C 303.540 53.414,302.973 53.191,302.320 53.191 C 301.754 53.191,301.120 52.986,300.912 52.736 C 300.704 52.485,300.223 52.280,299.843 52.280 C 299.464 52.280,299.074 52.074,298.978 51.824 C 298.858 51.511,298.370 51.368,297.426 51.368 C 296.404 51.368,296.049 51.250,296.049 50.912 C 296.049 50.617,295.753 50.456,295.210 50.456 C 294.700 50.456,294.222 50.217,293.992 49.848 C 293.718 49.410,293.283 49.240,292.431 49.240 C 291.662 49.240,291.189 49.081,291.075 48.784 C 290.956 48.474,290.471 48.328,289.556 48.328 C 288.641 48.328,288.155 48.183,288.036 47.872 C 287.920 47.571,287.443 47.416,286.626 47.416 C 285.809 47.416,285.332 47.262,285.216 46.960 C 285.120 46.710,284.679 46.505,284.235 46.505 C 283.758 46.505,283.274 46.256,283.049 45.897 C 282.775 45.458,282.340 45.289,281.489 45.289 C 280.720 45.289,280.247 45.130,280.133 44.833 C 280.014 44.523,279.528 44.377,278.613 44.377 C 277.699 44.377,277.213 44.231,277.094 43.921 C 276.978 43.619,276.501 43.465,275.684 43.465 C 274.867 43.465,274.390 43.311,274.274 43.009 C 274.146 42.676,273.621 42.553,272.319 42.553 C 270.849 42.553,270.481 42.447,270.213 41.945 C 269.971 41.493,269.576 41.337,268.673 41.337 C 267.873 41.337,267.398 41.181,267.283 40.881 C 267.165 40.574,266.683 40.426,265.805 40.426 C 264.928 40.426,264.446 40.277,264.328 39.970 C 264.200 39.637,263.677 39.514,262.393 39.514 C 260.962 39.514,260.562 39.400,260.253 38.906 C 259.979 38.467,259.544 38.298,258.693 38.298 C 257.923 38.298,257.451 38.139,257.337 37.842 C 257.209 37.508,256.681 37.386,255.361 37.386 C 254.041 37.386,253.514 37.264,253.386 36.930 C 253.257 36.596,252.730 36.474,251.410 36.474 C 250.090 36.474,249.562 36.353,249.434 36.018 C 249.307 35.686,248.783 35.562,247.499 35.562 C 246.068 35.562,245.668 35.449,245.359 34.954 C 245.054 34.466,244.650 34.347,243.301 34.347 C 242.089 34.347,241.574 34.220,241.447 33.891 C 241.312 33.539,240.725 33.435,238.873 33.435 C 236.943 33.435,236.474 33.345,236.474 32.979 C 236.474 32.612,236.005 32.523,234.075 32.523 C 232.223 32.523,231.636 32.419,231.501 32.067 C 231.363 31.708,230.742 31.611,228.592 31.611 C 226.168 31.611,225.820 31.542,225.532 31.003 C 225.244 30.465,224.895 30.395,222.514 30.395 C 220.401 30.395,219.784 30.297,219.647 29.939 C 219.504 29.568,218.772 29.483,215.696 29.483 C 212.619 29.483,211.887 29.399,211.744 29.027 C 211.598 28.646,210.705 28.571,206.314 28.571 C 201.387 28.571,201.034 28.533,200.678 27.964 C 200.313 27.378,176.231 26.999,174.848 27.557 M205.255 42.553 C 205.404 43.120,205.670 43.161,209.210 43.161 C 212.303 43.161,213.037 43.245,213.180 43.617 C 213.321 43.984,214.004 44.073,216.675 44.073 C 219.346 44.073,220.030 44.162,220.171 44.529 C 220.308 44.886,220.924 44.985,223.023 44.985 C 225.325 44.985,225.774 45.070,226.221 45.593 C 226.648 46.092,227.118 46.201,228.840 46.201 C 230.424 46.201,230.981 46.312,231.113 46.657 C 231.247 47.005,231.819 47.112,233.545 47.112 C 235.270 47.112,235.842 47.220,235.976 47.568 C 236.104 47.903,236.632 48.024,237.952 48.024 C 239.272 48.024,239.799 48.146,239.928 48.480 C 240.061 48.828,240.630 48.936,242.324 48.936 C 244.170 48.936,244.634 49.039,245.066 49.544 C 245.397 49.930,245.963 50.152,246.616 50.152 C 247.183 50.152,247.816 50.357,248.024 50.608 C 248.275 50.910,248.956 51.064,250.047 51.064 C 251.228 51.064,251.740 51.192,251.866 51.520 C 251.994 51.854,252.521 51.976,253.841 51.976 C 255.162 51.976,255.689 52.097,255.817 52.432 C 255.934 52.736,256.413 52.888,257.254 52.888 C 258.187 52.888,258.615 53.046,258.896 53.495 C 259.201 53.984,259.605 54.103,260.954 54.103 C 262.166 54.103,262.682 54.230,262.808 54.559 C 262.926 54.866,263.408 55.015,264.286 55.015 C 265.163 55.015,265.646 55.164,265.763 55.471 C 265.882 55.781,266.368 55.927,267.283 55.927 C 268.198 55.927,268.684 56.073,268.803 56.383 C 268.918 56.683,269.393 56.839,270.193 56.839 C 271.096 56.839,271.491 56.995,271.733 57.447 C 271.981 57.912,272.369 58.055,273.382 58.055 C 274.279 58.055,274.763 58.202,274.882 58.511 C 274.998 58.812,275.475 58.967,276.292 58.967 C 277.109 58.967,277.586 59.121,277.702 59.422 C 277.818 59.726,278.297 59.878,279.139 59.878 C 280.072 59.878,280.500 60.037,280.781 60.486 C 281.054 60.925,281.489 61.094,282.341 61.094 C 283.110 61.094,283.583 61.253,283.697 61.550 C 283.793 61.801,284.222 62.006,284.650 62.006 C 285.079 62.006,285.508 62.211,285.604 62.462 C 285.722 62.769,286.204 62.918,287.082 62.918 C 287.960 62.918,288.442 63.067,288.560 63.374 C 288.680 63.686,289.168 63.830,290.112 63.830 C 291.087 63.830,291.489 63.954,291.489 64.253 C 291.489 64.712,292.126 65.046,293.001 65.046 C 293.304 65.046,293.631 65.251,293.727 65.502 C 293.843 65.803,294.319 65.957,295.137 65.957 C 295.954 65.957,296.431 66.112,296.547 66.413 C 296.644 66.668,297.096 66.869,297.568 66.869 C 298.041 66.869,298.493 67.071,298.590 67.325 C 298.705 67.625,299.180 67.781,299.980 67.781 C 300.883 67.781,301.278 67.937,301.520 68.389 C 301.704 68.733,302.156 68.997,302.562 68.997 C 302.956 68.997,303.357 69.202,303.453 69.453 C 303.554 69.714,304.007 69.909,304.517 69.909 C 305.010 69.909,305.481 70.104,305.574 70.346 C 305.674 70.607,306.258 70.822,307.013 70.878 L 308.285 70.973 304.254 75.000 C 302.037 77.215,299.988 79.027,299.700 79.027 C 299.116 79.027,297.568 80.341,297.568 80.837 C 297.568 81.012,297.448 81.155,297.300 81.155 C 296.951 81.155,294.529 83.577,294.529 83.926 C 294.529 84.074,294.324 84.195,294.073 84.195 C 293.822 84.195,293.617 84.400,293.617 84.650 C 293.617 84.939,293.326 85.106,292.823 85.106 C 292.245 85.106,291.507 85.644,290.110 87.082 C 289.055 88.169,287.953 89.058,287.661 89.058 C 287.369 89.058,286.263 89.947,285.203 91.033 C 284.143 92.120,283.029 93.009,282.729 93.009 C 282.428 93.009,281.341 93.898,280.311 94.985 C 278.933 96.441,278.230 96.960,277.642 96.960 C 277.098 96.960,276.792 97.155,276.684 97.568 C 276.596 97.903,276.336 98.176,276.104 98.176 C 275.873 98.176,275.684 98.381,275.684 98.632 C 275.684 98.883,275.479 99.088,275.228 99.088 C 274.977 99.088,274.772 99.293,274.772 99.544 C 274.772 99.833,274.481 100.000,273.980 100.000 C 273.422 100.000,272.765 100.450,271.761 101.520 C 270.976 102.356,270.080 103.040,269.769 103.040 C 269.458 103.040,268.538 103.723,267.724 104.559 C 266.736 105.574,265.994 106.079,265.493 106.079 C 265.080 106.079,264.742 106.216,264.742 106.383 C 264.742 106.894,263.560 107.903,262.962 107.903 C 262.347 107.903,260.790 109.200,260.790 109.712 C 260.790 109.887,260.408 110.030,259.940 110.030 C 259.369 110.030,258.845 110.325,258.344 110.929 C 257.934 111.424,257.316 111.834,256.971 111.841 C 256.625 111.848,255.919 112.333,255.401 112.918 C 254.883 113.503,254.170 113.982,253.816 113.982 C 253.462 113.982,253.094 114.187,252.997 114.438 C 252.901 114.688,252.647 114.894,252.432 114.894 C 252.217 114.894,251.962 115.099,251.866 115.350 C 251.770 115.600,251.420 115.805,251.088 115.805 C 250.756 115.805,250.020 116.284,249.452 116.869 C 248.884 117.454,248.121 117.933,247.756 117.933 C 247.392 117.933,247.015 118.138,246.918 118.389 C 246.822 118.640,246.449 118.845,246.090 118.845 C 245.731 118.845,244.997 119.324,244.460 119.909 C 243.838 120.587,243.205 120.973,242.715 120.973 C 242.233 120.973,241.945 121.143,241.945 121.429 C 241.945 121.725,241.648 121.884,241.095 121.884 C 240.524 121.884,240.000 122.179,239.499 122.783 C 239.089 123.278,238.451 123.688,238.081 123.695 C 237.710 123.702,237.261 123.982,237.082 124.316 C 236.890 124.675,236.446 124.924,235.998 124.924 C 235.581 124.924,235.161 125.129,235.064 125.380 C 234.967 125.634,234.515 125.836,234.043 125.836 C 233.570 125.836,233.118 126.037,233.021 126.292 C 232.925 126.543,232.533 126.748,232.151 126.748 C 231.728 126.748,231.108 127.164,230.569 127.812 C 230.015 128.476,229.412 128.875,228.965 128.875 C 228.571 128.875,228.170 129.081,228.073 129.331 C 227.977 129.582,227.567 129.787,227.162 129.787 C 226.756 129.787,226.346 129.992,226.250 130.243 C 226.154 130.494,225.827 130.699,225.524 130.699 C 224.649 130.699,224.012 131.033,224.012 131.491 C 224.012 131.756,223.682 131.915,223.133 131.915 C 222.632 131.915,222.178 132.111,222.079 132.371 C 221.959 132.683,221.470 132.827,220.526 132.827 C 219.505 132.827,219.149 132.944,219.149 133.283 C 219.149 133.560,218.866 133.739,218.426 133.739 C 218.029 133.739,217.533 133.944,217.325 134.195 C 217.117 134.445,216.689 134.650,216.373 134.650 C 216.058 134.650,215.565 134.924,215.279 135.258 C 214.993 135.593,214.443 135.866,214.057 135.866 C 213.671 135.866,213.276 136.071,213.180 136.322 C 213.061 136.632,212.575 136.778,211.660 136.778 C 210.745 136.778,210.259 136.924,210.140 137.234 C 210.044 137.485,209.634 137.690,209.228 137.690 C 208.823 137.690,208.413 137.895,208.317 138.146 C 208.203 138.443,207.730 138.602,206.961 138.602 C 206.109 138.602,205.674 138.771,205.401 139.210 C 205.117 139.664,204.692 139.818,203.717 139.818 C 202.838 139.818,202.355 139.966,202.238 140.274 C 202.120 140.581,201.637 140.729,200.760 140.729 C 199.882 140.729,199.400 140.878,199.282 141.185 C 199.172 141.472,198.707 141.641,198.031 141.641 C 197.331 141.641,196.773 141.854,196.434 142.249 C 196.064 142.681,195.537 142.857,194.613 142.857 C 193.660 142.857,193.313 142.979,193.313 143.313 C 193.313 143.668,192.907 143.769,191.480 143.769 C 190.131 143.769,189.600 143.889,189.472 144.225 C 189.343 144.559,188.816 144.681,187.496 144.681 C 186.176 144.681,185.649 144.803,185.520 145.137 C 185.387 145.485,184.816 145.593,183.101 145.593 C 181.185 145.593,180.801 145.682,180.477 146.201 C 180.141 146.737,179.768 146.809,177.283 146.809 C 174.983 146.809,174.468 146.892,174.468 147.264 C 174.468 147.659,173.303 147.720,165.805 147.720 C 158.308 147.720,157.143 147.659,157.143 147.264 C 157.143 146.912,156.745 146.809,155.387 146.809 C 154.007 146.809,153.519 146.678,153.110 146.201 C 152.755 145.785,152.213 145.593,151.403 145.593 C 150.629 145.593,150.156 145.434,150.042 145.137 C 149.926 144.835,149.450 144.681,148.632 144.681 C 147.815 144.681,147.338 144.527,147.222 144.225 C 147.125 143.971,146.673 143.769,146.201 143.769 C 145.728 143.769,145.276 143.567,145.179 143.313 C 145.083 143.062,144.688 142.857,144.302 142.857 C 143.916 142.857,143.366 142.584,143.080 142.249 C 142.793 141.915,142.353 141.641,142.102 141.641 C 141.850 141.641,140.946 140.957,140.092 140.122 C 139.239 139.286,138.293 138.602,137.990 138.602 C 137.688 138.602,137.095 138.191,136.673 137.690 C 136.251 137.188,135.760 136.778,135.582 136.778 C 135.404 136.778,135.258 136.573,135.258 136.322 C 135.258 136.071,135.053 135.866,134.802 135.866 C 134.552 135.866,134.347 135.746,134.347 135.598 C 134.347 135.249,131.925 132.827,131.575 132.827 C 131.428 132.827,131.307 132.622,131.307 132.371 C 131.307 132.120,131.102 131.915,130.851 131.915 C 130.600 131.915,130.395 131.784,130.395 131.625 C 130.395 131.248,128.935 129.787,128.558 129.787 C 128.398 129.787,128.267 129.441,128.267 129.017 C 128.267 128.562,127.894 127.882,127.356 127.356 C 126.854 126.865,126.444 126.182,126.444 125.837 C 126.444 125.491,126.239 125.130,125.988 125.034 C 125.737 124.938,125.532 124.557,125.532 124.188 C 125.532 123.802,125.079 123.115,124.468 122.574 C 123.792 121.976,123.404 121.358,123.404 120.879 C 123.404 120.465,123.199 120.047,122.948 119.951 C 122.647 119.835,122.492 119.358,122.492 118.541 C 122.492 117.724,122.338 117.247,122.036 117.131 C 121.786 117.035,121.581 116.709,121.581 116.406 C 121.581 115.530,121.247 114.894,120.788 114.894 C 120.489 114.894,120.365 114.491,120.365 113.516 C 120.365 112.572,120.221 112.084,119.909 111.964 C 119.602 111.846,119.453 111.364,119.453 110.486 C 119.453 109.609,119.304 109.126,118.997 109.009 C 118.653 108.876,118.541 108.320,118.541 106.734 C 118.541 105.238,118.410 104.525,118.085 104.255 C 117.697 103.933,117.629 102.400,117.629 93.921 C 117.629 85.442,117.697 83.909,118.085 83.587 C 118.388 83.336,118.541 82.655,118.541 81.564 C 118.541 80.383,118.669 79.871,118.997 79.745 C 119.304 79.627,119.453 79.145,119.453 78.267 C 119.453 77.390,119.602 76.908,119.909 76.790 C 120.221 76.670,120.365 76.181,120.365 75.238 C 120.365 74.206,120.481 73.860,120.828 73.860 C 121.099 73.860,121.367 73.484,121.473 72.955 C 121.572 72.457,121.842 71.894,122.073 71.702 C 122.304 71.511,122.492 71.044,122.492 70.664 C 122.492 70.284,122.698 69.895,122.948 69.799 C 123.199 69.703,123.404 69.273,123.404 68.845 C 123.404 68.417,123.609 67.987,123.860 67.891 C 124.120 67.791,124.316 67.338,124.316 66.837 C 124.316 66.353,124.447 65.957,124.606 65.957 C 125.117 65.957,126.444 64.430,126.444 63.842 C 126.444 63.078,135.427 54.103,136.192 54.103 C 136.511 54.103,136.944 53.830,137.153 53.495 C 137.361 53.161,137.705 52.888,137.915 52.888 C 138.126 52.888,138.298 52.682,138.298 52.432 C 138.298 52.131,138.598 51.976,139.177 51.976 C 139.678 51.976,140.132 51.780,140.231 51.520 C 140.328 51.269,140.757 51.064,141.185 51.064 C 141.614 51.064,142.043 50.859,142.139 50.608 C 142.236 50.357,142.640 50.152,143.039 50.152 C 143.438 50.152,143.935 49.878,144.143 49.544 C 144.374 49.175,144.852 48.936,145.362 48.936 C 145.905 48.936,146.201 48.775,146.201 48.480 C 146.201 48.142,146.556 48.024,147.578 48.024 C 148.522 48.024,149.010 47.881,149.130 47.568 C 149.243 47.275,149.713 47.112,150.451 47.112 C 151.099 47.112,151.762 46.914,151.976 46.657 C 152.193 46.395,152.856 46.201,153.530 46.201 C 154.377 46.201,154.812 46.030,155.086 45.593 C 155.394 45.098,155.795 44.985,157.226 44.985 C 158.510 44.985,159.033 44.862,159.161 44.529 C 159.294 44.180,159.867 44.073,161.592 44.073 C 163.318 44.073,163.890 43.966,164.024 43.617 C 164.164 43.252,164.830 43.161,167.355 43.161 C 170.182 43.161,170.551 43.098,170.891 42.553 C 171.263 41.957,171.600 41.945,188.184 41.945 C 204.841 41.945,205.099 41.954,205.255 42.553 M354.185 64.742 C 353.899 65.076,353.387 65.352,353.048 65.355 C 352.251 65.362,351.064 66.617,351.064 67.454 C 351.064 67.811,350.859 68.183,350.608 68.279 C 350.253 68.415,350.152 69.019,350.152 71.015 C 350.152 73.010,350.253 73.614,350.608 73.750 C 350.859 73.846,351.064 74.259,351.064 74.667 C 351.064 75.549,352.451 76.876,353.387 76.890 C 353.745 76.895,354.117 77.105,354.213 77.356 C 354.366 77.755,356.984 77.812,375.228 77.812 C 393.472 77.812,396.090 77.755,396.243 77.356 C 396.339 77.105,396.718 76.900,397.084 76.900 C 397.934 76.900,398.480 76.354,398.480 75.504 C 398.480 75.137,398.685 74.758,398.936 74.662 C 399.187 74.566,399.392 74.141,399.392 73.718 C 399.392 73.295,399.529 72.948,399.696 72.948 C 399.865 72.948,400.000 72.138,400.000 71.125 C 400.000 70.111,399.865 69.301,399.696 69.301 C 399.529 69.301,399.392 68.886,399.392 68.380 C 399.392 67.873,399.202 67.385,398.970 67.296 C 398.738 67.207,398.468 66.733,398.370 66.242 C 398.235 65.565,398.023 65.350,397.492 65.350 C 397.107 65.350,396.557 65.076,396.271 64.742 C 395.760 64.145,395.374 64.134,375.228 64.134 C 355.081 64.134,354.696 64.145,354.185 64.742 M328.745 92.604 C 328.984 92.695,329.179 93.081,329.179 93.460 C 329.179 93.840,329.384 94.321,329.635 94.529 C 329.886 94.737,330.091 95.165,330.091 95.481 C 330.091 95.796,330.365 96.289,330.699 96.575 C 331.110 96.926,331.307 97.472,331.307 98.253 C 331.307 99.002,331.468 99.473,331.763 99.586 C 332.017 99.684,332.219 100.136,332.219 100.608 C 332.219 101.080,332.420 101.532,332.675 101.630 C 332.977 101.745,333.131 102.222,333.131 103.040 C 333.131 103.857,333.285 104.334,333.587 104.449 C 333.837 104.546,334.043 104.950,334.043 105.349 C 334.043 105.748,334.316 106.245,334.650 106.454 C 335.100 106.734,335.258 107.162,335.258 108.095 C 335.258 108.937,335.410 109.416,335.714 109.532 C 336.012 109.647,336.170 110.120,336.170 110.895 C 336.170 111.581,336.363 112.244,336.626 112.462 C 336.877 112.670,337.082 113.178,337.082 113.592 C 337.082 114.087,337.289 114.397,337.690 114.502 C 338.182 114.630,338.298 114.916,338.298 116.002 C 338.298 116.915,338.444 117.400,338.754 117.519 C 339.061 117.637,339.210 118.119,339.210 118.997 C 339.210 119.875,339.359 120.357,339.666 120.475 C 339.967 120.590,340.122 121.067,340.122 121.884 C 340.122 122.702,340.276 123.179,340.578 123.294 C 340.875 123.409,341.033 123.881,341.033 124.656 C 341.033 125.466,341.226 126.007,341.641 126.362 C 342.052 126.714,342.249 127.259,342.249 128.041 C 342.249 128.789,342.410 129.260,342.705 129.373 C 343.015 129.492,343.161 129.978,343.161 130.893 C 343.161 131.808,343.307 132.294,343.617 132.413 C 343.911 132.526,344.073 132.996,344.073 133.734 C 344.073 134.382,344.271 135.044,344.529 135.258 C 344.780 135.466,344.985 136.100,344.985 136.666 C 344.985 137.320,345.207 137.886,345.593 138.216 C 346.068 138.623,346.201 139.113,346.201 140.461 C 346.201 141.712,346.325 142.232,346.657 142.359 C 346.958 142.475,347.112 142.952,347.112 143.769 C 347.112 144.586,347.267 145.063,347.568 145.179 C 347.903 145.307,348.024 145.834,348.024 147.155 C 348.024 148.475,348.146 149.002,348.480 149.130 C 348.808 149.256,348.936 149.768,348.936 150.947 C 348.936 152.213,349.075 152.709,349.544 153.110 C 350.019 153.517,350.152 154.007,350.152 155.354 C 350.152 156.606,350.277 157.126,350.608 157.253 C 350.942 157.381,351.064 157.908,351.064 159.228 C 351.064 160.549,351.185 161.076,351.520 161.204 C 351.870 161.338,351.976 161.917,351.976 163.697 C 351.976 165.759,352.043 166.032,352.584 166.173 C 353.105 166.310,353.191 166.588,353.191 168.130 C 353.191 169.448,353.313 169.975,353.647 170.103 C 354.007 170.241,354.103 170.872,354.103 173.100 C 354.103 175.329,354.199 175.960,354.559 176.098 C 354.918 176.235,355.015 176.859,355.015 179.027 C 355.015 181.196,355.112 181.819,355.471 181.957 C 355.841 182.099,355.927 182.814,355.927 185.750 C 355.927 188.992,355.990 189.422,356.535 189.888 C 357.099 190.371,357.143 190.785,357.143 195.628 C 357.143 199.987,357.218 200.876,357.599 201.022 C 357.992 201.173,358.055 202.640,358.055 211.660 C 358.055 220.680,357.992 222.148,357.599 222.298 C 357.221 222.443,357.143 223.271,357.143 227.127 C 357.143 231.404,357.094 231.822,356.535 232.300 C 356.017 232.744,355.927 233.197,355.927 235.375 C 355.927 237.365,355.826 237.968,355.471 238.104 C 355.118 238.239,355.015 238.830,355.015 240.720 C 355.015 242.687,354.927 243.161,354.559 243.161 C 354.204 243.161,354.103 243.567,354.103 244.994 C 354.103 246.344,353.983 246.874,353.647 247.003 C 353.339 247.121,353.191 247.605,353.191 248.502 C 353.191 249.516,353.049 249.903,352.584 250.152 C 352.131 250.394,351.976 250.788,351.976 251.692 C 351.976 252.491,351.820 252.966,351.520 253.082 C 351.265 253.179,351.064 253.631,351.064 254.103 C 351.064 254.576,350.862 255.028,350.608 255.125 C 350.357 255.221,350.152 255.613,350.152 255.996 C 350.152 256.379,349.878 256.864,349.544 257.072 C 349.210 257.281,348.936 257.778,348.936 258.177 C 348.936 258.575,348.731 258.980,348.480 259.076 C 348.229 259.173,348.024 259.602,348.024 260.030 C 348.024 260.459,347.819 260.888,347.568 260.984 C 347.318 261.081,347.112 261.350,347.112 261.583 C 347.112 261.816,346.907 262.006,346.657 262.006 C 346.377 262.006,346.201 262.290,346.201 262.739 C 346.201 263.787,337.039 272.948,335.992 272.948 C 335.542 272.948,335.258 273.125,335.258 273.404 C 335.258 273.655,335.068 273.860,334.835 273.860 C 334.602 273.860,334.333 274.065,334.237 274.316 C 334.140 274.567,333.749 274.772,333.366 274.772 C 332.944 274.772,332.324 275.189,331.784 275.836 C 331.231 276.500,330.628 276.900,330.181 276.900 C 329.787 276.900,329.385 277.105,329.289 277.356 C 329.193 277.606,328.783 277.812,328.377 277.812 C 327.972 277.812,327.562 278.017,327.466 278.267 C 327.347 278.576,326.863 278.723,325.966 278.723 C 324.953 278.723,324.565 278.866,324.316 279.331 C 324.074 279.784,323.680 279.939,322.776 279.939 C 321.977 279.939,321.502 280.095,321.387 280.395 C 321.258 280.729,320.731 280.851,319.411 280.851 C 318.091 280.851,317.563 280.973,317.435 281.307 C 317.294 281.674,316.611 281.763,313.940 281.763 C 311.269 281.763,310.585 281.852,310.444 282.219 C 310.185 282.894,302.277 282.894,302.018 282.219 C 301.875 281.847,301.143 281.763,298.066 281.763 C 294.990 281.763,294.258 281.678,294.115 281.307 C 293.987 280.973,293.460 280.851,292.139 280.851 C 290.819 280.851,290.292 280.729,290.164 280.395 C 290.036 280.062,289.513 279.939,288.229 279.939 C 286.798 279.939,286.397 279.826,286.089 279.331 C 285.880 278.997,285.383 278.723,284.984 278.723 C 284.586 278.723,284.181 278.518,284.085 278.267 C 283.965 277.955,283.476 277.812,282.532 277.812 C 281.511 277.812,281.155 277.694,281.155 277.356 C 281.155 277.061,280.859 276.900,280.316 276.900 C 279.807 276.900,279.329 276.661,279.098 276.292 C 278.889 275.957,278.392 275.684,277.993 275.684 C 277.595 275.684,277.190 275.479,277.094 275.228 C 276.998 274.977,276.636 274.772,276.291 274.772 C 275.946 274.772,275.262 274.362,274.772 273.860 C 274.245 273.321,273.566 272.948,273.111 272.948 C 272.687 272.948,272.340 272.805,272.340 272.630 C 272.340 272.157,270.747 270.841,270.162 270.830 C 269.500 270.818,260.489 261.807,260.477 261.145 C 260.466 260.560,259.150 258.967,258.677 258.967 C 258.502 258.967,258.359 258.571,258.359 258.087 C 258.359 257.586,258.163 257.133,257.903 257.033 C 257.652 256.937,257.447 256.507,257.447 256.079 C 257.447 255.651,257.242 255.221,256.991 255.125 C 256.740 255.029,256.535 254.624,256.535 254.225 C 256.535 253.827,256.261 253.330,255.927 253.121 C 255.558 252.890,255.319 252.412,255.319 251.903 C 255.319 251.360,255.158 251.064,254.863 251.064 C 254.508 251.064,254.407 250.658,254.407 249.231 C 254.407 247.881,254.287 247.351,253.951 247.222 C 253.617 247.094,253.495 246.567,253.495 245.247 C 253.495 243.926,253.374 243.399,253.040 243.271 C 252.647 243.120,252.584 241.692,252.584 232.979 C 252.584 224.266,252.647 222.837,253.040 222.686 C 253.398 222.549,253.495 221.925,253.495 219.757 C 253.495 217.589,253.593 216.965,253.951 216.827 C 254.300 216.693,254.407 216.121,254.407 214.396 C 254.407 212.670,254.515 212.098,254.863 211.964 C 255.197 211.836,255.319 211.311,255.319 210.009 C 255.319 208.539,255.425 208.171,255.927 207.903 C 256.392 207.654,256.535 207.266,256.535 206.253 C 256.535 205.356,256.682 204.872,256.991 204.753 C 257.326 204.625,257.447 204.094,257.447 202.745 C 257.447 201.318,257.548 200.912,257.903 200.912 C 258.240 200.912,258.359 200.558,258.359 199.555 C 258.359 198.509,258.498 198.123,258.967 197.872 C 259.413 197.634,259.574 197.236,259.574 196.379 C 259.574 195.712,259.770 195.049,260.030 194.833 C 260.281 194.625,260.486 194.144,260.486 193.764 C 260.486 193.385,260.691 192.995,260.942 192.899 C 261.255 192.779,261.398 192.291,261.398 191.347 C 261.398 190.325,261.516 189.970,261.854 189.970 C 262.188 189.970,262.310 189.623,262.310 188.675 C 262.310 187.709,262.465 187.284,262.918 187.001 C 263.252 186.792,263.526 186.295,263.526 185.896 C 263.526 185.498,263.731 185.093,263.982 184.996 C 264.233 184.900,264.438 184.471,264.438 184.043 C 264.438 183.614,264.643 183.185,264.894 183.089 C 265.201 182.971,265.350 182.489,265.350 181.611 C 265.350 180.733,265.498 180.251,265.805 180.133 C 266.056 180.037,266.261 179.642,266.261 179.256 C 266.261 178.870,266.535 178.320,266.869 178.034 C 267.204 177.748,267.477 177.234,267.477 176.893 C 267.477 176.552,267.682 176.194,267.933 176.098 C 268.187 176.000,268.389 175.548,268.389 175.076 C 268.389 174.604,268.591 174.152,268.845 174.054 C 269.096 173.958,269.301 173.529,269.301 173.100 C 269.301 172.672,269.506 172.243,269.757 172.146 C 270.011 172.049,270.213 171.597,270.213 171.128 C 270.213 170.539,270.397 170.236,270.821 170.125 C 271.222 170.020,271.429 169.710,271.429 169.215 C 271.429 168.801,271.634 168.293,271.884 168.085 C 272.135 167.877,272.340 167.396,272.340 167.017 C 272.340 166.637,272.546 166.248,272.796 166.151 C 273.047 166.055,273.252 165.654,273.252 165.260 C 273.252 164.813,273.652 164.210,274.316 163.656 C 274.963 163.117,275.380 162.497,275.380 162.074 C 275.380 161.692,275.585 161.300,275.836 161.204 C 276.090 161.107,276.292 160.655,276.292 160.182 C 276.292 159.710,276.493 159.258,276.748 159.161 C 276.998 159.064,277.204 158.704,277.204 158.359 C 277.204 158.014,277.682 157.293,278.267 156.756 C 278.853 156.219,279.331 155.485,279.331 155.126 C 279.331 154.766,279.536 154.394,279.787 154.297 C 280.054 154.195,280.243 153.740,280.243 153.201 C 280.243 152.585,280.394 152.280,280.699 152.280 C 280.950 152.280,281.155 152.074,281.155 151.824 C 281.155 151.573,281.346 151.368,281.578 151.368 C 282.024 151.368,282.362 150.751,282.384 149.899 C 282.391 149.620,282.801 149.057,283.296 148.646 C 283.821 148.211,284.195 147.607,284.195 147.193 C 284.195 146.804,284.400 146.407,284.650 146.311 C 284.910 146.211,285.106 145.757,285.106 145.256 C 285.106 144.773,285.236 144.377,285.395 144.377 C 285.983 144.377,287.234 142.915,287.247 142.214 C 287.254 141.793,287.636 141.177,288.159 140.744 C 288.653 140.334,289.058 139.717,289.058 139.374 C 289.058 139.031,289.536 138.351,290.122 137.863 C 290.707 137.376,291.185 136.699,291.185 136.361 C 291.185 136.015,291.851 135.120,292.705 134.318 C 293.610 133.469,294.225 132.629,294.225 132.242 C 294.225 131.884,294.430 131.513,294.681 131.417 C 294.932 131.321,295.137 131.051,295.137 130.819 C 295.137 130.586,295.342 130.395,295.593 130.395 C 295.873 130.395,296.049 130.110,296.049 129.656 C 296.049 129.168,296.563 128.421,297.567 127.453 C 298.402 126.647,299.086 125.740,299.087 125.436 C 299.087 125.133,299.772 124.218,300.608 123.404 C 301.444 122.590,302.128 121.684,302.128 121.391 C 302.128 121.098,303.017 120.015,304.103 118.986 C 305.344 117.811,306.079 116.871,306.079 116.460 C 306.079 115.894,307.026 114.590,307.436 114.590 C 307.809 114.590,310.016 111.942,310.023 111.487 C 310.027 111.202,311.125 109.887,312.462 108.566 C 313.799 107.244,314.894 105.925,314.894 105.635 C 314.894 105.344,316.467 103.564,318.389 101.678 C 321.086 99.033,321.884 98.068,321.884 97.453 C 321.884 97.015,322.021 96.657,322.188 96.657 C 322.584 96.657,324.924 94.317,324.924 93.921 C 324.924 93.754,325.069 93.617,325.246 93.617 C 325.423 93.617,326.141 92.985,326.841 92.213 C 328.109 90.816,328.116 90.813,328.213 91.623 C 328.267 92.071,328.507 92.512,328.745 92.604 M303.985 96.017 C 303.131 96.807,302.432 97.616,302.432 97.815 C 302.432 98.014,302.288 98.176,302.113 98.176 C 301.634 98.176,300.304 99.716,300.302 100.272 C 300.301 100.829,298.372 103.040,297.888 103.040 C 297.712 103.040,297.568 103.180,297.568 103.353 C 297.568 103.525,297.090 104.086,296.505 104.600 C 295.919 105.114,295.441 105.797,295.441 106.117 C 295.441 106.438,294.757 107.353,293.921 108.150 C 293.085 108.947,292.401 109.833,292.401 110.118 C 292.401 110.403,291.512 111.521,290.426 112.603 C 289.266 113.757,288.450 114.828,288.450 115.197 C 288.450 115.542,288.245 115.903,287.994 116.000 C 287.743 116.096,287.538 116.365,287.538 116.598 C 287.538 116.831,287.333 117.021,287.082 117.021 C 286.831 117.021,286.626 117.226,286.626 117.477 C 286.626 117.728,286.418 117.933,286.163 117.933 C 285.893 117.933,285.624 118.307,285.520 118.829 C 285.421 119.322,284.950 120.108,284.472 120.577 C 283.994 121.045,283.600 121.669,283.595 121.962 C 283.590 122.255,282.903 123.165,282.067 123.984 C 281.231 124.802,280.547 125.695,280.547 125.968 C 280.547 126.241,280.137 126.865,279.635 127.356 C 279.097 127.882,278.723 128.562,278.723 129.017 C 278.723 129.441,278.593 129.787,278.433 129.787 C 277.887 129.787,276.596 131.334,276.583 132.005 C 276.576 132.373,276.165 133.010,275.671 133.420 C 275.177 133.830,274.772 134.447,274.772 134.790 C 274.772 135.133,274.293 135.813,273.708 136.301 C 273.044 136.855,272.644 137.457,272.644 137.904 C 272.644 138.298,272.439 138.700,272.188 138.796 C 271.938 138.892,271.733 139.161,271.733 139.394 C 271.733 139.627,271.524 139.818,271.269 139.818 C 270.999 139.818,270.731 140.192,270.626 140.714 C 270.528 141.206,270.056 141.993,269.578 142.461 C 269.101 142.930,268.706 143.606,268.701 143.964 C 268.697 144.323,268.488 144.695,268.237 144.791 C 267.986 144.887,267.781 145.288,267.781 145.682 C 267.781 146.130,267.381 146.732,266.717 147.286 C 266.070 147.825,265.653 148.445,265.653 148.868 C 265.653 149.250,265.448 149.642,265.198 149.738 C 264.947 149.834,264.742 150.252,264.742 150.666 C 264.742 151.145,264.354 151.763,263.678 152.361 C 263.067 152.902,262.614 153.589,262.614 153.975 C 262.614 154.344,262.409 154.725,262.158 154.821 C 261.907 154.917,261.702 155.347,261.702 155.775 C 261.702 156.204,261.497 156.633,261.246 156.729 C 260.986 156.829,260.790 157.282,260.790 157.783 C 260.790 158.362,260.635 158.663,260.334 158.663 C 260.039 158.663,259.878 158.958,259.878 159.501 C 259.878 160.011,259.640 160.489,259.271 160.720 C 258.936 160.929,258.663 161.426,258.663 161.824 C 258.663 162.223,258.457 162.628,258.207 162.724 C 257.956 162.820,257.751 163.249,257.751 163.678 C 257.751 164.106,257.546 164.535,257.295 164.632 C 257.044 164.728,256.839 165.169,256.839 165.613 C 256.839 166.090,256.591 166.574,256.231 166.799 C 255.897 167.008,255.623 167.505,255.623 167.903 C 255.623 168.302,255.418 168.707,255.167 168.803 C 254.916 168.899,254.711 169.309,254.711 169.715 C 254.711 170.120,254.506 170.530,254.255 170.627 C 253.989 170.729,253.799 171.184,253.799 171.723 C 253.799 172.339,253.648 172.644,253.343 172.644 C 253.048 172.644,252.888 172.940,252.888 173.483 C 252.888 173.993,252.649 174.471,252.280 174.701 C 251.945 174.910,251.672 175.407,251.672 175.806 C 251.672 176.205,251.467 176.609,251.216 176.706 C 250.918 176.820,250.760 177.293,250.760 178.069 C 250.760 178.754,250.567 179.417,250.304 179.635 C 250.053 179.843,249.848 180.324,249.848 180.704 C 249.848 181.083,249.643 181.473,249.392 181.569 C 249.097 181.682,248.936 182.153,248.936 182.902 C 248.936 183.683,248.739 184.229,248.328 184.580 C 247.994 184.866,247.720 185.380,247.720 185.721 C 247.720 186.062,247.515 186.420,247.264 186.516 C 246.957 186.634,246.809 187.116,246.809 187.994 C 246.809 188.872,246.660 189.354,246.353 189.472 C 246.042 189.591,245.897 190.076,245.897 190.991 C 245.897 191.906,245.751 192.392,245.441 192.511 C 245.141 192.626,244.985 193.101,244.985 193.901 C 244.985 194.804,244.829 195.199,244.377 195.441 C 243.912 195.690,243.769 196.077,243.769 197.091 C 243.769 197.988,243.622 198.472,243.313 198.590 C 243.011 198.706,242.857 199.183,242.857 200.000 C 242.857 200.817,242.703 201.294,242.401 201.410 C 242.068 201.538,241.945 202.063,241.945 203.365 C 241.945 204.835,241.839 205.203,241.337 205.471 C 240.843 205.736,240.729 206.108,240.729 207.458 C 240.729 210.248,239.486 211.049,237.912 209.271 C 237.372 208.660,236.684 208.207,236.299 208.207 C 235.929 208.207,235.549 208.002,235.452 207.751 C 235.356 207.500,234.979 207.295,234.615 207.295 C 234.250 207.295,233.487 206.816,232.919 206.231 C 232.351 205.646,231.631 205.167,231.319 205.167 C 231.008 205.167,230.408 204.757,229.986 204.255 C 229.564 203.754,228.937 203.343,228.592 203.343 C 228.238 203.343,227.328 202.682,226.501 201.824 C 225.695 200.988,224.798 200.304,224.508 200.304 C 224.218 200.304,222.692 199.005,221.117 197.416 C 219.542 195.828,218.044 194.529,217.789 194.529 C 217.155 194.529,208.815 186.187,208.815 185.553 C 208.815 185.273,207.720 183.961,206.383 182.638 C 205.046 181.315,203.951 179.987,203.951 179.686 C 203.951 179.385,203.473 178.715,202.888 178.197 C 202.302 177.679,201.824 177.107,201.824 176.926 C 201.824 176.744,201.619 176.596,201.368 176.596 C 201.095 176.596,200.912 176.315,200.912 175.897 C 200.912 175.504,200.450 174.739,199.858 174.150 C 199.278 173.572,198.799 172.856,198.794 172.558 C 198.789 172.260,198.374 171.615,197.872 171.125 C 197.371 170.634,196.960 169.988,196.960 169.689 C 196.960 169.390,196.482 168.705,195.897 168.168 C 195.312 167.631,194.833 166.910,194.833 166.565 C 194.833 166.220,194.628 165.860,194.377 165.763 C 194.126 165.667,193.921 165.413,193.921 165.198 C 193.921 164.983,193.716 164.728,193.465 164.632 C 193.214 164.535,193.009 164.098,193.009 163.659 C 193.009 163.117,192.814 162.810,192.401 162.702 C 191.977 162.591,191.793 162.287,191.793 161.699 C 191.793 161.229,191.591 160.778,191.337 160.680 C 191.051 160.571,190.881 160.106,190.881 159.432 L 190.881 158.359 192.715 158.359 C 194.064 158.359,194.594 158.238,194.723 157.903 C 194.849 157.575,195.361 157.447,196.540 157.447 C 197.806 157.447,198.301 157.308,198.703 156.839 C 199.054 156.428,199.599 156.231,200.381 156.231 C 201.130 156.231,201.601 156.070,201.714 155.775 C 201.842 155.441,202.369 155.319,203.689 155.319 C 205.010 155.319,205.537 155.197,205.665 154.863 C 205.785 154.552,206.272 154.407,207.204 154.407 C 208.312 154.407,208.597 154.293,208.727 153.799 C 208.837 153.376,209.141 153.191,209.729 153.191 C 210.199 153.191,210.651 152.989,210.748 152.736 C 210.864 152.434,211.341 152.280,212.158 152.280 C 212.975 152.280,213.452 152.125,213.568 151.824 C 213.687 151.514,214.173 151.368,215.088 151.368 C 216.003 151.368,216.488 151.222,216.607 150.912 C 216.704 150.661,217.109 150.456,217.507 150.456 C 217.906 150.456,218.403 150.182,218.612 149.848 C 218.842 149.479,219.320 149.240,219.830 149.240 C 220.373 149.240,220.669 149.079,220.669 148.784 C 220.669 148.446,221.024 148.328,222.046 148.328 C 222.990 148.328,223.478 148.185,223.598 147.872 C 223.695 147.622,224.105 147.416,224.510 147.416 C 224.915 147.416,225.326 147.211,225.422 146.960 C 225.518 146.710,225.845 146.505,226.147 146.505 C 227.023 146.505,227.660 146.171,227.660 145.712 C 227.660 145.448,227.990 145.289,228.539 145.289 C 229.040 145.289,229.493 145.093,229.593 144.833 C 229.689 144.582,230.119 144.377,230.547 144.377 C 230.976 144.377,231.405 144.172,231.501 143.921 C 231.597 143.670,231.987 143.465,232.366 143.465 C 232.746 143.465,233.213 143.276,233.404 143.046 C 233.596 142.815,234.160 142.545,234.657 142.445 C 235.187 142.340,235.562 142.072,235.562 141.801 C 235.562 141.492,235.856 141.337,236.442 141.337 C 236.943 141.337,237.396 141.141,237.496 140.881 C 237.592 140.631,238.021 140.426,238.450 140.426 C 238.878 140.426,239.308 140.220,239.404 139.970 C 239.500 139.719,239.905 139.514,240.303 139.514 C 240.702 139.514,241.199 139.240,241.408 138.906 C 241.639 138.536,242.117 138.298,242.626 138.298 C 243.169 138.298,243.465 138.137,243.465 137.842 C 243.465 137.545,243.762 137.386,244.315 137.386 C 244.886 137.386,245.410 137.091,245.911 136.487 C 246.321 135.993,246.963 135.582,247.338 135.575 C 247.713 135.568,248.190 135.289,248.399 134.954 C 248.629 134.585,249.108 134.347,249.617 134.347 C 250.160 134.347,250.456 134.186,250.456 133.891 C 250.456 133.605,250.744 133.435,251.226 133.435 C 251.681 133.435,252.361 133.062,252.888 132.523 C 253.378 132.021,253.977 131.611,254.219 131.611 C 254.461 131.611,255.152 131.132,255.755 130.547 C 256.357 129.962,257.125 129.483,257.462 129.483 C 257.798 129.483,258.153 129.278,258.249 129.027 C 258.345 128.777,258.717 128.567,259.075 128.562 C 259.772 128.552,261.398 127.291,261.398 126.762 C 261.398 126.587,261.745 126.444,262.168 126.444 C 262.623 126.444,263.303 126.071,263.830 125.532 C 264.320 125.030,264.966 124.620,265.265 124.620 C 265.564 124.620,266.208 124.141,266.696 123.556 C 267.199 122.953,267.862 122.492,268.228 122.492 C 268.583 122.492,269.209 122.088,269.619 121.593 C 270.029 121.099,270.593 120.689,270.872 120.682 C 271.724 120.660,272.340 120.322,272.340 119.876 C 272.340 119.643,272.546 119.453,272.796 119.453 C 273.047 119.453,273.252 119.248,273.252 118.997 C 273.252 118.746,273.443 118.541,273.676 118.541 C 273.909 118.541,274.178 118.336,274.274 118.085 C 274.370 117.834,274.762 117.629,275.144 117.629 C 275.567 117.629,276.187 117.212,276.726 116.565 C 277.214 115.980,277.887 115.502,278.220 115.502 C 278.554 115.502,279.417 114.886,280.138 114.134 C 280.859 113.381,281.685 112.766,281.973 112.766 C 282.262 112.766,283.150 112.082,283.947 111.246 C 284.744 110.410,285.594 109.726,285.835 109.726 C 286.605 109.726,287.234 109.370,287.234 108.934 C 287.234 108.701,287.439 108.511,287.690 108.511 C 287.941 108.511,288.146 108.305,288.146 108.055 C 288.146 107.804,288.351 107.599,288.602 107.599 C 288.853 107.599,289.058 107.450,289.058 107.268 C 289.058 106.802,290.325 105.797,290.927 105.785 C 291.202 105.780,292.126 105.091,292.980 104.255 C 293.834 103.419,294.762 102.736,295.042 102.736 C 295.323 102.736,296.684 101.573,298.067 100.152 C 299.450 98.731,300.806 97.568,301.079 97.568 C 301.352 97.568,302.415 96.737,303.440 95.722 C 304.465 94.706,305.357 94.034,305.422 94.228 C 305.486 94.422,304.840 95.227,303.985 96.017 M136.855 155.319 C 137.279 155.319,137.704 155.524,137.800 155.775 C 137.896 156.026,138.288 156.231,138.671 156.231 C 139.054 156.231,139.538 156.505,139.747 156.839 C 139.956 157.173,140.453 157.447,140.852 157.447 C 141.250 157.447,141.655 157.652,141.751 157.903 C 141.870 158.213,142.356 158.359,143.271 158.359 C 144.186 158.359,144.672 158.504,144.791 158.815 C 144.907 159.116,145.383 159.271,146.201 159.271 C 147.018 159.271,147.495 159.425,147.610 159.726 C 147.738 160.058,148.257 160.182,149.509 160.182 C 150.857 160.182,151.346 160.315,151.753 160.790 C 152.209 161.322,152.650 161.398,155.279 161.398 C 157.580 161.398,158.373 161.505,158.663 161.854 C 158.978 162.235,160.169 162.310,165.852 162.310 C 171.626 162.310,172.690 162.241,172.838 161.854 C 173.314 160.615,176.292 161.785,176.292 163.211 C 176.292 163.540,176.565 163.955,176.900 164.134 C 177.258 164.326,177.508 164.770,177.508 165.218 C 177.508 165.635,177.713 166.055,177.964 166.151 C 178.218 166.249,178.419 166.701,178.419 167.173 C 178.419 167.646,178.621 168.097,178.875 168.195 C 179.126 168.291,179.331 168.683,179.331 169.065 C 179.331 169.488,179.748 170.108,180.395 170.647 C 181.059 171.201,181.459 171.803,181.459 172.251 C 181.459 172.645,181.664 173.046,181.915 173.142 C 182.175 173.242,182.371 173.695,182.371 174.197 C 182.371 174.680,182.520 175.076,182.702 175.076 C 183.173 175.076,184.172 176.347,184.184 176.961 C 184.190 177.246,184.673 177.943,185.258 178.512 C 185.843 179.080,186.322 179.811,186.322 180.136 C 186.322 180.461,186.727 181.063,187.221 181.473 C 187.716 181.883,188.126 182.487,188.133 182.814 C 188.140 183.142,188.830 184.062,189.666 184.859 C 190.502 185.656,191.190 186.551,191.195 186.847 C 191.206 187.457,192.509 189.058,192.995 189.058 C 193.170 189.058,193.313 189.263,193.313 189.514 C 193.313 189.764,193.518 189.970,193.769 189.970 C 194.020 189.970,194.225 190.160,194.225 190.393 C 194.225 190.626,194.430 190.895,194.681 190.991 C 194.932 191.088,195.137 191.442,195.137 191.780 C 195.137 192.750,210.419 207.903,211.397 207.903 C 211.871 207.903,212.158 208.075,212.158 208.359 C 212.158 208.609,212.363 208.815,212.614 208.815 C 212.865 208.815,213.070 208.970,213.070 209.160 C 213.070 209.565,214.491 210.942,214.909 210.942 C 215.068 210.942,215.198 211.086,215.198 211.261 C 215.198 211.752,216.743 213.070,217.319 213.070 C 217.601 213.070,218.231 213.476,218.718 213.973 C 219.206 214.470,219.856 214.881,220.163 214.885 C 220.470 214.890,221.144 215.372,221.662 215.957 C 222.180 216.543,222.887 217.027,223.232 217.034 C 223.578 217.041,224.196 217.452,224.606 217.946 C 225.107 218.550,225.630 218.845,226.202 218.845 C 226.755 218.845,227.052 219.004,227.052 219.301 C 227.052 219.552,227.241 219.757,227.472 219.757 C 227.703 219.757,227.964 220.030,228.052 220.365 C 228.166 220.801,228.466 220.973,229.118 220.973 C 229.645 220.973,230.100 221.164,230.201 221.429 C 230.297 221.679,230.663 221.884,231.014 221.884 C 231.365 221.884,232.103 222.363,232.655 222.948 C 233.207 223.533,233.935 224.012,234.274 224.012 C 234.612 224.012,234.968 224.217,235.064 224.468 C 235.161 224.719,235.590 224.924,236.018 224.924 C 236.447 224.924,236.876 225.129,236.972 225.380 C 237.068 225.631,237.338 225.836,237.571 225.836 C 237.924 225.836,237.994 227.473,237.994 235.714 C 237.994 244.292,238.054 245.593,238.450 245.593 C 238.817 245.593,238.906 246.067,238.906 248.034 C 238.906 249.923,239.009 250.515,239.362 250.650 C 239.655 250.763,239.818 251.233,239.818 251.971 C 239.818 252.619,240.016 253.282,240.274 253.495 C 240.524 253.704,240.729 254.337,240.729 254.903 C 240.729 255.557,240.952 256.123,241.337 256.454 C 241.672 256.740,241.945 257.290,241.945 257.676 C 241.945 258.062,242.150 258.456,242.401 258.553 C 242.708 258.671,242.857 259.153,242.857 260.030 C 242.857 260.908,243.006 261.390,243.313 261.508 C 243.596 261.616,243.769 262.079,243.769 262.724 C 243.769 263.369,243.596 263.831,243.313 263.940 C 243.062 264.036,242.857 264.324,242.857 264.580 C 242.857 264.836,242.652 265.046,242.401 265.046 C 242.150 265.046,241.945 265.251,241.945 265.502 C 241.945 265.752,241.804 265.957,241.631 265.957 C 241.458 265.957,240.916 266.368,240.426 266.869 C 239.935 267.371,239.338 267.781,239.099 267.781 C 238.859 267.781,237.965 268.465,237.111 269.301 C 236.258 270.137,235.320 270.821,235.027 270.821 C 234.734 270.821,234.055 271.299,233.518 271.884 C 232.895 272.563,232.263 272.948,231.772 272.948 C 231.291 272.948,231.003 273.119,231.003 273.404 C 231.003 273.753,230.618 273.860,229.364 273.860 C 228.187 273.860,227.675 273.732,227.550 273.404 C 227.416 273.057,226.848 272.948,225.159 272.948 C 223.272 272.948,222.886 272.858,222.563 272.340 C 222.290 271.903,221.854 271.733,221.007 271.733 C 220.333 271.733,219.670 271.538,219.453 271.277 C 219.204 270.977,218.526 270.821,217.473 270.821 C 216.329 270.821,215.820 270.690,215.696 270.365 C 215.577 270.055,215.091 269.909,214.176 269.909 C 213.261 269.909,212.775 269.763,212.656 269.453 C 212.543 269.158,212.072 268.997,211.323 268.997 C 210.542 268.997,209.996 268.799,209.645 268.389 C 209.290 267.974,208.748 267.781,207.938 267.781 C 207.164 267.781,206.691 267.623,206.577 267.325 C 206.481 267.074,206.070 266.869,205.665 266.869 C 205.260 266.869,204.850 266.664,204.753 266.413 C 204.657 266.163,204.228 265.957,203.799 265.957 C 203.371 265.957,202.942 265.752,202.845 265.502 C 202.729 265.198,202.250 265.046,201.408 265.046 C 200.475 265.046,200.047 264.887,199.767 264.438 C 199.558 264.103,199.061 263.830,198.662 263.830 C 198.264 263.830,197.859 263.625,197.762 263.374 C 197.666 263.123,197.237 262.918,196.809 262.918 C 196.380 262.918,195.951 262.713,195.855 262.462 C 195.755 262.202,195.302 262.006,194.800 262.006 C 194.317 262.006,193.921 261.863,193.921 261.688 C 193.921 261.158,192.294 259.898,191.598 259.888 C 191.240 259.883,190.868 259.673,190.772 259.422 C 190.675 259.172,190.246 258.967,189.818 258.967 C 189.389 258.967,188.960 258.761,188.864 258.511 C 188.767 258.260,188.396 258.050,188.037 258.045 C 187.679 258.040,186.914 257.561,186.337 256.981 C 185.747 256.388,184.982 255.927,184.589 255.927 C 184.171 255.927,183.891 255.744,183.891 255.471 C 183.891 255.220,183.700 255.015,183.467 255.015 C 183.234 255.015,182.965 254.810,182.869 254.559 C 182.773 254.309,182.420 254.103,182.085 254.103 C 181.751 254.103,180.811 253.419,179.996 252.584 C 179.182 251.748,178.274 251.064,177.978 251.064 C 177.681 251.064,176.576 250.175,175.521 249.088 C 174.466 248.002,173.363 247.112,173.071 247.112 C 172.778 247.112,170.772 245.334,168.613 243.161 C 166.454 240.988,164.563 239.210,164.410 239.210 C 164.258 239.210,164.134 239.052,164.134 238.859 C 164.134 238.445,161.809 236.170,161.385 236.170 C 161.225 236.170,161.094 236.039,161.094 235.879 C 161.094 235.456,158.820 233.131,158.406 233.131 C 158.213 233.131,158.055 232.940,158.055 232.707 C 158.055 232.474,157.850 232.205,157.599 232.109 C 157.348 232.013,157.143 231.635,157.143 231.270 C 157.143 230.847,156.425 229.926,155.167 228.734 C 154.081 227.705,153.191 226.610,153.191 226.301 C 153.191 225.992,152.508 225.073,151.672 224.259 C 150.657 223.271,150.152 222.529,150.152 222.028 C 150.152 221.563,149.978 221.277,149.696 221.277 C 149.445 221.277,149.240 221.086,149.240 220.853 C 149.240 220.620,149.035 220.351,148.784 220.255 C 148.533 220.159,148.328 219.767,148.328 219.385 C 148.328 218.962,147.912 218.342,147.264 217.803 C 146.661 217.300,146.201 216.636,146.201 216.270 C 146.201 215.915,145.796 215.289,145.302 214.879 C 144.807 214.469,144.397 213.827,144.390 213.452 C 144.383 213.078,144.103 212.600,143.769 212.391 C 143.400 212.161,143.161 211.683,143.161 211.173 C 143.161 210.630,143.000 210.334,142.705 210.334 C 142.409 210.334,142.249 210.037,142.249 209.484 C 142.249 208.913,141.954 208.389,141.350 207.888 C 140.856 207.478,140.445 206.836,140.438 206.462 C 140.431 206.087,140.152 205.609,139.818 205.401 C 139.483 205.192,139.210 204.708,139.210 204.325 C 139.210 203.942,139.005 203.550,138.754 203.453 C 138.499 203.356,138.298 202.904,138.298 202.432 C 138.298 201.959,138.096 201.507,137.842 201.410 C 137.591 201.314,137.386 200.884,137.386 200.456 C 137.386 200.028,137.181 199.598,136.930 199.502 C 136.679 199.406,136.474 199.001,136.474 198.602 C 136.474 198.204,136.201 197.707,135.866 197.498 C 135.413 197.215,135.258 196.789,135.258 195.824 C 135.258 194.875,135.136 194.529,134.802 194.529 C 134.497 194.529,134.347 194.224,134.347 193.607 C 134.347 193.069,134.157 192.613,133.891 192.511 C 133.640 192.415,133.435 192.026,133.435 191.646 C 133.435 191.266,133.229 190.786,132.979 190.578 C 132.728 190.369,132.523 189.736,132.523 189.170 C 132.523 188.516,132.301 187.950,131.915 187.619 C 131.504 187.268,131.307 186.723,131.307 185.941 C 131.307 185.192,131.146 184.722,130.851 184.608 C 130.590 184.508,130.395 184.054,130.395 183.545 C 130.395 183.035,130.201 182.581,129.939 182.481 C 129.642 182.367,129.483 181.894,129.483 181.125 C 129.483 180.274,129.314 179.839,128.875 179.565 C 128.426 179.284,128.267 178.856,128.267 177.923 C 128.267 177.081,128.116 176.602,127.812 176.486 C 127.476 176.357,127.356 175.827,127.356 174.478 C 127.356 173.051,127.255 172.644,126.900 172.644 C 126.545 172.644,126.444 172.238,126.444 170.811 C 126.444 169.462,126.323 168.932,125.988 168.803 C 125.249 168.519,125.489 167.382,126.457 166.580 C 126.951 166.170,127.356 165.554,127.356 165.211 C 127.356 164.848,127.990 164.018,128.875 163.222 C 130.001 162.211,130.395 161.639,130.395 161.019 C 130.395 160.478,130.556 160.182,130.851 160.182 C 131.102 160.182,131.307 159.977,131.307 159.726 C 131.307 159.476,131.428 159.271,131.575 159.271 C 131.925 159.271,134.347 156.849,134.347 156.499 C 134.347 156.352,134.552 156.231,134.802 156.231 C 135.112 156.231,135.261 155.914,135.268 155.243 C 135.277 154.357,135.319 154.310,135.681 154.787 C 135.904 155.080,136.432 155.319,136.855 155.319 M117.426 189.108 C 117.767 189.299,117.933 189.788,117.933 190.602 C 117.933 191.398,118.089 191.872,118.389 191.987 C 118.649 192.087,118.845 192.540,118.845 193.042 C 118.845 193.621,119.001 193.921,119.301 193.921 C 119.639 193.921,119.757 194.277,119.757 195.298 C 119.757 196.242,119.900 196.731,120.213 196.851 C 120.464 196.947,120.669 197.352,120.669 197.750 C 120.669 198.149,120.942 198.646,121.277 198.855 C 121.636 199.079,121.884 199.564,121.884 200.041 C 121.884 200.484,122.090 200.926,122.340 201.022 C 122.591 201.118,122.796 201.547,122.796 201.976 C 122.796 202.404,123.002 202.833,123.252 202.930 C 123.546 203.042,123.708 203.512,123.708 204.251 C 123.708 204.899,123.906 205.561,124.164 205.775 C 124.415 205.983,124.620 206.412,124.620 206.727 C 124.620 207.043,124.894 207.535,125.228 207.821 C 125.562 208.108,125.836 208.626,125.836 208.972 C 125.836 209.319,126.240 209.939,126.735 210.349 C 127.229 210.759,127.640 211.385,127.647 211.741 C 127.654 212.097,127.865 212.558,128.116 212.766 C 128.366 212.974,128.571 213.400,128.571 213.712 C 128.571 214.025,128.845 214.451,129.179 214.660 C 129.539 214.885,129.787 215.369,129.787 215.846 C 129.787 216.289,129.992 216.731,130.243 216.827 C 130.494 216.923,130.699 217.325,130.699 217.719 C 130.699 218.166,131.099 218.769,131.763 219.322 C 132.410 219.862,132.827 220.482,132.827 220.904 C 132.827 221.287,133.032 221.678,133.283 221.775 C 133.533 221.871,133.744 222.311,133.751 222.753 C 133.760 223.262,134.094 223.829,134.663 224.302 C 135.158 224.712,135.562 225.287,135.562 225.579 C 135.562 225.871,136.041 226.575,136.626 227.144 C 137.211 227.712,137.690 228.424,137.690 228.726 C 137.690 229.029,138.374 229.942,139.210 230.756 C 140.224 231.744,140.729 232.486,140.729 232.988 C 140.729 233.401,140.873 233.739,141.049 233.739 C 141.605 233.739,143.402 235.930,143.581 236.828 C 143.680 237.322,143.951 237.690,144.217 237.690 C 144.472 237.690,144.681 237.821,144.681 237.981 C 144.681 238.404,146.955 240.729,147.369 240.729 C 147.562 240.729,147.720 240.920,147.720 241.153 C 147.720 241.386,147.926 241.655,148.176 241.751 C 148.427 241.847,148.632 242.203,148.632 242.541 C 148.632 243.295,161.718 256.535,162.463 256.535 C 162.740 256.535,164.127 257.698,165.545 259.119 C 167.037 260.614,168.375 261.702,168.721 261.702 C 169.051 261.702,169.399 261.907,169.495 262.158 C 169.591 262.409,169.860 262.614,170.093 262.614 C 170.326 262.614,170.517 262.819,170.517 263.070 C 170.517 263.321,170.689 263.526,170.900 263.526 C 171.110 263.526,171.453 263.799,171.662 264.134 C 171.871 264.468,172.291 264.742,172.596 264.742 C 172.901 264.742,173.550 265.148,174.037 265.645 C 174.525 266.142,175.161 266.552,175.450 266.557 C 175.740 266.562,176.470 267.044,177.072 267.629 C 177.675 268.214,178.366 268.693,178.608 268.693 C 178.850 268.693,179.449 269.103,179.939 269.605 C 180.466 270.144,181.146 270.517,181.601 270.517 C 182.083 270.517,182.371 270.687,182.371 270.973 C 182.371 271.258,182.659 271.429,183.140 271.429 C 183.631 271.429,184.263 271.814,184.886 272.492 C 185.423 273.078,186.156 273.556,186.516 273.556 C 186.875 273.556,187.248 273.761,187.344 274.012 C 187.440 274.263,187.869 274.468,188.298 274.468 C 188.726 274.468,189.156 274.673,189.252 274.924 C 189.348 275.175,189.790 275.380,190.233 275.380 C 190.710 275.380,191.194 275.628,191.419 275.988 C 191.628 276.322,192.125 276.596,192.523 276.596 C 192.922 276.596,193.327 276.801,193.423 277.052 C 193.543 277.364,194.031 277.508,194.975 277.508 C 195.997 277.508,196.353 277.625,196.353 277.964 C 196.353 278.267,196.657 278.419,197.264 278.419 C 197.841 278.419,198.176 278.575,198.176 278.843 C 198.176 279.302,198.813 279.635,199.688 279.635 C 199.991 279.635,200.318 279.840,200.414 280.091 C 200.530 280.393,201.006 280.547,201.824 280.547 C 202.641 280.547,203.118 280.701,203.234 281.003 C 203.351 281.310,203.834 281.459,204.711 281.459 C 205.589 281.459,206.071 281.608,206.189 281.915 C 206.309 282.227,206.797 282.371,207.741 282.371 C 208.755 282.371,209.119 282.490,209.119 282.821 C 209.119 283.250,209.532 283.418,211.246 283.688 C 211.682 283.757,211.450 283.825,210.705 283.849 C 209.858 283.876,209.342 284.050,209.228 284.347 C 209.109 284.657,208.624 284.802,207.709 284.802 C 206.794 284.802,206.308 284.948,206.189 285.258 C 206.076 285.552,205.606 285.714,204.868 285.714 C 204.220 285.714,203.557 285.912,203.343 286.170 C 203.080 286.487,202.382 286.626,201.051 286.626 C 198.865 286.626,198.176 286.816,198.176 287.419 C 198.176 287.743,197.641 287.842,195.887 287.842 C 194.133 287.842,193.557 287.948,193.423 288.298 C 193.282 288.665,192.599 288.754,189.928 288.754 C 187.256 288.754,186.573 288.843,186.432 289.210 C 186.282 289.602,184.920 289.666,176.748 289.666 C 168.575 289.666,167.214 289.602,167.063 289.210 C 166.921 288.838,166.188 288.754,163.112 288.754 C 160.036 288.754,159.303 288.669,159.161 288.298 C 159.023 287.940,158.408 287.842,156.308 287.842 C 154.007 287.842,153.557 287.757,153.110 287.234 C 152.683 286.735,152.213 286.626,150.496 286.626 C 149.006 286.626,148.294 286.495,148.024 286.170 C 147.776 285.870,147.097 285.714,146.044 285.714 C 144.900 285.714,144.392 285.584,144.267 285.258 C 144.138 284.922,143.607 284.802,142.249 284.802 C 140.892 284.802,140.360 284.682,140.231 284.347 C 140.115 284.043,139.636 283.891,138.794 283.891 C 137.861 283.891,137.433 283.732,137.153 283.283 C 136.879 282.844,136.444 282.675,135.592 282.675 C 134.823 282.675,134.351 282.516,134.237 282.219 C 134.118 281.909,133.632 281.763,132.717 281.763 C 131.802 281.763,131.316 281.617,131.197 281.307 C 131.081 281.005,130.605 280.851,129.787 280.851 C 128.970 280.851,128.493 280.697,128.377 280.395 C 128.261 280.091,127.782 279.939,126.940 279.939 C 126.007 279.939,125.579 279.781,125.299 279.331 C 125.090 278.997,124.593 278.723,124.194 278.723 C 123.795 278.723,123.391 278.518,123.294 278.267 C 123.198 278.017,122.807 277.809,122.426 277.806 C 121.370 277.798,120.365 276.552,120.365 275.252 C 120.365 274.548,120.199 274.081,119.909 273.970 C 119.599 273.851,119.453 273.365,119.453 272.450 C 119.453 271.535,119.307 271.050,118.997 270.931 C 118.703 270.818,118.541 270.348,118.541 269.610 C 118.541 268.962,118.343 268.299,118.085 268.085 C 117.834 267.877,117.629 267.243,117.629 266.677 C 117.629 266.024,117.407 265.457,117.021 265.127 C 116.611 264.776,116.413 264.230,116.413 263.449 C 116.413 262.700,116.252 262.229,115.957 262.116 C 115.647 261.997,115.502 261.511,115.502 260.596 C 115.502 259.681,115.356 259.196,115.046 259.076 C 114.712 258.949,114.590 258.423,114.590 257.121 C 114.590 255.652,114.483 255.284,113.982 255.015 C 113.478 254.746,113.374 254.379,113.374 252.877 C 113.374 251.468,113.272 251.064,112.918 251.064 C 112.551 251.064,112.462 250.595,112.462 248.665 C 112.462 246.813,112.358 246.226,112.006 246.091 C 111.656 245.957,111.550 245.380,111.550 243.617 C 111.550 241.854,111.444 241.278,111.094 241.143 C 110.726 241.002,110.638 240.306,110.638 237.530 C 110.638 233.845,110.510 233.131,109.846 233.131 C 109.057 233.131,109.237 213.332,110.030 212.836 C 110.585 212.490,110.638 212.128,110.638 208.693 C 110.638 205.627,110.723 204.896,111.094 204.753 C 111.443 204.620,111.550 204.047,111.550 202.322 C 111.550 200.596,111.657 200.024,112.006 199.890 C 112.340 199.762,112.462 199.235,112.462 197.914 C 112.462 196.594,112.584 196.067,112.918 195.939 C 113.218 195.824,113.374 195.348,113.374 194.549 C 113.374 193.646,113.530 193.251,113.982 193.009 C 114.447 192.760,114.590 192.373,114.590 191.359 C 114.590 190.462,114.737 189.978,115.046 189.860 C 115.337 189.748,115.502 189.279,115.502 188.561 C 115.502 186.781,116.507 186.020,116.742 187.622 C 116.840 188.283,117.148 188.952,117.426 189.108 M4.027 242.147 C 3.818 242.231,3.647 242.494,3.647 242.730 C 3.647 242.985,3.343 243.161,2.903 243.161 C 1.963 243.161,0.608 244.393,0.608 245.248 C 0.608 245.605,0.471 245.897,0.304 245.897 C 0.117 245.897,0.000 247.416,0.000 249.848 C 0.000 252.021,0.114 253.799,0.253 253.799 C 0.393 253.799,0.906 254.206,1.393 254.703 C 1.881 255.200,2.573 255.610,2.931 255.615 C 3.289 255.619,3.661 255.828,3.757 256.079 C 3.894 256.434,4.497 256.535,6.493 256.535 C 8.489 256.535,9.092 256.434,9.228 256.079 C 9.325 255.828,9.696 255.623,10.054 255.623 C 10.890 255.623,12.146 254.436,12.153 253.639 C 12.156 253.300,12.432 252.788,12.766 252.502 C 13.290 252.053,13.374 251.605,13.374 249.246 C 13.374 246.839,13.301 246.464,12.766 246.130 C 12.432 245.921,12.158 245.437,12.158 245.054 C 12.158 244.671,11.953 244.279,11.702 244.183 C 11.451 244.087,11.246 243.817,11.246 243.585 C 11.246 243.325,10.922 243.161,10.407 243.161 C 9.898 243.161,9.420 242.923,9.189 242.553 C 8.818 241.959,5.200 241.674,4.027 242.147 " stroke="none" fill="#fcb444" fill-rule="evenodd"></path><path id="path1" d="" stroke="none" fill="#100b444" fill-rule="evenodd"></path><path id="path2" d="" stroke="none" fill="#100b444" fill-rule="evenodd"></path><path id="path3" d="" stroke="none" fill="#100b444" fill-rule="evenodd"></path><path id="path4" d="" stroke="none" fill="#100b444" fill-rule="evenodd"></path></g></svg>