<?xml version="1.0" encoding="utf-8"?>
<!-- Generator: Adobe Illustrator 23.0.0, SVG Export Plug-In . SVG Version: 6.00 Build 0)  -->
<svg version="1.1" id="Calque_1" xmlns="http://www.w3.org/2000/svg" xmlns:xlink="http://www.w3.org/1999/xlink" x="0px" y="0px"
	 viewBox="0 0 513.7 189.6" style="enable-background:new 0 0 513.7 189.6;" xml:space="preserve">
<style type="text/css">
	.st0{fill:#FFFFFF;stroke:#FFFFFF;stroke-width:2;stroke-miterlimit:10;}
</style>
<g>
	<g>
		<g>
			<g>
				<path class="st0" d="M68.8,143.3c-0.7,0-1.5-0.6-1.8-1.2c-7.4-18-5.5-33.3,5.8-45.2c0.7-0.7,1.9-0.7,2.7-0.1
					c0.7,0.7,0.7,1.9,0.1,2.7c-10.1,10.7-11.8,24.6-4.9,41.1c0.4,1,0,2.1-1,2.7C69.4,143.3,69.1,143.3,68.8,143.3z"/>
				<path class="st0" d="M88.3,147.6c-6.3,0-12.9-1.5-20.2-4.5c-1-0.4-1.5-1.6-1-2.7c0.4-1,1.6-1.5,2.7-1
					c16.5,6.8,30.2,5.1,41.1-4.9c0.7-0.7,2.1-0.6,2.7,0.1c0.7,0.7,0.6,2.1-0.1,2.7C106.1,144.2,97.8,147.6,88.3,147.6z"/>
				<path class="st0" d="M91.4,64.6c14.7,0,30.2,5.8,39,9.5c-8.2,7.4-26.5,22.8-43.9,24.6c-0.6,0-1.3,0.1-1.8,0.1
					c-9.5,0-14.3-7.6-15.5-14c-1.2-7.1,1.2-16.2,11.6-18.9C84.1,65,87.5,64.6,91.4,64.6 M136.2,79.8c4.6,10.4,12.6,32.6,8.3,49.7
					c-2.7,10.7-11.8,11.9-15.5,11.9c-1.2,0-2.2-0.1-3.4-0.3c-7.1-1.2-14.9-6.4-13.8-17.3C113.4,106.2,128.6,87.9,136.2,79.8
					 M91.4,60.7c-3.9,0-7.9,0.4-11.5,1.3c-12.4,3.1-16.2,14-14.6,23.5c1.6,8.9,8.2,17.3,19.3,17.3c0.7,0,1.5,0,2.2-0.1
					c20.5-1.9,41.5-20.7,48.8-28c-7.3,7.3-26,28.3-28,48.8c-1.2,12.6,7.7,19.9,17.1,21.6c1.3,0.3,2.7,0.4,4,0.4
					c8.2,0,16.7-4.3,19.3-14.9c5.1-20.5-6.3-47.5-10.4-56.3c-0.4-0.7-1-1.5-1.8-1.8C128.9,68.9,109.4,60.7,91.4,60.7L91.4,60.7z"/>
				<path class="st0" d="M109,123.1c-0.3,0-0.6,0-0.7-0.1c-11.2-5.4-17.3-14.4-20.4-21.1c-0.6-0.9,0-2.1,0.9-2.7
					c0.9-0.6,2.1,0,2.7,0.9c2.8,6.1,8.3,14.4,18.6,19.2c0.9,0.6,1.5,1.6,0.9,2.7C110.5,122.6,109.7,123.1,109,123.1z"/>
				<path class="st0" d="M106,142.7c-0.1,0-0.3,0-0.3,0c-31.5-4.9-37.9-37.7-37.9-37.9c-0.1-1,0.6-2.1,1.6-2.2
					c1-0.3,2.1,0.6,2.2,1.6c0.3,1.2,6,30.2,34.7,34.8c1,0.1,1.8,1.2,1.6,2.2C107.8,142,106.9,142.7,106,142.7z"/>
				<path class="st0" d="M156.6,76h-11.3c-1,0-1.9-0.9-1.9-1.9c0-1,0.9-1.9,1.9-1.9h11.3c1,0,1.9,0.9,1.9,1.9
					C158.5,75.1,157.6,76,156.6,76z"/>
				<path class="st0" d="M136.2,66.8c-1,0-1.9-0.9-1.9-1.9V53.7c0-1,0.9-1.9,1.9-1.9s1.9,0.9,1.9,1.9V65
					C138.1,66.1,137.2,66.8,136.2,66.8z"/>
			</g>
			<path class="st0" d="M68.8,143.3H34.3c-1,0-1.9-0.9-1.9-1.9c0-1,0.9-1.9,1.9-1.9h34.5c1,0,1.9,0.9,1.9,1.9
				C70.9,142.4,70,143.3,68.8,143.3z"/>
			<path class="st0" d="M65.5,132.6H44.8c-1,0-1.9-0.9-1.9-1.9c0-1,0.9-1.9,1.9-1.9h20.7c1,0,1.9,0.9,1.9,1.9
				C67.6,131.7,66.7,132.6,65.5,132.6z"/>
			<path class="st0" d="M34.3,132.6c-0.6,0-1-0.3-1.5-0.6c-0.4-0.4-0.6-0.9-0.6-1.5c0-0.1,0-0.3,0-0.4c0-0.1,0-0.3,0.1-0.4
				c0-0.1,0.1-0.3,0.1-0.4c0.1-0.1,0.1-0.3,0.3-0.3c0.7-0.7,2.1-0.7,2.7,0c0.4,0.4,0.6,0.9,0.6,1.5s-0.3,1-0.6,1.5
				C35.3,132.4,34.9,132.6,34.3,132.6z"/>
		</g>
	</g>
	<g>
		<g>
			<g>
				<path class="st0" d="M247.3,142.7c0,2.2,0,5-3.1,5c-3,0-3-2.7-3-5v-28.5c0-6.2,0-15.7-10.7-15.7c-12.3,0-14.1,12.1-14.1,22.4v22
					c0,2.1,0,4.8-2.9,4.8s-3.2-2.7-3.2-4.9v-29.3c0-5.4,0.4-14.8-9.9-14.8c-10.6,0-14.8,9.6-14.8,20v23.8c0,2.3,0.1,5.2-3,5.2
					s-3.1-2.8-3.1-5.1V98.4c0-2.2,0-5.1,3.1-5.1s3,2.7,3,5v3.5c2.1-2.9,6.5-8.5,15.8-8.5c9.7,0,12.5,5.4,14,8.6
					c2.8-3.4,7.1-8.6,16.4-8.6c5.7,0,9.6,2.5,11.7,4.7c1.8,1.9,3.9,5.7,3.9,13.1L247.3,142.7L247.3,142.7z"/>
				<path class="st0" d="M299,141.7c-4.5,4.3-10.2,6-16.1,6c-14.7,0-23.3-11.3-23.3-26.9c0-11.3,4.4-27.5,23.3-27.5
					c5.2,0,10.2,0.9,15.2,5.3c3.5,3.2,8.1,8.6,8.1,22C306.2,131.1,303.4,137.5,299,141.7z M283.1,98.3c-10.1,0-17.1,7.9-17.1,22
					c0,14.3,7.2,22.4,17.1,22.4c11.1,0,16.7-9.7,16.7-21.8C299.8,116,298.8,98.3,283.1,98.3z"/>
				<path class="st0" d="M324.9,142.7c-0.1,2.2-0.1,5-3.1,5s-3-2.7-3-5V78.4c0-2.2,0-5,3-5s3.1,2.7,3.1,5v24.5
					c2.6-3.2,7.7-9.6,19.6-9.6c16.7,0,23.1,13.9,23.1,26.8c0,7.6-2.9,27.6-23.7,27.6c-11.4,0-16-5.5-19-9.1V142.7L324.9,142.7z
					 M343.8,98.3c-4.6,0-8.7,1.6-12,4.2c-3.7,3-6.9,7.7-6.9,18.8c0,15,8.6,21.4,18.4,21.4c9,0,17.9-7.1,17.9-22.3
					C361.2,105.9,353.2,98.3,343.8,98.3z"/>
				<path class="st0" d="M383.5,121.2c0.2,12.5,5.9,21.5,17.5,21.5c2.9,0,11.3-0.6,15.4-11.3c0.6-1.3,1.5-2.2,2.9-2.2
					c1.8,0,3,1.5,3,2.8c0,1.7-4.2,15.7-21.5,15.7c-16.2,0-23.7-11.9-23.7-27.2c0-16.4,8.4-27.2,23.7-27.2
					c22.2,0,22.5,22.7,22.5,23.6c0,4.3-2.6,4.3-5.7,4.3L383.5,121.2L383.5,121.2z M416.9,116.2c-0.3-3.1-0.5-7.6-3.9-12.3
					c-2.2-2.9-6.4-5.6-12.4-5.6c-4.9,0-9.5,2.1-12.6,6c-3.4,4.4-4,8.4-4.4,11.9H416.9z"/>
				<path class="st0" d="M439,121.2c0.2,12.5,5.9,21.5,17.5,21.5c2.9,0,11.3-0.6,15.4-11.3c0.6-1.3,1.5-2.2,2.9-2.2
					c1.8,0,3,1.5,3,2.8c0,1.7-4.2,15.7-21.5,15.7c-16.2,0-23.7-11.9-23.7-27.2c0-16.4,8.4-27.2,23.7-27.2
					c22.2,0,22.5,22.7,22.5,23.6c0,4.3-2.6,4.3-5.7,4.3L439,121.2L439,121.2z M472.3,116.2c-0.3-3.1-0.5-7.6-3.9-12.3
					c-2.2-2.9-6.4-5.6-12.4-5.6c-4.9,0-9.5,2.1-12.6,6c-3.4,4.4-4,8.4-4.4,11.9H472.3z"/>
			</g>
		</g>
	</g>
</g>
</svg>
